<svg width="108" height="108" viewBox="0 0 108 108" fill="none" xmlns="http://www.w3.org/2000/svg">
    <g clip-path="url(#clip0)">
        <path d="M56.4545 105.545H2.45447C0.981914 105.545 0 104.563 0 103.091V98.1815C0 96.7088 0.981914 95.7271 2.45447 95.7271H56.4545C57.9272 95.7271 58.9089 96.709 58.9089 98.1815V103.091C58.9091 104.563 57.9272 105.545 56.4545 105.545Z" fill="#F6B545"/>
        <path d="M46.6364 98.1818H0C0 96.709 0.981914 95.7273 2.45447 95.7273H46.6364V98.1818Z" fill="#FFCB5B"/>
        <path d="M46.6364 98.1818V100.636C46.6364 102.109 45.6545 103.091 44.1819 103.091H0C0 104.564 0.981914 105.545 2.45447 105.545H44.1817H56.4545C57.9272 105.545 58.9089 104.563 58.9089 103.091V98.1816H46.6364V98.1818Z" fill="#F19920"/>
        <path d="M7.36316 103.091V99.4089C7.36316 98.6725 6.87231 98.1816 6.13593 98.1816C5.39954 98.1816 4.90869 98.6725 4.90869 99.4089V103.091" fill="#F19920"/>
        <path d="M14.7264 103.091V99.4089C14.7264 98.6725 14.2356 98.1816 13.4992 98.1816C12.7628 98.1816 12.272 98.6725 12.272 99.4089V103.091" fill="#F19920"/>
        <path d="M22.0912 103.091V99.4089C22.0912 98.6725 21.6003 98.1816 20.864 98.1816C20.1276 98.1816 19.6367 98.6725 19.6367 99.4089V103.091" fill="#F19920"/>
        <path d="M29.4545 103.091V99.4089C29.4545 98.6725 28.9636 98.1816 28.2272 98.1816C27.4909 98.1816 27 98.6725 27 99.4089V103.091" fill="#F19920"/>
        <path d="M36.8178 103.091V99.4089C36.8178 98.6725 36.3269 98.1816 35.5905 98.1816C34.8541 98.1816 34.3633 98.6725 34.3633 99.4089V103.091" fill="#F19920"/>
        <path d="M44.181 103.091V99.4089C44.181 98.6725 43.6902 98.1816 42.9538 98.1816C42.2174 98.1816 41.7266 98.6725 41.7266 99.4089V103.091" fill="#F19920"/>
        <path d="M61.3632 95.727H7.36316C5.89039 95.727 4.90869 94.7451 4.90869 93.2725V88.3634C4.90869 86.8906 5.89061 85.9089 7.36316 85.9089H61.3632C62.8359 85.9089 63.8176 86.8908 63.8176 88.3634V93.2725C63.8176 94.7453 62.8359 95.727 61.3632 95.727Z" fill="#F6B545"/>
        <path d="M51.5451 88.3634H4.90869C4.90869 86.8906 5.89061 85.9089 7.36316 85.9089H51.5451V88.3634Z" fill="#FFCB5B"/>
        <path d="M51.5451 88.3635V90.818C51.5451 92.2907 50.5632 93.2724 49.0906 93.2724H4.90869C4.90869 94.7452 5.89061 95.7269 7.36316 95.7269H49.0904H61.3632C62.8359 95.7269 63.8176 94.745 63.8176 93.2724V88.3633H51.5451V88.3635Z" fill="#F19920"/>
        <path d="M12.2719 93.2727V89.5908C12.2719 88.8544 11.781 88.3635 11.0446 88.3635C10.3082 88.3635 9.81738 88.8544 9.81738 89.5908V93.2727" fill="#F19920"/>
        <path d="M19.6351 93.2727V89.5908C19.6351 88.8544 19.1443 88.3635 18.4079 88.3635C17.6715 88.3635 17.1807 88.8544 17.1807 89.5908V93.2727" fill="#F19920"/>
        <path d="M26.9999 93.2727V89.5908C26.9999 88.8544 26.509 88.3635 25.7726 88.3635C25.0363 88.3635 24.5454 88.8544 24.5454 89.5908V93.2727" fill="#F19920"/>
        <path d="M34.3632 93.2727V89.5908C34.3632 88.8544 33.8723 88.3635 33.1359 88.3635C32.3995 88.3635 31.9087 88.8544 31.9087 89.5908V93.2727" fill="#F19920"/>
        <path d="M41.7264 93.2727V89.5908C41.7264 88.8544 41.2356 88.3635 40.4992 88.3635C39.7628 88.3635 39.272 88.8544 39.272 89.5908V93.2727" fill="#F19920"/>
        <path d="M49.0912 93.2727V89.5908C49.0912 88.8544 48.6003 88.3635 47.8639 88.3635C47.1276 88.3635 46.6367 88.8544 46.6367 89.5908V93.2727" fill="#F19920"/>
        <path d="M66.2723 76.091H12.2723C10.7996 76.091 9.81787 75.1091 9.81787 73.6366V68.7274C9.81787 67.2546 10.7998 66.2729 12.2723 66.2729H66.2723C67.7451 66.2729 68.7268 67.2549 68.7268 68.7274V73.6366C68.7268 75.1093 67.7451 76.091 66.2723 76.091Z" fill="#F6B545"/>
        <path d="M56.4533 68.7274H9.81689C9.81689 67.2547 10.7988 66.2729 12.2714 66.2729H56.4533V68.7274Z" fill="#FFCB5B"/>
        <path d="M56.4533 68.727V71.1815C56.4533 72.6543 55.4714 73.636 53.9988 73.636H9.81689C9.81689 75.1087 10.7988 76.0904 12.2714 76.0904H53.9988H66.2716C67.7444 76.0904 68.726 75.1085 68.726 73.636V68.7268H56.4533V68.727Z" fill="#F19920"/>
        <path d="M17.181 73.6362V69.9543C17.181 69.2179 16.6902 68.7271 15.9538 68.7271C15.2174 68.7271 14.7266 69.2179 14.7266 69.9543V73.6362" fill="#F19920"/>
        <path d="M24.5438 73.6362V69.9543C24.5438 69.2179 24.053 68.7271 23.3166 68.7271C22.5802 68.7271 22.0894 69.2179 22.0894 69.9543V73.6362" fill="#F19920"/>
        <path d="M31.9071 73.6362V69.9543C31.9071 69.2179 31.4163 68.7271 30.6799 68.7271C29.9435 68.7271 29.4526 69.2179 29.4526 69.9543V73.6362" fill="#F19920"/>
        <path d="M39.2723 73.6362V69.9543C39.2723 69.2179 38.7815 68.7271 38.0451 68.7271C37.3087 68.7271 36.8179 69.2179 36.8179 69.9543V73.6362" fill="#F19920"/>
        <path d="M46.6351 73.6362V69.9543C46.6351 69.2179 46.1443 68.7271 45.4079 68.7271C44.6715 68.7271 44.1807 69.2179 44.1807 69.9543V73.6362" fill="#F19920"/>
        <path d="M53.9979 73.6362V69.9543C53.9979 69.2179 53.5071 68.7271 52.7707 68.7271C52.0343 68.7271 51.5435 69.2179 51.5435 69.9543V73.6362" fill="#F19920"/>
        <path d="M61.3632 66.2729H7.36316C5.89039 66.2729 4.90869 65.291 4.90869 63.8184V58.9093C4.90869 57.4365 5.89061 56.4548 7.36316 56.4548H61.3632C62.8359 56.4548 63.8176 57.4368 63.8176 58.9093V63.8184C63.8176 65.291 62.8359 66.2729 61.3632 66.2729Z" fill="#F6B545"/>
        <path d="M51.5451 58.9093H4.90869C4.90869 57.4365 5.89061 56.4548 7.36316 56.4548H51.5451V58.9093Z" fill="#FFCB5B"/>
        <path d="M51.5451 58.9089V61.3634C51.5451 62.8361 50.5632 63.8178 49.0906 63.8178H4.90869C4.90869 65.2906 5.89061 66.2723 7.36316 66.2723H49.0904H61.3632C62.8359 66.2723 63.8176 65.2904 63.8176 63.8178V58.9087H51.5451V58.9089Z" fill="#F19920"/>
        <path d="M12.2719 63.8179V60.1359C12.2719 59.3995 11.781 58.9087 11.0446 58.9087C10.3082 58.9087 9.81738 59.3995 9.81738 60.1359V63.8179" fill="#F19920"/>
        <path d="M19.6351 63.8179V60.1359C19.6351 59.3995 19.1443 58.9087 18.4079 58.9087C17.6715 58.9087 17.1807 59.3995 17.1807 60.1359V63.8179" fill="#F19920"/>
        <path d="M26.9999 63.8179V60.1359C26.9999 59.3995 26.509 58.9087 25.7726 58.9087C25.0363 58.9087 24.5454 59.3995 24.5454 60.1359V63.8179" fill="#F19920"/>
        <path d="M34.3632 63.8179V60.1359C34.3632 59.3995 33.8723 58.9087 33.1359 58.9087C32.3995 58.9087 31.9087 59.3995 31.9087 60.1359V63.8179" fill="#F19920"/>
        <path d="M41.7264 63.8179V60.1359C41.7264 59.3995 41.2356 58.9087 40.4992 58.9087C39.7628 58.9087 39.272 59.3995 39.272 60.1359V63.8179" fill="#F19920"/>
        <path d="M49.0912 63.8179V60.1359C49.0912 59.3995 48.6003 58.9087 47.8639 58.9087C47.1276 58.9087 46.6367 59.3995 46.6367 60.1359V63.8179" fill="#F19920"/>
        <path d="M56.4545 85.9094H2.45447C0.981914 85.9094 0 84.9275 0 83.4547V78.5455C0 77.0728 0.981914 76.0911 2.45447 76.0911H56.4545C57.9272 76.0911 58.9089 77.073 58.9089 78.5455V83.4547C58.9091 84.9275 57.9272 85.9094 56.4545 85.9094Z" fill="#F6B545"/>
        <path d="M46.6364 78.5458H0C0 77.073 0.981914 76.0913 2.45447 76.0913H46.6364V78.5458Z" fill="#FFCB5B"/>
        <path d="M46.6364 78.5454V80.9998C46.6364 82.4726 45.6545 83.4543 44.1819 83.4543H0C0 84.9271 0.981914 85.9088 2.45447 85.9088H44.1817H56.4545C57.9272 85.9088 58.9089 84.9269 58.9089 83.4543V78.5452H46.6364V78.5454Z" fill="#F19920"/>
        <path d="M7.36316 83.4543V79.7724C7.36316 79.036 6.87231 78.5452 6.13593 78.5452C5.39954 78.5452 4.90869 79.036 4.90869 79.7724V83.4543" fill="#F19920"/>
        <path d="M14.7264 83.4543V79.7724C14.7264 79.036 14.2356 78.5452 13.4992 78.5452C12.7628 78.5452 12.272 79.036 12.272 79.7724V83.4543" fill="#F19920"/>
        <path d="M22.0912 83.4543V79.7724C22.0912 79.036 21.6003 78.5452 20.864 78.5452C20.1276 78.5452 19.6367 79.036 19.6367 79.7724V83.4543" fill="#F19920"/>
        <path d="M29.4545 83.4543V79.7724C29.4545 79.036 28.9636 78.5452 28.2272 78.5452C27.4909 78.5452 27 79.036 27 79.7724V83.4543" fill="#F19920"/>
        <path d="M36.8178 83.4543V79.7724C36.8178 79.036 36.3269 78.5452 35.5905 78.5452C34.8541 78.5452 34.3633 79.036 34.3633 79.7724V83.4543" fill="#F19920"/>
        <path d="M44.181 83.4543V79.7724C44.181 79.036 43.6902 78.5452 42.9538 78.5452C42.2174 78.5452 41.7266 79.036 41.7266 79.7724V83.4543" fill="#F19920"/>
        <path d="M103.091 89.5907C99.9005 87.3816 98.1822 83.6999 98.1822 79.7726C98.1822 64.7999 92.2914 50.5635 81.7367 40.009L71.1822 29.4546V22.0909L79.7731 11.2909C80.5097 10.309 81.0005 9.08179 81.0005 7.85435C81.0005 4.90881 78.5461 2.45435 75.6005 2.45435H66.2733L63.8188 7.36349L58.9097 2.45435H47.1278C44.1822 2.45435 41.7278 4.90881 41.7278 7.85435C41.7278 9.08158 42.2186 10.3088 42.955 11.2907L51.5458 22.0907V29.4543L40.9914 40.0088C30.4369 50.5633 24.5458 64.7997 24.5458 79.7724C24.5458 83.6997 22.8277 87.3816 19.6367 89.5905C16.4456 91.7995 14.7275 95.4814 14.7275 99.4086C14.7275 102.845 17.4275 105.545 20.8639 105.545H101.864C105.3 105.545 108 102.845 108 99.4086C108.001 95.4818 106.282 91.7999 103.091 89.5907Z" fill="#C97629"/>
        <path d="M103.092 89.5907C99.9009 87.1363 98.1826 83.4544 98.1826 79.5271C98.4281 64.0635 91.3098 49.5816 80.5098 38.5363L71.1826 29.4543V22.0907L79.7734 11.2907C81.2462 9.57264 81.4915 7.11796 80.2643 4.90881C79.2824 3.19073 77.3187 2.45435 75.3551 2.45435C73.637 2.45435 72.6551 4.41796 73.146 5.89073C73.3915 6.38158 73.6368 7.11796 73.6368 7.85435C73.6368 9.08158 73.146 10.3088 72.4096 11.2907L63.8187 22.0907V29.4543H51.546L49.0915 31.9088H66.2734L75.3553 40.9907C85.419 51.0544 89.3462 64.7999 88.3645 78.7907C88.119 82.9635 89.8373 86.8907 93.0281 89.3452C93.2736 89.5907 93.519 89.8361 93.7645 89.8361C97.4464 93.7633 94.2553 100.391 88.61 100.391H14.9736C15.4645 103.091 17.9192 105.3 20.8645 105.3H92.0464H98.1828H101.865C105.301 105.3 108.001 102.6 108.001 99.1635V98.6727C108.001 94.9907 106.037 91.7999 103.092 89.5907Z" fill="#B06328"/>
        <path d="M72.4092 29.4546H50.3181C48.3545 29.4546 46.6362 27.7366 46.6362 25.7727C46.6362 23.8091 48.3543 22.0908 50.3181 22.0908H72.409C74.3726 22.0908 76.0909 23.8089 76.0909 25.7727C76.0909 27.7366 74.3728 29.4546 72.4092 29.4546Z" fill="#FFCB5B"/>
        <path d="M50.3185 22.0911H62.5913C63.3277 22.0911 63.8185 22.5819 63.8185 23.3183C63.8185 24.0547 63.3277 24.5455 62.5913 24.5455H50.3185C49.5822 24.5455 49.0913 24.0547 49.0913 23.3183C49.0913 22.5821 49.5824 22.0911 50.3185 22.0911Z" fill="#FFE278"/>
        <path d="M72.4096 22.0911H71.1823V24.5455C71.1823 26.0183 70.2004 27 68.7279 27H46.8823C47.3732 28.4728 48.8459 29.4545 50.3187 29.4545H72.4096C74.3732 29.4545 76.0915 27.7364 76.0915 25.7726C76.0915 23.8087 74.3732 22.0911 72.4096 22.0911Z" fill="#F6B545"/>
        <path d="M65.0451 27H72.4087C73.1451 27 73.636 27.4909 73.636 28.2272C73.636 28.9636 73.1451 29.4545 72.4087 29.4545H65.0451C64.3087 29.4545 63.8179 28.9636 63.8179 28.2272C63.8177 27.4909 64.3087 27 65.0451 27Z" fill="#F19920"/>
        <path d="M63.8178 29.4546H58.9087V49.091H63.8178V29.4546Z" fill="#F6B545"/>
        <path d="M58.9087 29.4546V31.9093H61.3632V49.091H63.8176V31.9093V29.4546H58.9087Z" fill="#F19920"/>
        <path d="M61.3644 85.9092C72.2093 85.9092 81.0008 77.1177 81.0008 66.2729C81.0008 55.428 72.2093 46.6365 61.3644 46.6365C50.5195 46.6365 41.728 55.428 41.728 66.2729C41.728 77.1177 50.5195 85.9092 61.3644 85.9092Z" fill="#F6B545"/>
        <path d="M76.337 53.7546C79.2826 57.191 81.0007 61.3638 81.0007 66.2729C81.0007 77.0729 72.1643 85.9093 61.3643 85.9093C56.4551 85.9093 52.2824 84.1912 48.8462 81.2457C52.5281 85.6638 57.9281 88.3638 63.819 88.3638C74.6189 88.3638 83.4553 79.5274 83.4553 68.7274C83.4551 62.591 80.7551 57.191 76.337 53.7546Z" fill="#B06328"/>
        <path d="M61.364 83.4549C70.8533 83.4549 78.546 75.7623 78.546 66.273C78.546 56.7837 70.8533 49.0911 61.364 49.0911C51.8747 49.0911 44.1821 56.7837 44.1821 66.273C44.1821 75.7623 51.8747 83.4549 61.364 83.4549Z" fill="#FFCB5B"/>
        <path d="M78.5452 66.2729C78.5452 75.8457 70.9361 83.4549 61.3633 83.4549V85.9093C72.1633 85.9093 80.9997 77.073 80.9997 66.2729H78.5452Z" fill="#F19920"/>
        <path d="M61.3644 49.0909V46.6365C50.5644 46.6365 41.728 55.4729 41.728 66.2729H44.1825C44.1827 56.7001 51.7916 49.0909 61.3644 49.0909Z" fill="#FFE27A"/>
        <path d="M63.8184 63.818H58.9093C57.4365 63.818 56.4548 62.8361 56.4548 61.3635C56.4548 59.8908 57.4367 58.9091 58.9093 58.9091H66.2729C67.7457 58.9091 68.7274 57.9271 68.7274 56.4546C68.7274 54.9818 67.7455 54.0001 66.2729 54.0001H63.8184C63.8184 52.5274 62.8365 51.5457 61.364 51.5457C59.8912 51.5457 58.9095 52.5276 58.9095 54.0001C54.7368 54.0001 51.5459 57.191 51.5459 61.3637C51.5459 65.5365 54.7368 68.7274 58.9095 68.7274H63.8187C65.2914 68.7274 66.2731 69.7093 66.2731 71.1818C66.2731 72.6544 65.2912 73.6363 63.8187 73.6363H56.455C54.9823 73.6363 54.0006 74.6182 54.0006 76.0908C54.0006 77.5635 54.9825 78.5452 56.455 78.5452H58.9095C58.9095 80.018 59.8914 80.9997 61.364 80.9997C62.8367 80.9997 63.8184 80.0178 63.8184 78.5452C67.9912 78.5452 71.1821 75.3544 71.1821 71.1816C71.1821 67.0089 67.9912 63.818 63.8184 63.818Z" fill="#E78825"/>
    </g>
    <defs>
        <clipPath id="clip0">
            <rect width="108" height="108" fill="white"/>
        </clipPath>
    </defs>
</svg>
