<svg width="35" height="35" viewBox="0 0 35 35" fill="none" xmlns="http://www.w3.org/2000/svg">
    <g clip-path="url(#clip0)">
        <path d="M28.9732 8.11857L21.3303 0.176836C21.2215 0.0638672 21.0714 0 20.9146 0H9.5234C8.24857 0 7.21141 1.03676 7.21141 2.31105V10.3846H2.59498C1.64119 10.3846 0.865234 11.1604 0.865234 12.1139V20.7708C0.865234 21.7243 1.64119 22.5 2.59498 22.5H7.21141V27.693C7.21141 28.9651 8.24857 30 9.5234 30H26.8225C28.0973 30 29.1345 28.9656 29.1345 27.6943V8.51865C29.1345 8.36947 29.0767 8.22609 28.9732 8.11857ZM21.0576 1.55748L27.3317 8.07691H21.0576V1.55748ZM2.59498 21.3462C2.2774 21.3462 2.01912 21.0881 2.01912 20.7708V12.1139C2.01912 11.7966 2.27746 11.5385 2.59498 11.5385H18.174C18.4916 11.5385 18.7499 11.7966 18.7499 12.1139V20.7708C18.7499 21.0881 18.4915 21.3462 18.174 21.3462H2.59498ZM27.9806 27.6943C27.9806 28.3294 27.4611 28.8462 26.8224 28.8462H9.5234C8.88478 28.8462 8.36523 28.3289 8.36523 27.693V22.5H18.174C19.1278 22.5 19.9037 21.7243 19.9037 20.7708V12.1139C19.9037 11.1604 19.1278 10.3846 18.174 10.3846H8.36523V2.31105C8.36523 1.67291 8.88478 1.15383 9.5234 1.15383H19.9037V8.65383C19.9037 8.97246 20.162 9.23074 20.4806 9.23074H27.9806V27.6943Z" fill="#10C7E3" stroke="#10C7E3" stroke-width="0.2"/>
        <path d="M7.76278 14.6422C7.57124 14.3932 7.33347 14.2315 7.04952 14.1571C6.86472 14.1075 6.4681 14.0828 5.8596 14.0828H4.25391V19.0384H5.25451V17.1691H5.90695C6.35994 17.1691 6.70587 17.1454 6.94476 17.098C7.12054 17.0597 7.29351 16.9814 7.46366 16.8631C7.63382 16.7448 7.77409 16.582 7.88454 16.3746C7.99499 16.1673 8.05018 15.9115 8.05018 15.6073C8.05013 15.2129 7.95433 14.8912 7.76278 14.6422ZM6.90585 16.0062C6.83038 16.1167 6.72614 16.1978 6.59314 16.2496C6.46013 16.3015 6.19652 16.3274 5.80212 16.3274H5.25451V14.9211H5.73791C6.09849 14.9211 6.33849 14.9324 6.4579 14.9549C6.62015 14.9842 6.75427 15.0575 6.86015 15.1747C6.96609 15.2918 7.01905 15.4406 7.01905 15.6208C7.01911 15.7673 6.98132 15.8958 6.90585 16.0062Z" fill="#10C7E3" stroke="#10C7E3" stroke-width="0.2"/>
        <path d="M12.8614 15.4366C12.7533 15.12 12.5955 14.8524 12.3882 14.6338C12.1809 14.4152 11.9318 14.2631 11.6411 14.1774C11.4248 14.1143 11.1104 14.0828 10.698 14.0828H8.86914V19.0384H10.7521C11.1217 19.0384 11.4169 19.0035 11.6377 18.9336C11.9329 18.839 12.1673 18.7071 12.3408 18.5381C12.5707 18.315 12.7476 18.0232 12.8716 17.6626C12.973 17.3673 13.0237 17.0158 13.0237 16.6079C13.0237 16.1437 12.9696 15.7533 12.8614 15.4366ZM11.8878 17.4716C11.8202 17.6936 11.7329 17.8531 11.6259 17.9499C11.5188 18.0468 11.3842 18.1156 11.2219 18.1561C11.098 18.1877 10.8963 18.2035 10.6168 18.2035H9.86975V14.9211H10.3193C10.7272 14.9211 11.0011 14.9369 11.1408 14.9685C11.3278 15.009 11.4822 15.0868 11.6039 15.2017C11.7256 15.3167 11.8202 15.4766 11.8878 15.6817C11.9554 15.8868 11.9893 16.1809 11.9893 16.564C11.9893 16.9471 11.9554 17.2496 11.8878 17.4716Z" fill="#10C7E3" stroke="#10C7E3" stroke-width="0.2"/>
        <path d="M17.2762 14.9211V14.0828H13.8789V19.0384H14.8795V16.9325H16.9483V16.0941H14.8795V14.9211H17.2762Z" fill="#10C7E3" stroke="#10C7E3" stroke-width="0.2"/>
    </g>
    <circle cx="27.5" cy="27.5" r="7" fill="#10C7E3" stroke="#EFF5FF"/>
    <path d="M25.9569 28.6438C25.7927 28.4625 25.5217 28.4575 25.3517 28.6326C25.1817 28.8077 25.177 29.0967 25.3411 29.2782C25.3446 29.282 25.3481 29.2856 25.3517 29.2894L27.1669 31.2259C27.3338 31.4045 27.6048 31.4048 27.7722 31.2268L29.5881 29.2893C29.7581 29.1142 29.7628 28.8252 29.5986 28.6438C29.4344 28.4625 29.1634 28.4574 28.9934 28.6326C28.9899 28.6363 28.9863 28.6401 28.9829 28.6438L27.8979 29.8016V24.0557C27.8979 23.8035 27.7062 23.5991 27.4699 23.5991C27.2335 23.5991 27.0419 23.8035 27.0419 24.0557V29.8016L25.9569 28.6438Z" fill="white"/>
    <defs>
        <clipPath id="clip0">
            <rect width="30" height="30" fill="white"/>
        </clipPath>
    </defs>
</svg>
