<svg width="137" height="113" viewBox="0 0 137 113" fill="none" xmlns="http://www.w3.org/2000/svg">
    <path d="M68.5005 113C51.149 113 33.7963 109.549 20.5576 102.648C-5.92017 88.8467 -5.92017 66.4684 20.5572 52.6668C33.796 45.7657 51.1469 42.3155 68.4987 42.3155C85.8501 42.3155 103.202 45.766 116.441 52.6671C142.919 66.4693 142.919 88.8467 116.441 102.649C103.202 109.55 85.852 113 68.5005 113Z" fill="#787D98" fill-opacity="0.07"/>
    <path d="M35.7727 82.9597C35.7727 82.9597 35.8084 78.1689 32.7811 74.577C30.0995 71.3956 28.6744 69.3774 29.521 68.4483C30.3674 67.5191 32.1793 67.2946 34.6295 69.8656C37.0798 72.4359 37.2693 79.5681 36.9309 81.1814L35.7727 82.9597Z" fill="#BFE9F4"/>
    <path d="M36.2942 77.8098C36.2243 77.8098 36.1616 77.7612 36.1465 77.6905C35.0872 72.7453 32.3666 70.0113 30.8393 68.822C30.7736 68.7707 30.7618 68.6755 30.8133 68.6097C30.8645 68.5444 30.9595 68.5323 31.0258 68.5834C32.5855 69.7986 35.363 72.5885 36.4425 77.6274C36.4601 77.7086 36.4077 77.7893 36.326 77.8068L36.2942 77.8098Z" fill="white"/>
    <path d="M35.6667 84.7428L34.437 85.4512C34.437 85.4512 34.1225 84.3492 32.7769 84.0345C31.4312 83.7194 30.0311 83.7825 29.0884 82.6171C28.1459 81.4521 29.2935 80.1846 29.0884 79.3258C28.8836 78.467 28.7466 78.2202 27.0587 77.3629C25.371 76.5057 24.7035 75.0817 25.974 74.1166C27.2443 73.1512 29.3092 73.8601 30.5521 74.7068C31.6613 75.4629 32.7145 75.662 33.9505 75.8136C35.1866 75.965 37.2052 76.6552 36.8964 79.5239C36.5879 82.3927 35.6667 84.7428 35.6667 84.7428Z" fill="#BFE9F4"/>
    <path d="M35.8077 84.5098C35.7311 84.5098 35.6654 84.4524 35.6573 84.3747C34.9831 78.0134 27.3035 74.9955 27.2261 74.9655C27.148 74.9356 27.109 74.8483 27.1391 74.7704C27.169 74.6928 27.2561 74.6535 27.3345 74.6837C27.4137 74.7139 35.2646 77.7966 35.9582 84.3427C35.9672 84.4258 35.907 84.5001 35.8238 84.5089L35.8077 84.5098Z" fill="white"/>
    <path d="M30.9327 80.9677C30.8688 80.9677 30.8092 80.9272 30.7886 80.8632C30.7629 80.7834 30.8068 80.6985 30.8864 80.6732C30.9975 80.6378 33.6179 79.8123 34.7241 80.6991C34.7892 80.7514 34.7998 80.8462 34.7474 80.9115C34.6953 80.9767 34.6 80.987 34.5346 80.9344C33.5534 80.1485 31.0045 80.9526 30.979 80.9604L30.9327 80.9677Z" fill="white"/>
    <path d="M101.898 80.5591C101.933 80.4555 103.231 73.7836 101.898 69.0532C100.676 64.7161 99.1072 63.1154 96.8558 62.7626C94.6041 62.4101 93.6269 64.0274 94.8226 66.2195C96.0184 68.4113 98.8955 71.3239 99.6027 76.2226C99.8939 78.2392 100.136 79.9918 100.136 79.9918L101.898 80.5591Z" fill="#BFE9F4"/>
    <path d="M101.139 76.73L101.13 76.7297C101.046 76.7251 100.983 76.6536 100.988 76.5705C101.298 71.1704 99.522 66.3478 96.3534 63.9847C96.2868 63.9349 96.2731 63.84 96.3231 63.7733C96.373 63.7068 96.4681 63.6929 96.535 63.7428C99.7839 66.1657 101.606 71.0876 101.29 76.5877C101.285 76.6681 101.219 76.73 101.139 76.73Z" fill="white"/>
    <path d="M105.386 84.0342C105.212 82.7939 105.928 80.931 107.625 80.4918C109.322 80.0529 110.081 79.0775 109.468 78.0136C108.855 76.95 108.999 75.9752 110.541 75.5327C112.082 75.0905 113.432 74.3184 112.544 72.6993C111.9 71.5254 111.757 70.7648 113.337 68.4489C114.647 66.5286 113.576 65.4019 111.935 65.6151C110.293 65.8284 109.281 67.7755 108.256 68.1039C107.232 68.4325 106.992 66.6884 105.639 67.4677C104.286 68.2474 104.369 70.2444 104.326 71.6366C104.284 73.0288 104.192 73.3445 102.969 73.1735C101.745 73.0023 100.551 73.2047 100.575 76.1559C100.595 78.6887 101.95 81.8233 101.95 81.8233L105.386 84.0342Z" fill="#BFE9F4"/>
    <path d="M103.238 82.1458L103.22 82.1448C103.137 82.1355 103.078 82.0609 103.087 81.9778C103.939 74.3671 110.485 67.9496 112.191 66.6474C112.258 66.5967 112.352 66.6094 112.404 66.6758C112.454 66.7423 112.442 66.8368 112.375 66.8876C110.691 68.1729 104.228 74.507 103.388 82.0116C103.379 82.0887 103.314 82.1458 103.238 82.1458Z" fill="white"/>
    <path d="M106.222 74.0122C106.16 74.0122 106.103 73.9748 106.08 73.914C106.051 73.8358 106.091 73.7488 106.169 73.7195C108.611 72.8127 111.377 73.2401 111.494 73.2588C111.576 73.2721 111.632 73.3498 111.619 73.4319C111.606 73.5144 111.526 73.5688 111.446 73.5573C111.418 73.5525 108.64 73.1241 106.275 74.0028L106.222 74.0122Z" fill="white"/>
    <path d="M104.047 78.5837C104.005 78.5837 103.963 78.5665 103.934 78.5327C102.305 76.6925 101.954 74.4964 101.939 74.4037C101.927 74.3215 101.983 74.2445 102.066 74.2318C102.15 74.2206 102.226 74.2756 102.238 74.3581C102.242 74.3798 102.593 76.5614 104.161 78.3327C104.216 78.3952 104.21 78.4907 104.147 78.546C104.119 78.5714 104.083 78.5837 104.047 78.5837Z" fill="white"/>
    <path d="M74.4234 103.87C65.8156 98.9108 57.8294 93.5195 54.1836 87.1929L65.251 80.8168L74.4234 103.87Z" fill="#DEF1FB"/>
    <path d="M33.8438 42.2377V88.9937L81.802 61.3654L81.8017 18.8601L46.1409 39.4043L44.9112 35.8619L33.8438 42.2377Z" fill="#00AEC9"/>
    <path d="M33.8438 88.9937L36.3031 46.4881L84.2607 18.8598L81.802 61.3654L33.8438 88.9937Z" fill="#C8E8F9"/>
    <path d="M33.8438 88.9937L37.5328 47.1968L85.4907 19.5682L81.802 61.3654L33.8438 88.9937Z" fill="#10C7E3"/>
    <path d="M42.4492 47.1969V93.9529L90.4075 66.3243L90.4072 23.8191L54.7464 44.3632L53.5164 40.8211L42.4492 47.1969Z" fill="#FFD95C"/>
    <path d="M56.2637 61.0198C56.1429 61.0198 56.125 60.8805 56.125 60.7975V20.9172C56.125 20.6369 56.3303 20.2816 56.5736 20.1418L91.1861 0.201505C91.2442 0.167976 91.299 0.150455 91.3447 0.150455C91.4655 0.150455 91.4837 0.289721 91.4837 0.37279V40.2533C91.4837 40.5337 91.2781 40.8886 91.0347 41.0287L56.4223 60.9687C56.3639 61.0023 56.3094 61.0198 56.2637 61.0198Z" fill="white"/>
    <path d="M91.3477 -4.22911e-07C91.2771 -4.22911e-07 91.1975 0.0229651 91.1134 0.0712968L56.5009 20.0116C56.2112 20.1783 55.9766 20.584 55.9766 20.9178V60.798C55.9766 61.0346 56.0946 61.1714 56.2666 61.1714C56.3371 61.1714 56.4167 61.1484 56.5009 61.1001L91.1134 41.1601C91.4031 40.9934 91.638 40.5874 91.638 40.2539V0.373368C91.638 0.136844 91.5196 -0.000305599 91.3477 -4.22911e-07ZM91.3274 0.305403C91.3313 0.319901 91.3352 0.342256 91.3352 0.373368V40.2539C91.3352 40.4787 91.1572 40.7859 90.962 40.8985L56.3495 60.8385C56.3214 60.8545 56.3005 60.8624 56.2866 60.8663C56.2826 60.8518 56.2793 60.8294 56.2793 60.798V20.9178C56.2793 20.6927 56.457 20.3855 56.6523 20.2732L91.2647 0.33319C91.2929 0.316878 91.3138 0.309025 91.3274 0.305403Z" fill="#C8E8F9"/>
    <path d="M59.6641 22.4386L71.9609 15.3544V29.5227L59.6641 36.6072V22.4386Z" fill="#787D98" fill-opacity="0.6"/>
    <path d="M70.1159 18.8964V23.1469L69.7305 23.3616C69.7305 23.3616 69.7305 22.7786 69.7305 22.0594C69.7305 21.3405 69.1438 21.0955 68.4197 21.5124L63.204 24.5174C62.4799 24.9342 61.8929 25.8552 61.8929 26.5745V27.8767L61.5078 28.106V23.8555L70.1159 18.8964Z" fill="white"/>
    <path d="M67.7484 29.7298C67.1175 30.0932 66.6059 29.7117 66.6059 28.8776V22.0599L65.0263 22.9178V29.7875C65.0263 30.6218 64.5153 31.5923 63.8844 31.956L62.7422 32.614V33.0649L68.8906 29.5229V29.0719C68.8906 29.0719 68.3793 29.3664 67.7484 29.7298Z" fill="white"/>
    <path d="M74.4219 14.6459C74.4222 15.0371 74.7743 15.1516 75.2087 14.9015L87.1622 8.01486C87.5966 7.76475 87.9487 7.24458 87.9487 6.8534C87.9487 6.46222 87.5966 6.34774 87.1622 6.59785L75.2087 13.4845C74.7739 13.7346 74.4219 14.2547 74.4219 14.6459Z" fill="#787D98" fill-opacity="0.2"/>
    <path d="M74.4219 18.8968C74.4222 19.2883 74.7743 19.4025 75.2087 19.1524L87.1622 12.2658C87.5966 12.0156 87.9487 11.4955 87.9487 11.1043C87.9487 10.7131 87.5966 10.5986 87.1622 10.8491L75.2087 17.7354C74.7739 17.9858 74.4219 18.5056 74.4219 18.8968Z" fill="#787D98" fill-opacity="0.2"/>
    <path d="M74.4219 23.1473C74.4222 23.5388 74.7743 23.653 75.2087 23.4029L87.1622 16.5165C87.5966 16.2661 87.9487 15.746 87.9487 15.3548C87.9487 14.9636 87.5966 14.8494 87.1622 15.0995L75.2087 21.9858C74.7739 22.2363 74.4219 22.7561 74.4219 23.1473Z" fill="#787D98" fill-opacity="0.2"/>
    <path d="M74.4219 27.398C74.4222 27.7895 74.7743 27.9037 75.2087 27.6536L87.1622 20.7673C87.5966 20.5169 87.9487 19.997 87.9487 19.6055C87.9487 19.2143 87.5966 19.0999 87.1622 19.3503L75.2087 26.2369C74.7739 26.487 74.4219 27.0072 74.4219 27.398Z" fill="#787D98" fill-opacity="0.2"/>
    <path d="M59.6641 40.15C59.6641 40.5415 60.0164 40.6557 60.4506 40.4055L87.1606 25.0169C87.595 24.7664 87.9471 24.2463 87.9471 23.8551C87.9471 23.4639 87.595 23.3494 87.1606 23.5998L60.4506 38.9885C60.0161 39.2386 59.6641 39.7588 59.6641 40.15Z" fill="#787D98" fill-opacity="0.2"/>
    <path d="M59.6641 44.4011C59.6641 44.7923 60.0164 44.9068 60.4506 44.6564L87.1606 29.2677C87.595 29.0173 87.9471 28.4974 87.9471 28.1059C87.9471 27.7147 87.595 27.6003 87.1606 27.8507L60.4506 43.2394C60.0161 43.4898 59.6641 44.0096 59.6641 44.4011Z" fill="#787D98" fill-opacity="0.2"/>
    <path d="M59.6641 48.6519C59.6641 49.043 60.0164 49.1575 60.4506 48.9071L87.1606 33.5184C87.595 33.2683 87.9471 32.7481 87.9471 32.357C87.9471 31.9655 87.595 31.8513 87.1606 32.1014L60.4506 47.4904C60.0161 47.7405 59.6641 48.2607 59.6641 48.6519Z" fill="#787D98" fill-opacity="0.2"/>
    <path d="M42.4492 93.9529L51.057 56.4064L99.0149 28.7779L90.4072 66.3243L42.4492 93.9529Z" fill="#FFEDB0"/>
    <path d="M54.1836 59.3467V87.1934L65.251 80.8173L65.2513 52.9712L54.1836 59.3467Z" fill="#FFE388"/>
    <path d="M74.4327 103.69C73.4921 102.991 64.4169 96.0682 59.8033 86.1814C54.8925 75.6573 54.8967 63.3826 54.8985 58.7618V58.6181L87.7975 39.6653C87.7957 44.328 87.8024 56.6202 92.7308 67.1815C97.2372 76.8387 105.965 83.6818 107.35 84.7266L74.4327 103.69Z" fill="white"/>
    <path d="M87.948 39.4036L54.7462 58.5307C54.7462 62.8763 54.6542 75.5064 59.6652 86.245C64.5837 96.7857 74.4214 103.87 74.4214 103.87L107.623 84.7428C107.623 84.7428 97.7857 77.6581 92.867 67.1176C87.8559 56.3793 87.948 43.7492 87.948 39.4036ZM87.6452 39.9267C87.6455 44.7834 87.7397 56.846 92.5927 67.2454C96.9478 76.5776 105.231 83.2902 107.076 84.709L74.4426 103.509C73.1669 102.55 64.432 95.7448 59.9395 86.1173C55.0429 75.6239 55.0471 63.3735 55.0489 58.7617V58.7053L87.6452 39.9267Z" fill="#C8E8F9"/>
    <path d="M84.1931 45.8168L73.6927 51.8661C73.2583 52.1165 72.9156 52.6294 72.9301 53.0124C72.9447 53.3952 73.3113 53.5027 73.746 53.2523L84.2461 47.203C84.6805 46.9529 85.0181 46.4397 85.0035 46.057C84.989 45.6742 84.6273 45.5667 84.1931 45.8168Z" fill="#787D98" fill-opacity="0.2"/>
    <path d="M84.4173 49.939L73.9169 55.9883C73.4824 56.2384 73.1537 56.7438 73.1858 57.1165C73.2181 57.4893 73.5996 57.588 74.0337 57.3379L84.5344 51.2887C84.9686 51.0383 85.2916 50.5338 85.2592 50.161C85.2274 49.7886 84.8514 49.6889 84.4173 49.939Z" fill="#787D98" fill-opacity="0.2"/>
    <path d="M84.8354 53.948L74.335 59.9973C73.9006 60.2474 73.5866 60.7437 73.6384 61.1053C73.6902 61.4669 74.0873 61.5569 74.5215 61.3065L85.0222 55.2572C85.4563 55.0068 85.7639 54.5111 85.7121 54.1498C85.6604 53.7882 85.2695 53.6976 84.8354 53.948Z" fill="#787D98" fill-opacity="0.2"/>
    <path d="M85.4646 57.8357L74.9641 63.885C74.5297 64.1354 74.2321 64.6226 74.3036 64.9727C74.3747 65.3231 74.7879 65.4032 75.2227 65.153L85.7228 59.1038C86.1572 58.8534 86.4481 58.3676 86.3767 58.0175C86.3055 57.6674 85.8987 57.5856 85.4646 57.8357Z" fill="#787D98" fill-opacity="0.2"/>
    <path d="M86.3195 61.5948L75.8194 67.644C75.385 67.8941 75.1043 68.3717 75.1976 68.7091C75.2902 69.0471 75.7216 69.1172 76.156 68.8668L86.6562 62.8175C87.0909 62.5671 87.3636 62.0917 87.271 61.754C87.1778 61.4162 86.7542 61.3446 86.3195 61.5948Z" fill="#787D98" fill-opacity="0.2"/>
    <path d="M87.4132 65.2155L61.8212 79.959C61.3871 80.2094 61.1255 80.6761 61.243 80.9996C61.3604 81.3231 61.8115 81.3814 62.2459 81.131L87.838 66.3878C88.2721 66.1374 88.5255 65.6734 88.4083 65.3496C88.2905 65.0261 87.8477 64.9651 87.4132 65.2155Z" fill="#787D98" fill-opacity="0.2"/>
    <path d="M88.776 68.6742L63.1839 83.418C62.7498 83.6681 62.5116 84.1221 62.6551 84.4305C62.7986 84.7392 63.2693 84.7854 63.7037 84.5353L89.2958 69.7916C89.7305 69.5414 89.9636 69.0895 89.8204 68.7811C89.6766 68.4724 89.2104 68.4241 88.776 68.6742Z" fill="#787D98" fill-opacity="0.2"/>
    <path d="M90.4463 71.9707L64.8543 86.7141C64.4199 86.9642 64.2034 87.4062 64.3757 87.6983C64.5476 87.9904 65.0438 88.0218 65.4782 87.7717L91.0703 73.0279C91.5047 72.7778 91.713 72.3407 91.5407 72.0483C91.3684 71.7562 90.8808 71.7202 90.4463 71.9707Z" fill="#787D98" fill-opacity="0.2"/>
    <path d="M92.4171 75.0858L66.825 89.829C66.3906 90.0794 66.1959 90.5092 66.3939 90.7865C66.5922 91.0635 67.1081 91.0828 67.5425 90.8327L93.1345 76.089C93.5687 75.8389 93.7572 75.4138 93.559 75.1369C93.3607 74.8599 92.8512 74.8354 92.4171 75.0858Z" fill="#787D98" fill-opacity="0.2"/>
    <path d="M94.651 78.049L69.0589 92.7928C68.6245 93.0429 68.4486 93.4625 68.6699 93.7262C68.8909 93.9899 69.4249 93.9986 69.8594 93.7482L95.4514 79.0048C95.8858 78.7547 96.056 78.3402 95.835 78.0765C95.6137 77.8125 95.0851 77.7989 94.651 78.049Z" fill="#787D98" fill-opacity="0.2"/>
    <path d="M97.1225 80.8725L71.5308 95.6163C71.0961 95.8664 70.9378 96.2756 71.1799 96.5273C71.4221 96.7789 71.9728 96.7777 72.4075 96.5276L97.9996 81.7845C98.434 81.5337 98.5872 81.1296 98.3453 80.8779C98.1028 80.6263 97.557 80.6224 97.1225 80.8725Z" fill="#787D98" fill-opacity="0.2"/>
    <path d="M99.8302 83.568L74.2381 98.3112C73.8037 98.5615 73.6624 98.9615 73.9254 99.2014C74.1882 99.4412 74.7561 99.43 75.1905 99.1794L100.783 84.4362C101.217 84.1861 101.353 83.7913 101.09 83.5514C100.827 83.3116 100.265 83.3176 99.8302 83.568Z" fill="#787D98" fill-opacity="0.2"/>
    <path d="M69.8862 54.0585L57.8125 61.014C57.9469 65.3771 58.4458 71.675 60.2758 78.0139L72.3489 71.0584C70.5192 64.7192 70.0203 58.4219 69.8862 54.0585Z" fill="#787D98" fill-opacity="0.2"/>
    <path d="M62.737 60.047C62.737 59.3716 62.5163 58.852 62.1467 58.5167L57.8125 61.0136C57.8482 62.1663 57.9103 63.4574 58.0144 64.8451C58.49 64.923 59.051 64.8375 59.6543 64.5569C61.3568 63.7646 62.737 61.7456 62.737 60.047Z" fill="#787D98" fill-opacity="0.5"/>
    <path d="M71.3296 66.8902L71.3293 66.8899C70.524 65.8761 68.8859 62.7509 68.1863 61.3889C68.0622 61.1469 67.7077 61.1808 67.6269 61.4399C66.4178 65.3122 66.317 69.3699 66.317 69.3699C65.3464 68.6035 64.6484 67.8411 63.7541 66.5235C63.6242 66.3323 63.3318 66.3833 63.2734 66.6065C61.9532 71.6792 62.6152 76.6682 62.6152 76.6682L72.3531 71.0582C71.9496 69.6596 71.6138 68.2646 71.3296 66.8902Z" fill="#787D98" fill-opacity="0.5"/>
</svg>
