<svg width="20" height="24" viewBox="0 0 20 24" fill="none" xmlns="http://www.w3.org/2000/svg">
    <path fill-rule="evenodd" clip-rule="evenodd" d="M16.7027 4.00015H14.6311V3.07338C14.6311 2.77354 14.304 2.63726 14.0042 2.63726H12.396C12.0144 1.54693 11.0603 1.00176 9.96997 1.00176C8.89164 0.961226 7.91082 1.62243 7.54399 2.63726H5.96301C5.66317 2.63726 5.36333 2.77354 5.36333 3.07338V4.00015H3.29166C2.06401 4.01324 1.05966 4.9817 1.00195 6.20804V21.827C1.00195 23.0264 2.09228 23.8986 3.29166 23.8986H16.7027C17.9021 23.8986 18.9924 23.0264 18.9924 21.827V6.2081C18.9347 4.9817 17.9304 4.01324 16.7027 4.00015ZM6.45361 3.72759H7.95282C8.21453 3.69566 8.42474 3.49656 8.47075 3.23695C8.63218 2.53396 9.24893 2.02933 9.96997 2.01034C10.6843 2.03199 11.2918 2.53818 11.4419 3.23695C11.4908 3.50554 11.7149 3.70719 11.9871 3.72759H13.5408V5.90825H6.45361V3.72759ZM16.7027 22.8083C17.3024 22.8083 17.9021 22.4267 17.9021 21.827H17.902V6.20804C17.8464 5.58383 17.3292 5.10196 16.7026 5.09048H14.631V6.4807C14.5889 6.79036 14.3161 7.0157 14.0041 6.99863H5.96296C5.6566 7.0146 5.39208 6.78613 5.36328 6.4807V5.09053H3.29166C2.66505 5.10196 2.1479 5.58389 2.09228 6.2081V21.827C2.09228 22.4267 2.69197 22.8083 3.29166 22.8083H16.7027Z" fill="#10C7E3"/>
    <path d="M14.6311 4.00015H14.5311V4.10015H14.6311V4.00015ZM16.7027 4.00015L16.7038 3.90015H16.7027V4.00015ZM12.396 2.63726L12.3016 2.67029L12.325 2.73726H12.396V2.63726ZM9.96997 1.00176L9.96621 1.10176H9.96997V1.00176ZM7.54399 2.63726V2.73726H7.61417L7.63803 2.67125L7.54399 2.63726ZM5.36333 4.00015V4.10015H5.46333V4.00015H5.36333ZM3.29166 4.00015V3.90014L3.29059 3.90015L3.29166 4.00015ZM1.00195 6.20804L0.901953 6.20334V6.20804H1.00195ZM18.9924 6.2081H19.0925L19.0923 6.2034L18.9924 6.2081ZM7.95282 3.72759V3.82833L7.96493 3.82685L7.95282 3.72759ZM6.45361 3.72759V3.62759H6.35361V3.72759H6.45361ZM8.47075 3.23695L8.37317 3.21454L8.37229 3.21949L8.47075 3.23695ZM9.96997 2.01034L9.97301 1.91022L9.96734 1.91037L9.96997 2.01034ZM11.4419 3.23695L11.5403 3.21903L11.5397 3.21595L11.4419 3.23695ZM11.9871 3.72759L11.9796 3.82759H11.9871V3.72759ZM13.5408 3.72759H13.6408V3.62759H13.5408V3.72759ZM13.5408 5.90825V6.00825H13.6408V5.90825H13.5408ZM6.45361 5.90825H6.35361V6.00825H6.45361V5.90825ZM17.9021 21.827H18.0021V21.727H17.9021V21.827ZM17.902 21.827H17.802V21.927H17.902V21.827ZM17.902 6.20804H18.0024L18.0016 6.19917L17.902 6.20804ZM16.7026 5.09048L16.7045 4.99048H16.7026V5.09048ZM14.631 5.09048V4.99048H14.531V5.09048H14.631ZM14.631 6.4807L14.731 6.4943V6.4807H14.631ZM14.0041 6.99863L14.0096 6.89863H14.0041V6.99863ZM5.96296 6.99863V6.8985L5.95776 6.89877L5.96296 6.99863ZM5.36328 6.4807H5.26283L5.26372 6.49009L5.36328 6.4807ZM5.36328 5.09053H5.46327V4.99053H5.36328V5.09053ZM3.29166 5.09053V4.99051L3.28983 4.99055L3.29166 5.09053ZM2.09228 6.2081L1.99228 6.19919V6.2081H2.09228ZM14.6311 4.10015H16.7027V3.90015H14.6311V4.10015ZM14.5311 3.07338V4.00015H14.7311V3.07338H14.5311ZM14.0042 2.73726C14.1411 2.73726 14.2788 2.76873 14.3786 2.82863C14.4755 2.88678 14.5311 2.96681 14.5311 3.07338H14.7311C14.7311 2.88011 14.6231 2.74208 14.4815 2.65713C14.3428 2.57393 14.1671 2.53726 14.0042 2.53726V2.73726ZM12.396 2.73726H14.0042V2.53726H12.396V2.73726ZM9.96997 1.10176C11.0252 1.10176 11.9363 1.62666 12.3016 2.67029L12.4903 2.60423C12.0924 1.4672 11.0954 0.901765 9.96997 0.901765V1.10176ZM7.63803 2.67125C7.99008 1.69733 8.93135 1.06279 9.96621 1.10169L9.97373 0.901836C8.85193 0.859662 7.83157 1.54752 7.44994 2.60327L7.63803 2.67125ZM5.96301 2.73726H7.54399V2.53726H5.96301V2.73726ZM5.46333 3.07338C5.46333 2.96296 5.51604 2.88349 5.60441 2.82725C5.69647 2.76867 5.8262 2.73726 5.96301 2.73726V2.53726C5.79998 2.53726 5.62987 2.57399 5.49704 2.65851C5.36054 2.74537 5.26333 2.88396 5.26333 3.07338H5.46333ZM5.46333 4.00015V3.07338H5.26333V4.00015H5.46333ZM3.29166 4.10015H5.36333V3.90015H3.29166V4.10015ZM1.10184 6.21274C1.15706 5.03933 2.11806 4.11267 3.29272 4.10014L3.29059 3.90015C2.00996 3.91381 0.962259 4.92406 0.902064 6.20334L1.10184 6.21274ZM1.10195 21.827V6.20804H0.901953V21.827H1.10195ZM3.29166 23.7986C2.13409 23.7986 1.10195 22.9586 1.10195 21.827H0.901953C0.901953 23.0941 2.05048 23.9986 3.29166 23.9986V23.7986ZM16.7027 23.7986H3.29166V23.9986H16.7027V23.7986ZM18.8924 21.827C18.8924 22.9586 17.8603 23.7986 16.7027 23.7986V23.9986C17.9439 23.9986 19.0924 23.0941 19.0924 21.827H18.8924ZM18.8924 6.2081V21.827H19.0924V6.2081H18.8924ZM16.7016 4.10014C17.8763 4.11267 18.8373 5.03933 18.8925 6.2128L19.0923 6.2034C19.0321 4.92406 17.9844 3.91381 16.7038 3.90015L16.7016 4.10014ZM7.95282 3.62759H6.45361V3.82759H7.95282V3.62759ZM8.37229 3.21949C8.33394 3.43581 8.15879 3.60172 7.94071 3.62833L7.96493 3.82685C8.27027 3.7896 8.51553 3.55732 8.56922 3.2544L8.37229 3.21949ZM9.96734 1.91037C9.20068 1.93057 8.54493 2.46711 8.37329 3.21457L8.56822 3.25933C8.71943 2.6008 9.29717 2.12809 9.9726 2.1103L9.96734 1.91037ZM11.5397 3.21595C11.3799 2.4722 10.7333 1.93343 9.973 1.91038L9.96694 2.11029C10.6353 2.13055 11.2037 2.60416 11.3441 3.25795L11.5397 3.21595ZM11.9945 3.62787C11.7677 3.61087 11.581 3.44285 11.5403 3.21904L11.3435 3.25485C11.4006 3.56823 11.662 3.80351 11.9796 3.82731L11.9945 3.62787ZM13.5408 3.62759H11.9871V3.82759H13.5408V3.62759ZM13.6408 5.90825V3.72759H13.4408V5.90825H13.6408ZM6.45361 6.00825H13.5408V5.80825H6.45361V6.00825ZM6.35361 3.72759V5.90825H6.55361V3.72759H6.35361ZM17.8021 21.827C17.8021 22.09 17.6716 22.3078 17.4669 22.4629C17.2609 22.6189 16.9827 22.7083 16.7027 22.7083V22.9083C17.0224 22.9083 17.3439 22.8069 17.5877 22.6223C17.8327 22.4366 18.0021 22.1637 18.0021 21.827H17.8021ZM17.902 21.927H17.9021V21.727H17.902V21.927ZM17.802 6.20804V21.827H18.002V6.20804H17.802ZM16.7008 5.19046C17.2763 5.201 17.7513 5.6436 17.8024 6.21692L18.0016 6.19917C17.9415 5.52407 17.3821 5.00291 16.7045 4.99049L16.7008 5.19046ZM14.631 5.19048H16.7026V4.99048H14.631V5.19048ZM14.731 6.4807V5.09048H14.531V6.4807H14.731ZM13.9986 7.09848C14.3627 7.11839 14.681 6.85548 14.7301 6.49418L14.5319 6.46723C14.4969 6.72524 14.2695 6.913 14.0096 6.89878L13.9986 7.09848ZM5.96296 7.09863H14.0041V6.89863H5.96296V7.09863ZM5.26372 6.49009C5.29755 6.84887 5.60827 7.11725 5.96817 7.0985L5.95776 6.89877C5.70492 6.91195 5.4866 6.72339 5.46283 6.47132L5.26372 6.49009ZM5.26328 5.09053V6.4807H5.46327V5.09053H5.26328ZM3.29166 5.19053H5.36328V4.99053H3.29166V5.19053ZM2.19189 6.21697C2.24297 5.64364 2.71796 5.20101 3.29348 5.19051L3.28983 4.99055C2.61214 5.0029 2.05283 5.52413 1.99268 6.19922L2.19189 6.21697ZM2.19228 21.827V6.2081H1.99228V21.827H2.19228ZM3.29166 22.7083C3.0117 22.7083 2.73351 22.6189 2.52747 22.4629C2.32279 22.3078 2.19228 22.09 2.19228 21.827H1.99228C1.99228 22.1637 2.16163 22.4366 2.4067 22.6223C2.65043 22.8069 2.97193 22.9083 3.29166 22.9083V22.7083ZM16.7027 22.7083H3.29166V22.9083H16.7027V22.7083Z" fill="#10C7E3"/>
    <path d="M7.89779 13.1863C7.69332 12.9708 7.35388 12.9586 7.13454 13.1591L5.39 14.8218L4.65403 14.0586C4.44957 13.843 4.11012 13.8309 3.89078 14.0313C3.67963 14.2525 3.67963 14.6006 3.89078 14.8218L5.00835 15.9667C5.10508 16.075 5.2448 16.1349 5.38995 16.1302C5.53374 16.1282 5.6709 16.0694 5.77155 15.9667L7.89769 13.9496C8.10847 13.7562 8.12256 13.4286 7.92915 13.2178C7.91924 13.2068 7.90875 13.1963 7.89779 13.1863Z" fill="#10C7E3" stroke="#10C7E3" stroke-width="0.2"/>
    <path d="M15.7208 14.3584H9.45142C9.15032 14.3584 8.90625 14.6025 8.90625 14.9036C8.90625 15.2047 9.15032 15.4487 9.45142 15.4487H15.7208C16.0219 15.4487 16.266 15.2047 16.266 14.9036C16.266 14.6025 16.0219 14.3584 15.7208 14.3584Z" fill="#10C7E3" stroke="#10C7E3" stroke-width="0.2"/>
    <path d="M7.89779 8.82499C7.69332 8.60946 7.35388 8.5973 7.13454 8.79775L5.39 10.4605L4.65403 9.69723C4.44957 9.4817 4.11012 9.46955 3.89078 9.67C3.67963 9.89122 3.67963 10.2393 3.89078 10.4605L5.00835 11.6053C5.10508 11.7137 5.2448 11.7735 5.38995 11.7689C5.53374 11.7669 5.6709 11.7081 5.77155 11.6053L7.89769 9.58824C8.10847 9.39489 8.12256 9.06723 7.92915 8.8565C7.91924 8.84549 7.90875 8.83501 7.89779 8.82499Z" fill="#10C7E3" stroke="#10C7E3" stroke-width="0.2"/>
    <path d="M15.7208 9.99707H9.45142C9.15032 9.99707 8.90625 10.2411 8.90625 10.5422C8.90625 10.8433 9.15032 11.0874 9.45142 11.0874H15.7208C16.0219 11.0874 16.266 10.8433 16.266 10.5422C16.266 10.2411 16.0219 9.99707 15.7208 9.99707Z" fill="#10C7E3" stroke="#10C7E3" stroke-width="0.2"/>
    <path d="M7.89779 17.5474C7.69332 17.3319 7.35388 17.3197 7.13454 17.5201L5.39 19.1829L4.65403 18.4196C4.44957 18.2041 4.11012 18.192 3.89078 18.3924C3.67963 18.6136 3.67963 18.9617 3.89078 19.1829L5.00835 20.3277C5.10508 20.436 5.2448 20.4959 5.38995 20.4913C5.53374 20.4893 5.6709 20.4305 5.77155 20.3277L7.89769 18.3106C8.10847 18.1173 8.12256 17.7896 7.92915 17.5789C7.91924 17.5679 7.90875 17.5575 7.89779 17.5474Z" fill="#10C7E3" stroke="#10C7E3" stroke-width="0.2"/>
    <path d="M15.7208 18.7197H9.45142C9.15032 18.7197 8.90625 18.9638 8.90625 19.2649C8.90625 19.566 9.15032 19.8101 9.45142 19.8101H15.7208C16.0219 19.8101 16.266 19.566 16.266 19.2649C16.266 18.9638 16.0219 18.7197 15.7208 18.7197Z" fill="#10C7E3" stroke="#10C7E3" stroke-width="0.2"/>
</svg>
