<svg width="20" height="20" viewBox="0 0 20 20" fill="none" xmlns="http://www.w3.org/2000/svg">
    <path d="M13.3676 12.7326C12.7097 12.7326 12.1745 12.3357 12.1745 11.848C12.1745 11.3602 12.7097 10.9634 13.3676 10.9634C14.0256 10.9634 14.5608 11.3602 14.5608 11.848C14.5608 12.1045 14.8036 12.3126 15.1031 12.3126C15.4026 12.3126 15.6455 12.1045 15.6455 11.848C15.6455 10.9967 14.905 10.2809 13.91 10.0866V9.84494C13.91 9.58841 13.6671 9.38037 13.3676 9.38037C13.0682 9.38037 12.8253 9.58841 12.8253 9.84494V10.0866C11.8303 10.2809 11.0898 10.9967 11.0898 11.848C11.0898 12.8481 12.1117 13.6617 13.3676 13.6617C14.0256 13.6617 14.5608 14.0586 14.5608 14.5464C14.5608 15.0342 14.0256 15.431 13.3676 15.431C12.7097 15.431 12.1745 15.0342 12.1745 14.5464C12.1745 14.2898 11.9317 14.0818 11.6322 14.0818C11.3327 14.0818 11.0898 14.2898 11.0898 14.5464C11.0898 15.3977 11.8303 16.1135 12.8253 16.3078V16.5085C12.8253 16.765 13.0682 16.9731 13.3676 16.9731C13.6671 16.9731 13.91 16.765 13.91 16.5085V16.3078C14.905 16.1135 15.6455 15.3977 15.6455 14.5464C15.6455 13.5462 14.6236 12.7326 13.3676 12.7326Z" fill="#363AD3"/>
    <path fill-rule="evenodd" clip-rule="evenodd" d="M14.7514 6.54425C14.817 6.64125 14.8734 6.74582 14.9194 6.85678C17.6331 7.6188 19.6309 10.1404 19.6309 13.1256C19.6309 16.7123 16.747 19.6304 13.2023 19.6304C11.3517 19.6304 9.68155 18.8347 8.50754 17.5641H4.05104C3.0919 17.5641 2.31154 16.7745 2.31154 15.804C2.31154 15.2466 2.56922 14.7492 2.97009 14.4265C2.56922 14.1038 2.31154 13.6064 2.31154 13.049C2.31154 12.4917 2.56922 11.9943 2.97009 11.6716C2.56922 11.3488 2.31154 10.8515 2.31154 10.2941C2.31154 9.73668 2.56922 9.2393 2.97009 8.91658C2.56922 8.59387 2.31154 8.09648 2.31154 7.5391C2.31154 6.56858 3.0919 5.77898 4.05104 5.77898H5.03725C4.8447 5.49575 4.73171 5.1531 4.73171 4.78413C4.73171 4.41516 4.84474 4.07251 5.03725 3.78928H2.00902C1.04988 3.78928 0.269531 2.99968 0.269531 2.02916C0.269531 1.05865 1.04988 0.269043 2.00902 0.269043H11.2737C12.2329 0.269043 13.0132 1.05865 13.0132 2.02916C13.0132 2.39814 12.9002 2.74079 12.7077 3.02401H15.7359C16.695 3.02401 17.4754 3.81362 17.4754 4.78413C17.4754 5.75464 16.695 6.54425 15.7359 6.54425H14.7514ZM16.7191 4.78413C16.7191 4.23559 16.278 3.78928 15.7359 3.78928H6.4712C5.92905 3.78928 5.48801 4.23559 5.48801 4.78413C5.48801 5.33267 5.92905 5.77898 6.4712 5.77898H13.3157H15.7359C16.278 5.77898 16.7191 5.33267 16.7191 4.78413ZM2.00902 3.02401C1.46687 3.02401 1.02583 2.57771 1.02583 2.02916C1.02583 1.48062 1.46687 1.03431 2.00902 1.03431H11.2737C11.8159 1.03431 12.2569 1.48062 12.2569 2.02916C12.2569 2.57771 11.8159 3.02401 11.2737 3.02401H2.00902ZM13.3157 6.54425H4.05104C3.50892 6.54425 3.06785 6.99055 3.06785 7.5391C3.06785 8.08764 3.50892 8.53395 4.05104 8.53395H8.6532C9.81768 7.35276 11.4271 6.62081 13.2023 6.62081C13.385 6.62081 13.5659 6.629 13.7447 6.64419C13.6139 6.58006 13.468 6.54425 13.3157 6.54425ZM4.05104 9.29922H8.00706C7.57778 9.89433 7.24588 10.5655 7.0351 11.2889H4.05104C3.50888 11.2889 3.06785 10.8427 3.06785 10.2941C3.06785 9.74552 3.50888 9.29922 4.05104 9.29922ZM6.86145 12.0542H4.05104C3.50888 12.0542 3.06785 12.5005 3.06785 13.049C3.06785 13.5976 3.50888 14.0439 4.05104 14.0439H6.83812C6.79603 13.7438 6.77376 13.4373 6.77376 13.1256C6.77376 12.7607 6.80409 12.4029 6.86145 12.0542ZM4.05104 16.7989C3.50888 16.7989 3.06785 16.3526 3.06785 15.804C3.06785 15.2554 3.50888 14.8092 4.05104 14.8092H6.99252C7.18333 15.529 7.4933 16.1999 7.89981 16.7989H4.05104ZM7.53006 13.1256C7.53006 16.2904 10.0746 18.8651 13.2023 18.8651C16.33 18.8651 18.8746 16.2904 18.8746 13.1256C18.8746 9.96083 16.33 7.38608 13.2023 7.38608C10.0746 7.38608 7.53006 9.96083 7.53006 13.1256Z" fill="#363AD3"/>
    <path d="M14.9194 6.85678L14.7347 6.9334L14.7719 7.02309L14.8654 7.04934L14.9194 6.85678ZM14.7514 6.54425V6.34425H14.3747L14.5857 6.6563L14.7514 6.54425ZM8.50754 17.5641L8.65444 17.4284L8.59505 17.3641H8.50754V17.5641ZM2.97009 14.4265L3.09551 14.5823L3.28903 14.4265L3.09551 14.2707L2.97009 14.4265ZM2.97009 11.6716L3.09551 11.8273L3.28903 11.6716L3.09551 11.5158L2.97009 11.6716ZM2.97009 8.91658L3.09551 9.07237L3.28903 8.91658L3.09551 8.76079L2.97009 8.91658ZM5.03725 5.77898V5.97898H5.41507L5.20265 5.66653L5.03725 5.77898ZM5.03725 3.78928L5.20266 3.90171L5.41503 3.58928H5.03725V3.78928ZM12.7077 3.02401L12.5423 2.91158L12.3299 3.22401H12.7077V3.02401ZM8.6532 8.53395V8.73395H8.73688L8.79563 8.67436L8.6532 8.53395ZM13.7447 6.64419L13.7278 6.84348L13.8328 6.4646L13.7447 6.64419ZM8.00706 9.29922L8.16926 9.41622L8.39793 9.09922H8.00706V9.29922ZM7.0351 11.2889V11.4889H7.18514L7.22711 11.3449L7.0351 11.2889ZM6.86145 12.0542L7.0588 12.0867L7.09704 11.8542H6.86145V12.0542ZM6.83812 14.0439V14.2439H7.06813L7.03618 14.0161L6.83812 14.0439ZM6.99252 14.8092L7.18584 14.7579L7.14641 14.6092H6.99252V14.8092ZM7.89981 16.7989V16.9989H8.27726L8.0653 16.6865L7.89981 16.7989ZM15.1042 6.78017C15.053 6.65687 14.9903 6.54041 14.9171 6.4322L14.5857 6.6563C14.6438 6.74208 14.6938 6.83477 14.7347 6.9334L15.1042 6.78017ZM19.8309 13.1256C19.8309 10.0496 17.7724 7.45017 14.9735 6.66423L14.8654 7.04934C17.4938 7.78743 19.4309 10.2312 19.4309 13.1256H19.8309ZM13.2023 19.8304C16.8597 19.8304 19.8309 16.8206 19.8309 13.1256H19.4309C19.4309 16.6041 16.6344 19.4304 13.2023 19.4304V19.8304ZM8.36065 17.6999C9.57049 19.0093 11.293 19.8304 13.2023 19.8304V19.4304C11.4104 19.4304 9.7926 18.6602 8.65444 17.4284L8.36065 17.6999ZM4.05104 17.7641H8.50754V17.3641H4.05104V17.7641ZM2.11154 15.804C2.11154 16.8827 2.97922 17.7641 4.05104 17.7641V17.3641C3.20457 17.3641 2.51154 16.6663 2.51154 15.804H2.11154ZM2.84468 14.2707C2.39851 14.6299 2.11154 15.1837 2.11154 15.804H2.51154C2.51154 15.3095 2.73992 14.8686 3.09551 14.5823L2.84468 14.2707ZM2.11154 13.049C2.11154 13.6693 2.39851 14.2231 2.84468 14.5823L3.09551 14.2707C2.73992 13.9845 2.51154 13.5435 2.51154 13.049H2.11154ZM2.84468 11.5158C2.39851 11.8749 2.11154 12.4287 2.11154 13.049H2.51154C2.51154 12.5546 2.73992 12.1136 3.09551 11.8273L2.84468 11.5158ZM2.11154 10.2941C2.11154 10.9144 2.39851 11.4682 2.84468 11.8273L3.09551 11.5158C2.73992 11.2295 2.51154 10.7885 2.51154 10.2941H2.11154ZM2.84468 8.76079C2.39851 9.11996 2.11154 9.67378 2.11154 10.2941H2.51154C2.51154 9.79959 2.73992 9.35863 3.09551 9.07237L2.84468 8.76079ZM2.11154 7.5391C2.11154 8.15939 2.39851 8.7132 2.84468 9.07237L3.09551 8.76079C2.73992 8.47454 2.51154 8.03358 2.51154 7.5391H2.11154ZM4.05104 5.57898C2.97922 5.57898 2.11154 6.46036 2.11154 7.5391H2.51154C2.51154 6.67681 3.20457 5.97898 4.05104 5.97898V5.57898ZM5.03725 5.57898H4.05104V5.97898H5.03725V5.57898ZM4.53171 4.78413C4.53171 5.19452 4.6575 5.57614 4.87186 5.89143L5.20265 5.66653C5.03189 5.41537 4.93171 5.11169 4.93171 4.78413H4.53171ZM4.87185 3.67685C4.65755 3.99212 4.53171 4.37373 4.53171 4.78413H4.93171C4.93171 4.45658 5.03192 4.15289 5.20266 3.90171L4.87185 3.67685ZM2.00902 3.98928H5.03725V3.58928H2.00902V3.98928ZM0.0695312 2.02916C0.0695312 3.1079 0.93721 3.98928 2.00902 3.98928V3.58928C1.16256 3.58928 0.469531 2.89145 0.469531 2.02916H0.0695312ZM2.00902 0.069043C0.93721 0.069043 0.0695312 0.95042 0.0695312 2.02916H0.469531C0.469531 1.16688 1.16256 0.469043 2.00902 0.469043V0.069043ZM11.2737 0.069043H2.00902V0.469043H11.2737V0.069043ZM13.2132 2.02916C13.2132 0.95042 12.3455 0.069043 11.2737 0.069043V0.469043C12.1202 0.469043 12.8132 1.16688 12.8132 2.02916H13.2132ZM12.8731 3.13644C13.0874 2.82117 13.2132 2.43956 13.2132 2.02916H12.8132C12.8132 2.35671 12.713 2.6604 12.5423 2.91158L12.8731 3.13644ZM15.7359 2.82401H12.7077V3.22401H15.7359V2.82401ZM17.6754 4.78413C17.6754 3.70539 16.8077 2.82401 15.7359 2.82401V3.22401C16.5824 3.22401 17.2754 3.92184 17.2754 4.78413H17.6754ZM15.7359 6.74425C16.8077 6.74425 17.6754 5.86287 17.6754 4.78413H17.2754C17.2754 5.64642 16.5824 6.34425 15.7359 6.34425V6.74425ZM14.7514 6.74425H15.7359V6.34425H14.7514V6.74425ZM15.7359 3.98928C16.1654 3.98928 16.5191 4.34381 16.5191 4.78413H16.9191C16.9191 4.12736 16.3907 3.58928 15.7359 3.58928V3.98928ZM6.4712 3.98928H15.7359V3.58928H6.4712V3.98928ZM5.68801 4.78413C5.68801 4.34381 6.04172 3.98928 6.4712 3.98928V3.58928C5.81637 3.58928 5.28801 4.12736 5.28801 4.78413H5.68801ZM6.4712 5.57898C6.04172 5.57898 5.68801 5.22445 5.68801 4.78413H5.28801C5.28801 5.4409 5.81637 5.97898 6.4712 5.97898V5.57898ZM13.3157 5.57898H6.4712V5.97898H13.3157V5.57898ZM15.7359 5.57898H13.3157V5.97898H15.7359V5.57898ZM16.5191 4.78413C16.5191 5.22445 16.1654 5.57898 15.7359 5.57898V5.97898C16.3907 5.97898 16.9191 5.4409 16.9191 4.78413H16.5191ZM0.825832 2.02916C0.825832 2.68593 1.35419 3.22401 2.00902 3.22401V2.82401C1.57955 2.82401 1.22583 2.46948 1.22583 2.02916H0.825832ZM2.00902 0.834312C1.35419 0.834312 0.825832 1.37239 0.825832 2.02916H1.22583C1.22583 1.58884 1.57955 1.23431 2.00902 1.23431V0.834312ZM11.2737 0.834312H2.00902V1.23431H11.2737V0.834312ZM12.4569 2.02916C12.4569 1.37239 11.9285 0.834312 11.2737 0.834312V1.23431C11.7032 1.23431 12.0569 1.58884 12.0569 2.02916H12.4569ZM11.2737 3.22401C11.9285 3.22401 12.4569 2.68593 12.4569 2.02916H12.0569C12.0569 2.46948 11.7032 2.82401 11.2737 2.82401V3.22401ZM2.00902 3.22401H11.2737V2.82401H2.00902V3.22401ZM4.05104 6.74425H13.3157V6.34425H4.05104V6.74425ZM3.26785 7.5391C3.26785 7.09878 3.62159 6.74425 4.05104 6.74425V6.34425C3.39625 6.34425 2.86785 6.88233 2.86785 7.5391H3.26785ZM4.05104 8.33395C3.62159 8.33395 3.26785 7.97942 3.26785 7.5391H2.86785C2.86785 8.19587 3.39625 8.73395 4.05104 8.73395V8.33395ZM8.6532 8.33395H4.05104V8.73395H8.6532V8.33395ZM13.2023 6.42081C11.3709 6.42081 9.71091 7.17618 8.51078 8.39354L8.79563 8.67436C9.92445 7.52933 11.4833 6.82081 13.2023 6.82081V6.42081ZM13.7617 6.44491C13.5775 6.42927 13.391 6.42081 13.2023 6.42081V6.82081C13.3791 6.82081 13.5542 6.82873 13.7278 6.84348L13.7617 6.44491ZM13.3157 6.74425C13.4364 6.74425 13.5523 6.77259 13.6567 6.82378L13.8328 6.4646C13.6755 6.38754 13.4997 6.34425 13.3157 6.34425V6.74425ZM8.00706 9.09922H4.05104V9.49922H8.00706V9.09922ZM7.22711 11.3449C7.43141 10.6438 7.75311 9.99314 8.16926 9.41622L7.84485 9.18221C7.40245 9.79552 7.06035 10.4873 6.84308 11.233L7.22711 11.3449ZM4.05104 11.4889H7.0351V11.0889H4.05104V11.4889ZM2.86785 10.2941C2.86785 10.9509 3.39621 11.4889 4.05104 11.4889V11.0889C3.62156 11.0889 3.26785 10.7344 3.26785 10.2941H2.86785ZM4.05104 9.09922C3.3962 9.09922 2.86785 9.6373 2.86785 10.2941H3.26785C3.26785 9.85375 3.62156 9.49922 4.05104 9.49922V9.09922ZM4.05104 12.2542H6.86145V11.8542H4.05104V12.2542ZM3.26785 13.049C3.26785 12.6087 3.62156 12.2542 4.05104 12.2542V11.8542C3.39621 11.8542 2.86785 12.3922 2.86785 13.049H3.26785ZM4.05104 13.8439C3.62156 13.8439 3.26785 13.4894 3.26785 13.049H2.86785C2.86785 13.7058 3.39621 14.2439 4.05104 14.2439V13.8439ZM6.83812 13.8439H4.05104V14.2439H6.83812V13.8439ZM6.57376 13.1256C6.57376 13.4468 6.59671 13.7626 6.64006 14.0717L7.03618 14.0161C6.99535 13.725 6.97376 13.4278 6.97376 13.1256H6.57376ZM6.6641 12.0217C6.60501 12.3809 6.57376 12.7496 6.57376 13.1256H6.97376C6.97376 12.7718 7.00316 12.4248 7.0588 12.0867L6.6641 12.0217ZM2.86785 15.804C2.86785 16.4608 3.39621 16.9989 4.05104 16.9989V16.5989C3.62156 16.5989 3.26785 16.2444 3.26785 15.804H2.86785ZM4.05104 14.6092C3.39621 14.6092 2.86785 15.1472 2.86785 15.804H3.26785C3.26785 15.3636 3.62156 15.0092 4.05104 15.0092V14.6092ZM6.99252 14.6092H4.05104V15.0092H6.99252V14.6092ZM8.0653 16.6865C7.67123 16.1059 7.37079 15.4556 7.18584 14.7579L6.79919 14.8604C6.99588 15.6024 7.31538 16.2939 7.73433 16.9112L8.0653 16.6865ZM4.05104 16.9989H7.89981V16.5989H4.05104V16.9989ZM13.2023 18.6651C10.1873 18.6651 7.73006 16.1821 7.73006 13.1256H7.33006C7.33006 16.3986 9.96196 19.0651 13.2023 19.0651V18.6651ZM18.6746 13.1256C18.6746 16.1821 16.2173 18.6651 13.2023 18.6651V19.0651C16.4427 19.0651 19.0746 16.3986 19.0746 13.1256H18.6746ZM13.2023 7.58608C16.2173 7.58608 18.6746 10.0691 18.6746 13.1256H19.0746C19.0746 9.8526 16.4427 7.18608 13.2023 7.18608V7.58608ZM7.73006 13.1256C7.73006 10.0691 10.1873 7.58608 13.2023 7.58608V7.18608C9.96196 7.18608 7.33006 9.8526 7.33006 13.1256H7.73006Z" fill="#363AD3"/>
</svg>
