<svg width="113" height="26" viewBox="0 0 113 26" fill="none" xmlns="http://www.w3.org/2000/svg">
    <path d="M6.25 11.11H14.74V2.38H20.62V25H14.74V15.67H6.25V25H0.37V2.38H6.25V11.11ZM30.2802 9.61V25H24.8502V9.61H30.2802ZM24.4902 3.7C24.4902 3.28 24.5702 2.89 24.7302 2.53C24.8902 2.15 25.1102 1.82 25.3902 1.54C25.6702 1.26 25.9902 1.04 26.3502 0.879999C26.7302 0.719999 27.1302 0.639999 27.5502 0.639999C27.9702 0.639999 28.3602 0.719999 28.7202 0.879999C29.1002 1.04 29.4302 1.26 29.7102 1.54C29.9902 1.82 30.2102 2.15 30.3702 2.53C30.5302 2.89 30.6102 3.28 30.6102 3.7C30.6102 4.12 30.5302 4.52 30.3702 4.9C30.2102 5.26 29.9902 5.58 29.7102 5.86C29.4302 6.14 29.1002 6.36 28.7202 6.52C28.3602 6.68 27.9702 6.76 27.5502 6.76C27.1302 6.76 26.7302 6.68 26.3502 6.52C25.9902 6.36 25.6702 6.14 25.3902 5.86C25.1102 5.58 24.8902 5.26 24.7302 4.9C24.5702 4.52 24.4902 4.12 24.4902 3.7ZM39.4209 0.0999987V15.16L45.1209 9.61H52.5609L44.8509 16.72L53.0109 25H45.3909L39.4209 18.73V25H33.9909V0.0999987H39.4209ZM54.9381 9.61H60.3681V11.5C61.8481 10.08 63.5081 9.37 65.3481 9.37C67.6281 9.37 69.3681 10.33 70.5681 12.25C71.7881 10.31 73.5281 9.34 75.7881 9.34C76.5081 9.34 77.1881 9.45 77.8281 9.67C78.4681 9.87 79.0181 10.2 79.4781 10.66C79.9381 11.1 80.2981 11.68 80.5581 12.4C80.8381 13.12 80.9781 13.99 80.9781 15.01V25H75.5481V17.41C75.5481 16.63 75.4881 15.99 75.3681 15.49C75.2681 14.99 75.1081 14.6 74.8881 14.32C74.6881 14.04 74.4481 13.85 74.1681 13.75C73.8881 13.65 73.5881 13.6 73.2681 13.6C71.5281 13.6 70.6581 14.87 70.6581 17.41V25H65.2281V17.41C65.2281 16.63 65.1781 15.99 65.0781 15.49C64.9781 14.97 64.8281 14.56 64.6281 14.26C64.4481 13.96 64.2081 13.76 63.9081 13.66C63.6081 13.54 63.2581 13.48 62.8581 13.48C62.5181 13.48 62.1981 13.53 61.8981 13.63C61.5981 13.73 61.3281 13.93 61.0881 14.23C60.8681 14.51 60.6881 14.91 60.5481 15.43C60.4281 15.93 60.3681 16.59 60.3681 17.41V25H54.9381V9.61ZM89.7438 17.26C89.7438 17.76 89.8338 18.23 90.0138 18.67C90.1938 19.09 90.4338 19.46 90.7338 19.78C91.0538 20.1 91.4238 20.35 91.8438 20.53C92.2838 20.71 92.7538 20.8 93.2538 20.8C93.7338 20.8 94.1838 20.71 94.6038 20.53C95.0438 20.35 95.4138 20.1 95.7138 19.78C96.0338 19.46 96.2838 19.09 96.4638 18.67C96.6638 18.25 96.7638 17.8 96.7638 17.32C96.7638 16.84 96.6638 16.39 96.4638 15.97C96.2838 15.53 96.0338 15.15 95.7138 14.83C95.4138 14.51 95.0438 14.26 94.6038 14.08C94.1838 13.9 93.7338 13.81 93.2538 13.81C92.7538 13.81 92.2838 13.9 91.8438 14.08C91.4238 14.26 91.0538 14.51 90.7338 14.83C90.4338 15.15 90.1938 15.52 90.0138 15.94C89.8338 16.34 89.7438 16.78 89.7438 17.26ZM96.5838 9.61H102.044V25H96.5838V23.29C95.4238 24.75 93.8538 25.48 91.8738 25.48C90.7538 25.48 89.7238 25.28 88.7838 24.88C87.8438 24.46 87.0238 23.88 86.3238 23.14C85.6238 22.4 85.0738 21.53 84.6738 20.53C84.2938 19.53 84.1038 18.44 84.1038 17.26C84.1038 16.16 84.2938 15.12 84.6738 14.14C85.0538 13.14 85.5838 12.27 86.2638 11.53C86.9438 10.79 87.7538 10.21 88.6938 9.79C89.6338 9.35 90.6738 9.13 91.8138 9.13C93.7338 9.13 95.3238 9.8 96.5838 11.14V9.61Z" fill="white"/>
    <path d="M105.469 22.12C105.469 21.64 105.559 21.19 105.739 20.77C105.919 20.33 106.169 19.95 106.489 19.63C106.809 19.31 107.179 19.06 107.599 18.88C108.039 18.7 108.499 18.61 108.979 18.61C109.459 18.61 109.909 18.7 110.329 18.88C110.769 19.06 111.149 19.31 111.469 19.63C111.789 19.95 112.039 20.33 112.219 20.77C112.399 21.19 112.489 21.64 112.489 22.12C112.489 22.6 112.399 23.06 112.219 23.5C112.039 23.92 111.789 24.29 111.469 24.61C111.149 24.93 110.769 25.18 110.329 25.36C109.909 25.54 109.459 25.63 108.979 25.63C108.499 25.63 108.039 25.54 107.599 25.36C107.179 25.18 106.809 24.93 106.489 24.61C106.169 24.29 105.919 23.92 105.739 23.5C105.559 23.06 105.469 22.6 105.469 22.12Z" fill="#10C7E3"/>
</svg>
