<svg width="242" height="69" viewBox="0 0 242 69" fill="none" xmlns="http://www.w3.org/2000/svg">
    <path d="M134.163 21.1581H125.437C124.603 21.1581 123.822 21.5716 123.354 22.263L111.316 39.9783L106.216 22.9544C105.895 21.8893 104.914 21.1581 103.801 21.1581H95.2246C94.1891 21.1581 93.4598 22.1766 93.794 23.1553L103.401 51.34L94.3644 64.0823C93.6561 65.082 94.3718 66.4649 95.5986 66.4649H104.315C105.14 66.4649 105.914 66.0607 106.386 65.3833L135.404 23.5291C136.098 22.527 135.383 21.1581 134.163 21.1581ZM75.8262 38.044C74.9871 43.0007 71.0507 46.3293 66.0273 46.3293C63.5098 46.3293 61.4926 45.5188 60.1976 43.9865C58.9143 42.4681 58.4304 40.3028 58.8371 37.8945C59.6179 32.9798 63.6197 29.546 68.5659 29.546C71.032 29.546 73.0329 30.3636 74.3536 31.91C75.6836 33.468 76.2072 35.645 75.8262 38.044ZM87.9252 21.1579H79.2437C78.5003 21.1579 77.8669 21.6975 77.75 22.4333L77.369 24.8579L76.7636 23.9796C74.8819 21.2537 70.6907 20.3403 66.5065 20.3403C56.9157 20.3403 48.7227 27.6049 47.1285 37.7917C46.2987 42.8746 47.4768 47.7309 50.3613 51.1202C53.0097 54.2339 56.7895 55.5304 61.2939 55.5304C69.0264 55.5304 73.3134 50.569 73.3134 50.569L72.9254 52.9796C72.7804 53.8952 73.4887 54.7245 74.419 54.7245H82.2357C83.4769 54.7245 84.5311 53.8252 84.7252 52.6012L89.4189 22.9028C89.5638 21.9871 88.8532 21.1579 87.9252 21.1579ZM35.8282 21.3663C34.8371 27.8693 29.8676 27.8693 25.0593 27.8693H22.3244L24.2435 15.7275C24.3579 14.994 24.9915 14.4544 25.7348 14.4544H26.9901C30.2626 14.4544 33.3528 14.4544 34.947 16.3161C35.9007 17.4303 36.1882 19.0841 35.8282 21.3663ZM33.7362 4.39844H15.6064C14.3651 4.39844 13.3109 5.30009 13.1169 6.52409L5.78645 52.98C5.64152 53.8957 6.34979 54.7249 7.27779 54.7249H15.936C17.1748 54.7249 18.2291 53.8233 18.4231 52.6016L20.403 40.0673C20.5946 38.8433 21.6512 37.9417 22.8901 37.9417H28.6263C40.5687 37.9417 47.4621 32.1674 49.262 20.7192C50.0731 15.7158 49.2947 11.7822 46.9502 9.02815C44.3719 6.00085 39.802 4.39844 33.7362 4.39844Z" fill="#002F86"/>
    <path d="M227.468 5.67501L220.028 52.9812C219.883 53.8969 220.591 54.7261 221.519 54.7261H229.004C230.243 54.7261 231.299 53.8245 231.491 52.6005L238.829 6.14452C238.973 5.22885 238.265 4.39961 237.335 4.39961H228.962C228.216 4.39961 227.583 4.9392 227.468 5.67501ZM205.137 38.044C204.298 43.0007 200.361 46.3293 195.338 46.3293C192.821 46.3293 190.803 45.5188 189.508 43.9865C188.223 42.4681 187.741 40.3028 188.148 37.8945C188.929 32.9798 192.93 29.5461 197.877 29.5461C200.343 29.5461 202.344 30.3636 203.664 31.91C204.994 33.468 205.518 35.645 205.137 38.044ZM217.236 21.1579H208.554C207.811 21.1579 207.178 21.6975 207.061 22.4333L206.68 24.8579L206.072 23.9796C204.193 21.2537 200.001 20.3403 195.817 20.3403C186.226 20.3403 178.033 27.6049 176.439 37.7917C175.609 42.8746 176.788 47.7309 179.672 51.1202C182.32 54.234 186.1 55.5304 190.605 55.5304C198.337 55.5304 202.624 50.569 202.624 50.569L202.236 52.9796C202.091 53.8953 202.799 54.7245 203.73 54.7245H211.546C212.788 54.7245 213.842 53.8252 214.036 52.6012L218.73 22.9028C218.875 21.9871 218.164 21.1579 217.236 21.1579ZM165.139 21.3663C164.148 27.8694 159.178 27.8694 154.37 27.8694H151.635L153.554 15.7275C153.669 14.994 154.302 14.4544 155.045 14.4544H156.301C159.573 14.4544 162.663 14.4544 164.257 16.3161C165.211 17.4303 165.499 19.0841 165.139 21.3663ZM163.047 4.39844H144.917C143.676 4.39844 142.621 5.30009 142.427 6.52409L135.097 52.9801C134.952 53.8957 135.663 54.725 136.588 54.725H145.892C146.759 54.725 147.497 54.0943 147.633 53.2393L149.713 40.0673C149.905 38.8433 150.962 37.9417 152.201 37.9417H157.937C169.879 37.9417 176.773 32.1674 178.572 20.7192C179.384 15.7158 178.605 11.7822 176.261 9.02815C173.682 6.00085 169.113 4.39844 163.047 4.39844Z" fill="#009CDE"/>
</svg>
