<svg width="30" height="30" viewBox="0 0 30 30" fill="none" xmlns="http://www.w3.org/2000/svg">
    <g clip-path="url(#clip0)">
        <path d="M28.9752 8.11857L21.3323 0.176836C21.2235 0.0638672 21.0734 0 20.9166 0H9.52535C8.25053 0 7.21336 1.03676 7.21336 2.31105V10.3846H2.59693C1.64314 10.3846 0.867188 11.1604 0.867188 12.1139V20.7708C0.867188 21.7243 1.64314 22.5 2.59693 22.5H7.21336V27.693C7.21336 28.9651 8.25053 30 9.52535 30H26.8244C28.0993 30 29.1364 28.9656 29.1364 27.6943V8.51865C29.1364 8.36947 29.0786 8.22609 28.9752 8.11857ZM21.0595 1.55748L27.3337 8.07691H21.0595V1.55748ZM2.59693 21.3462C2.27936 21.3462 2.02107 21.0881 2.02107 20.7708V12.1139C2.02107 11.7966 2.27941 11.5385 2.59693 11.5385H18.176C18.4935 11.5385 18.7518 11.7966 18.7518 12.1139V20.7708C18.7518 21.0881 18.4935 21.3462 18.176 21.3462H2.59693ZM27.9826 27.6943C27.9826 28.3294 27.463 28.8462 26.8244 28.8462H9.52535C8.88674 28.8462 8.36719 28.3289 8.36719 27.693V22.5H18.176C19.1297 22.5 19.9057 21.7243 19.9057 20.7708V12.1139C19.9057 11.1604 19.1297 10.3846 18.176 10.3846H8.36719V2.31105C8.36719 1.67291 8.88674 1.15383 9.52535 1.15383H19.9056V8.65383C19.9056 8.97246 20.164 9.23074 20.4826 9.23074H27.9826V27.6943Z" fill="#10C7E3" stroke="#10C7E3" stroke-width="0.2"/>
        <path d="M7.76278 14.6422C7.57124 14.3932 7.33347 14.2315 7.04952 14.1571C6.86472 14.1075 6.4681 14.0828 5.8596 14.0828H4.25391V19.0384H5.25451V17.1691H5.90695C6.35994 17.1691 6.70587 17.1454 6.94476 17.098C7.12054 17.0597 7.29351 16.9814 7.46366 16.8631C7.63382 16.7448 7.77409 16.582 7.88454 16.3746C7.99499 16.1673 8.05018 15.9115 8.05018 15.6073C8.05013 15.2129 7.95433 14.8912 7.76278 14.6422ZM6.90585 16.0062C6.83038 16.1167 6.72614 16.1978 6.59314 16.2496C6.46013 16.3015 6.19652 16.3274 5.80212 16.3274H5.25451V14.9211H5.73791C6.09849 14.9211 6.33849 14.9324 6.4579 14.9549C6.62015 14.9842 6.75427 15.0575 6.86015 15.1747C6.96609 15.2918 7.01905 15.4406 7.01905 15.6208C7.01911 15.7673 6.98132 15.8958 6.90585 16.0062Z" fill="#10C7E3" stroke="#10C7E3" stroke-width="0.2"/>
        <path d="M12.8595 15.4366C12.7513 15.12 12.5935 14.8524 12.3862 14.6338C12.1789 14.4152 11.9298 14.2631 11.6391 14.1774C11.4228 14.1143 11.1084 14.0828 10.696 14.0828H8.86719V19.0384H10.7501C11.1197 19.0384 11.4149 19.0035 11.6357 18.9336C11.931 18.839 12.1654 18.7071 12.3389 18.5381C12.5687 18.315 12.7456 18.0232 12.8696 17.6626C12.971 17.3673 13.0217 17.0158 13.0217 16.6079C13.0217 16.1437 12.9676 15.7533 12.8595 15.4366ZM11.8859 17.4716C11.8183 17.6936 11.731 17.8531 11.6239 17.9499C11.5169 18.0468 11.3822 18.1156 11.22 18.1561C11.096 18.1877 10.8943 18.2035 10.6149 18.2035H9.86779V14.9211H10.3174C10.7253 14.9211 10.9991 14.9369 11.1388 14.9685C11.3258 15.009 11.4802 15.0868 11.6019 15.2017C11.7236 15.3167 11.8183 15.4766 11.8859 15.6817C11.9535 15.8868 11.9873 16.1809 11.9873 16.564C11.9873 16.9471 11.9535 17.2496 11.8859 17.4716Z" fill="#10C7E3" stroke="#10C7E3" stroke-width="0.2"/>
        <path d="M17.2762 14.9211V14.0828H13.8789V19.0384H14.8795V16.9325H16.9483V16.0941H14.8795V14.9211H17.2762Z" fill="#10C7E3" stroke="#10C7E3" stroke-width="0.2"/>
    </g>
    <defs>
        <clipPath id="clip0">
            <rect width="30" height="30" fill="white"/>
        </clipPath>
    </defs>
</svg>
