<svg width="19" height="19" viewBox="0 0 19 19" fill="none" xmlns="http://www.w3.org/2000/svg">
    <path d="M9.20963 12.7366C8.66638 12.7366 8.22656 13.1893 8.22656 13.7326C8.22656 14.2629 8.65343 14.7286 9.20963 14.7286C9.76582 14.7286 10.2056 14.263 10.2056 13.7326C10.2056 13.1893 9.75295 12.7366 9.20963 12.7366Z" fill="#FF7D36"/>
    <path d="M9.37635 5.19531C7.6301 5.19531 6.82812 6.23011 6.82812 6.92862C6.82812 7.43312 7.25496 7.66594 7.60423 7.66594C8.3027 7.66594 8.01815 6.66993 9.33754 6.66993C9.98431 6.66993 10.5017 6.95452 10.5017 7.54953C10.5017 8.24808 9.77736 8.64904 9.35049 9.01123C8.97538 9.3346 8.48383 9.86497 8.48383 10.9774C8.48383 11.65 8.66489 11.8441 9.19526 11.8441C9.82909 11.8441 9.95841 11.5595 9.95841 11.3137C9.95841 10.6411 9.9714 10.253 10.6828 9.69683C11.0321 9.42519 12.1316 8.54558 12.1316 7.32966C12.1316 6.11373 11.0321 5.19531 9.37635 5.19531Z" fill="#FF7D36"/>
    <path fill-rule="evenodd" clip-rule="evenodd" d="M0 9.5C0 4.24891 4.24962 0 9.5 0C14.7511 0 19 4.24962 19 9.5C19 14.7511 14.7503 19 9.5 19H0.742188C0.332277 19 0 18.6677 0 18.2578V9.5ZM1.48438 17.5156H9.5C13.9306 17.5156 17.5156 13.93 17.5156 9.5C17.5156 5.0694 13.93 1.48438 9.5 1.48438C5.0694 1.48438 1.48438 5.06999 1.48438 9.5V17.5156Z" fill="#FF7D36"/>
</svg>
