<svg width="18" height="18" viewBox="0 0 18 18" fill="none" xmlns="http://www.w3.org/2000/svg">
    <path fill-rule="evenodd" clip-rule="evenodd" d="M14.478 2.15479H16.5312C16.7902 2.15479 17 2.36462 17 2.62354C17 4.72388 16.4512 6.70544 15.4545 8.20337C14.4691 9.6842 13.1567 10.5336 11.7391 10.6162C11.4177 10.9659 11.0779 11.2512 10.724 11.4686V13.552H11.5104C12.4611 13.552 13.2344 14.3254 13.2344 15.276V16.0624H13.2677C13.5266 16.0624 13.7365 16.2723 13.7365 16.5311C13.7365 16.79 13.5266 16.9999 13.2677 16.9999H4.7323C4.47339 16.9999 4.26355 16.79 4.26355 16.5311C4.26355 16.2723 4.47339 16.0624 4.7323 16.0624H4.76562V15.276C4.76562 14.3254 5.53894 13.552 6.48962 13.552H7.276V11.4686C6.92212 11.2511 6.5824 10.9659 6.26099 10.6162C4.84326 10.5336 3.53088 9.6842 2.54565 8.20337C1.54895 6.70544 1 4.72388 1 2.62354C1 2.36462 1.20984 2.15479 1.46875 2.15479H3.52197C3.51453 1.92737 3.51038 1.69861 3.51038 1.46875C3.51038 1.20984 3.72034 1 3.97913 1H14.0209C14.2797 1 14.4896 1.20984 14.4896 1.46875C14.4896 1.69861 14.4855 1.92737 14.478 2.15479ZM1.94922 3.09229C2.02283 4.83264 2.50586 6.44861 3.328 7.68408C3.92249 8.57764 4.64404 9.19312 5.42371 9.48755C5.28809 9.26514 5.15735 9.02893 5.03235 8.77893C4.24744 7.20923 3.74524 5.23169 3.57617 3.09229H1.94922ZM12.2969 15.276V16.0625H5.70312V15.276C5.70312 14.8424 6.05591 14.4895 6.48962 14.4895H11.5104C11.9441 14.4895 12.2969 14.8424 12.2969 15.276ZM8.21484 11.876V13.552H9.78784V11.876C9.53015 11.9438 9.26758 11.9791 9.00134 11.9791C8.73511 11.9791 8.47253 11.9438 8.21484 11.876ZM10.0768 10.7607C10.0557 10.7694 10.0354 10.7799 10.016 10.7915C9.68469 10.9563 9.34424 11.0416 9 11.0416C8.65588 11.0416 8.31555 10.9563 7.98438 10.7917C7.96472 10.7799 7.94434 10.7694 7.92297 10.7605C7.55542 10.5662 7.19983 10.2727 6.86353 9.88708C6.84583 9.86182 6.82593 9.8385 6.80383 9.81726C6.46997 9.4209 6.15588 8.93335 5.86902 8.35962C5.00757 6.63684 4.51001 4.37158 4.45337 1.9375H13.5466C13.4899 4.37158 12.9923 6.63696 12.131 8.35962C11.8441 8.93335 11.53 9.4209 11.1963 9.81726C11.1741 9.8385 11.1539 9.86194 11.1364 9.88721C10.8 10.2729 10.4443 10.5663 10.0768 10.7607ZM12.5781 9.48755C13.3578 9.19312 14.0793 8.57764 14.6738 7.68408C15.496 6.44861 15.979 4.83264 16.0526 3.09229H14.4257C14.2565 5.23169 13.7544 7.20923 12.9695 8.77893C12.8445 9.02893 12.7137 9.26514 12.5781 9.48755Z" fill="#E8A91B"/>
    <path d="M14.478 2.15479L14.3781 2.15151L14.3747 2.25479H14.478V2.15479ZM15.4545 8.20337L15.5377 8.25877V8.25877L15.4545 8.20337ZM11.7391 10.6162L11.7333 10.5164L11.6929 10.5187L11.6655 10.5485L11.7391 10.6162ZM10.724 11.4686L10.6717 11.3834L10.624 11.4127V11.4686H10.724ZM10.724 13.552H10.624V13.652H10.724V13.552ZM13.2344 16.0624H13.1344V16.1624H13.2344V16.0624ZM4.76562 16.0624V16.1624H4.86562V16.0624H4.76562ZM7.276 13.552V13.652H7.376V13.552H7.276ZM7.276 11.4686H7.376V11.4127L7.32837 11.3834L7.276 11.4686ZM6.26099 10.6162L6.33462 10.5485L6.30722 10.5187L6.26681 10.5164L6.26099 10.6162ZM2.54565 8.20337L2.62891 8.14798L2.62891 8.14797L2.54565 8.20337ZM3.52197 2.15479V2.25479H3.6253L3.62192 2.15151L3.52197 2.15479ZM3.328 7.68408L3.41126 7.62869L3.41125 7.62868L3.328 7.68408ZM1.94922 3.09229V2.99229H1.8449L1.84931 3.09651L1.94922 3.09229ZM5.42371 9.48755L5.38838 9.5811L5.66055 9.68388L5.50909 9.43549L5.42371 9.48755ZM5.03235 8.77893L5.12179 8.73421L5.12179 8.73421L5.03235 8.77893ZM3.57617 3.09229L3.67586 3.08441L3.66858 2.99229H3.57617V3.09229ZM12.2969 16.0625V16.1625H12.3969V16.0625H12.2969ZM5.70312 16.0625H5.60313V16.1625H5.70312V16.0625ZM8.21484 13.552H8.11484V13.652H8.21484V13.552ZM8.21484 11.876L8.24031 11.7793L8.11484 11.7462V11.876H8.21484ZM9.78784 13.552V13.652H9.88784V13.552H9.78784ZM9.78784 11.876H9.88784V11.7462L9.76237 11.7793L9.78784 11.876ZM10.016 10.7915L10.0607 10.8813L10.0673 10.8773L10.016 10.7915ZM10.0768 10.7607L10.1149 10.8537L10.1235 10.8491L10.0768 10.7607ZM7.98438 10.7917L7.9326 10.8777L7.93988 10.8813L7.98438 10.7917ZM7.92297 10.7605L7.87604 10.8493L7.88447 10.8528L7.92297 10.7605ZM6.86353 9.88708L6.78116 9.94478L6.78816 9.95281L6.86353 9.88708ZM6.80383 9.81726L6.72693 9.88204L6.73453 9.88935L6.80383 9.81726ZM5.86902 8.35962L5.95846 8.3149L5.95846 8.3149L5.86902 8.35962ZM4.45337 1.9375V1.8375H4.35102L4.3534 1.93983L4.45337 1.9375ZM13.5466 1.9375L13.6466 1.93983L13.649 1.8375H13.5466V1.9375ZM11.1963 9.81726L11.2658 9.88997L11.2728 9.88167L11.1963 9.81726ZM11.1364 9.88721L11.2122 9.95332L11.2184 9.94431L11.1364 9.88721ZM14.6738 7.68408L14.5906 7.62868L14.5906 7.62869L14.6738 7.68408ZM12.5781 9.48755L12.4927 9.43549L12.3413 9.68388L12.6135 9.5811L12.5781 9.48755ZM16.0526 3.09229L16.1525 3.09651L16.1569 2.99229H16.0526V3.09229ZM14.4257 3.09229V2.99229H14.3333L14.326 3.0844L14.4257 3.09229ZM12.9695 8.77893L12.88 8.73421L12.88 8.73421L12.9695 8.77893ZM16.5312 2.05479H14.478V2.25479H16.5312V2.05479ZM17.1 2.62354C17.1 2.3094 16.8454 2.05479 16.5312 2.05479V2.25479C16.7349 2.25479 16.9 2.41985 16.9 2.62354H17.1ZM15.5377 8.25877C16.5471 6.74183 17.1 4.74021 17.1 2.62354H16.9C16.9 4.70754 16.3553 6.66906 15.3712 8.14797L15.5377 8.25877ZM11.745 10.716C13.2016 10.6311 14.5397 9.75861 15.5377 8.25877L15.3712 8.14797C14.3985 9.6098 13.1119 10.436 11.7333 10.5164L11.745 10.716ZM10.7763 11.5538C11.1391 11.331 11.486 11.0395 11.8128 10.6839L11.6655 10.5485C11.3495 10.8924 11.0166 11.1715 10.6717 11.3834L10.7763 11.5538ZM10.824 13.552V11.4686H10.624V13.552H10.824ZM11.5104 13.452H10.724V13.652H11.5104V13.452ZM13.3344 15.276C13.3344 14.2702 12.5163 13.452 11.5104 13.452V13.652C12.4058 13.652 13.1344 14.3807 13.1344 15.276H13.3344ZM13.3344 16.0624V15.276H13.1344V16.0624H13.3344ZM13.2677 15.9624H13.2344V16.1624H13.2677V15.9624ZM13.8365 16.5311C13.8365 16.2171 13.5819 15.9624 13.2677 15.9624V16.1624C13.4714 16.1624 13.6364 16.3275 13.6364 16.5311H13.8365ZM13.2677 17.0999C13.5818 17.0999 13.8365 16.8453 13.8365 16.5311H13.6364C13.6364 16.7348 13.4714 16.8999 13.2677 16.8999V17.0999ZM4.7323 17.0999H13.2677V16.8999H4.7323V17.0999ZM4.16355 16.5311C4.16355 16.8453 4.41816 17.0999 4.7323 17.0999V16.8999C4.52862 16.8999 4.36355 16.7348 4.36355 16.5311H4.16355ZM4.7323 15.9624C4.41814 15.9624 4.16355 16.2171 4.16355 16.5311H4.36355C4.36355 16.3275 4.52863 16.1624 4.7323 16.1624V15.9624ZM4.76562 15.9624H4.7323V16.1624H4.76562V15.9624ZM4.66563 15.276V16.0624H4.86562V15.276H4.66563ZM6.48962 13.452C5.48371 13.452 4.66563 14.2702 4.66563 15.276H4.86562C4.86562 14.3807 5.59417 13.652 6.48962 13.652V13.452ZM7.276 13.452H6.48962V13.652H7.276V13.452ZM7.176 11.4686V13.552H7.376V11.4686H7.176ZM6.18736 10.6839C6.51415 11.0395 6.86088 11.3308 7.22363 11.5538L7.32837 11.3834C6.98336 11.1714 6.65064 10.8924 6.33462 10.5485L6.18736 10.6839ZM2.4624 8.25876C3.46028 9.75861 4.79841 10.6311 6.25517 10.716L6.26681 10.5164C4.88811 10.436 3.60149 9.6098 2.62891 8.14798L2.4624 8.25876ZM0.9 2.62354C0.9 4.74022 1.45305 6.74183 2.4624 8.25877L2.62891 8.14797C1.64485 6.66906 1.1 4.70754 1.1 2.62354H0.9ZM1.46875 2.05479C1.15461 2.05479 0.9 2.3094 0.9 2.62354H1.1C1.1 2.41985 1.26507 2.25479 1.46875 2.25479V2.05479ZM3.52197 2.05479H1.46875V2.25479H3.52197V2.05479ZM3.41038 1.46875C3.41038 1.69981 3.41455 1.92967 3.42203 2.15806L3.62192 2.15151C3.6145 1.92507 3.61038 1.69741 3.61038 1.46875H3.41038ZM3.97913 0.9C3.66513 0.9 3.41038 1.15459 3.41038 1.46875H3.61038C3.61038 1.26508 3.77555 1.1 3.97913 1.1V0.9ZM14.0209 0.9H3.97913V1.1H14.0209V0.9ZM14.5896 1.46875C14.5896 1.15459 14.3349 0.9 14.0209 0.9V1.1C14.2245 1.1 14.3896 1.26508 14.3896 1.46875H14.5896ZM14.578 2.15806C14.5855 1.92967 14.5896 1.69981 14.5896 1.46875H14.3896C14.3896 1.69741 14.3855 1.92507 14.3781 2.15151L14.578 2.15806ZM3.41125 7.62868C2.60095 6.411 2.12211 4.81352 2.04913 3.08806L1.84931 3.09651C1.92355 4.85177 2.41077 6.48622 3.24475 7.73948L3.41125 7.62868ZM5.45903 9.394C4.70352 9.10868 3.99719 8.50939 3.41126 7.62869L3.24475 7.73947C3.84778 8.64588 4.58456 9.27755 5.38838 9.5811L5.45903 9.394ZM4.94291 8.82365C5.06911 9.07606 5.2012 9.31472 5.33833 9.53961L5.50909 9.43549C5.37498 9.21555 5.24559 8.9818 5.12179 8.73421L4.94291 8.82365ZM3.47648 3.10016C3.64633 5.24938 4.15103 7.24002 4.94291 8.82365L5.12179 8.73421C4.34384 7.17844 3.84415 5.214 3.67586 3.08441L3.47648 3.10016ZM1.94922 3.19229H3.57617V2.99229H1.94922V3.19229ZM12.3969 16.0625V15.276H12.1969V16.0625H12.3969ZM5.70312 16.1625H12.2969V15.9625H5.70312V16.1625ZM5.60313 15.276V16.0625H5.80312V15.276H5.60313ZM6.48962 14.3895C6.00067 14.3895 5.60313 14.7872 5.60313 15.276H5.80312C5.80312 14.8976 6.11115 14.5895 6.48962 14.5895V14.3895ZM11.5104 14.3895H6.48962V14.5895H11.5104V14.3895ZM12.3969 15.276C12.3969 14.7872 11.9993 14.3895 11.5104 14.3895V14.5895C11.8889 14.5895 12.1969 14.8976 12.1969 15.276H12.3969ZM8.31484 13.552V11.876H8.11484V13.552H8.31484ZM9.78784 13.452H8.21484V13.652H9.78784V13.452ZM9.68784 11.876V13.552H9.88784V11.876H9.68784ZM9.00134 12.0791C9.2765 12.0791 9.54763 12.0427 9.81331 11.9727L9.76237 11.7793C9.51268 11.845 9.25866 11.8791 9.00134 11.8791V12.0791ZM8.18937 11.9727C8.45506 12.0427 8.72619 12.0791 9.00134 12.0791V11.8791C8.74403 11.8791 8.49001 11.845 8.24031 11.7793L8.18937 11.9727ZM10.0673 10.8773C10.0832 10.8678 10.099 10.8597 10.1147 10.8533L10.0388 10.6682C10.0123 10.6791 9.98756 10.692 9.9647 10.7057L10.0673 10.8773ZM9 11.1416C9.36125 11.1416 9.71686 11.052 10.0605 10.881L9.97145 10.702C9.65253 10.8606 9.32723 10.9416 9 10.9416V11.1416ZM7.93988 10.8813C8.2834 11.052 8.63887 11.1416 9 11.1416V10.9416C8.6729 10.9416 8.3477 10.8606 8.02887 10.7022L7.93988 10.8813ZM7.88447 10.8528C7.90092 10.8596 7.91694 10.8679 7.93277 10.8774L8.03598 10.7061C8.01251 10.692 7.98775 10.6792 7.96147 10.6682L7.88447 10.8528ZM6.78816 9.95281C7.13069 10.3456 7.4956 10.6477 7.87623 10.8489L7.96972 10.6721C7.61524 10.4847 7.26896 10.1998 6.93889 9.82136L6.78816 9.95281ZM6.73453 9.88935C6.75186 9.90602 6.76756 9.92439 6.78162 9.94446L6.94543 9.82971C6.92409 9.79925 6.89999 9.77099 6.87314 9.74517L6.73453 9.88935ZM5.77958 8.40434C6.06927 8.98374 6.38749 9.4782 6.72735 9.88168L6.88032 9.75284C6.55245 9.36359 6.24249 8.88296 5.95846 8.3149L5.77958 8.40434ZM4.3534 1.93983C4.41029 4.38478 4.91 6.66531 5.77958 8.40434L5.95846 8.3149C5.10514 6.60837 4.60973 4.35838 4.55334 1.93517L4.3534 1.93983ZM13.5466 1.8375H4.45337V2.0375H13.5466V1.8375ZM12.2204 8.40434C13.0899 6.66543 13.5896 4.38478 13.6466 1.93983L13.4467 1.93517C13.3901 4.35838 12.8947 6.60849 12.0415 8.3149L12.2204 8.40434ZM11.2728 9.88167C11.6125 9.4782 11.9307 8.98374 12.2204 8.40434L12.0415 8.3149C11.7575 8.88296 11.4475 9.3636 11.1198 9.75285L11.2728 9.88167ZM11.2184 9.94431C11.2321 9.92463 11.2479 9.90626 11.2654 9.88954L11.1272 9.74498C11.1002 9.77074 11.0757 9.79924 11.0543 9.8301L11.2184 9.94431ZM10.1235 10.8491C10.5041 10.6478 10.8692 10.3458 11.2117 9.95292L11.061 9.82149C10.7309 10.2001 10.3845 10.4848 10.03 10.6724L10.1235 10.8491ZM14.5906 7.62869C14.0046 8.50939 13.2983 9.10868 12.5428 9.394L12.6135 9.5811C13.4173 9.27755 14.1541 8.64588 14.7571 7.73947L14.5906 7.62869ZM15.9527 3.08806C15.8797 4.81352 15.4009 6.411 14.5906 7.62868L14.7571 7.73948C15.5911 6.48622 16.0783 4.85177 16.1525 3.09651L15.9527 3.08806ZM14.4257 3.19229H16.0526V2.99229H14.4257V3.19229ZM13.0589 8.82365C13.8508 7.24002 14.3554 5.24938 14.5253 3.10017L14.326 3.0844C14.1576 5.214 13.658 7.17844 12.88 8.73421L13.0589 8.82365ZM12.6635 9.53961C12.8006 9.31472 12.9327 9.07606 13.0589 8.82365L12.88 8.73421C12.7562 8.9818 12.6269 9.21555 12.4927 9.43549L12.6635 9.53961Z" fill="#E8A91B"/>
</svg>
