<?xml version="1.0" standalone="no"?>
<!DOCTYPE svg PUBLIC "-//W3C//DTD SVG 1.1//EN" "http://www.w3.org/Graphics/SVG/1.1/DTD/svg11.dtd" >
<svg xmlns="http://www.w3.org/2000/svg">
<metadata>Generated by IcoMoon</metadata>
<defs>
<font id="icomoon" horiz-adv-x="1024">
<font-face units-per-em="1024" ascent="960" descent="-64" />
<missing-glyph horiz-adv-x="1024" />
<glyph unicode="&#x20;" horiz-adv-x="512" d="" />
<glyph unicode="&#xe900;" glyph-name="check-mark" horiz-adv-x="1280" d="M1137.004 816.684c-19.994 20.422-52.41 20.422-72.407 0l-613.408-626.459-235.784 240.799c-19.994 20.421-52.41 20.419-72.408 0-19.996-20.42-19.996-53.524 0-73.946l271.988-277.769c19.987-20.419 52.428-20.404 72.407 0l649.612 663.428c19.996 20.419 19.995 53.526 0 73.947z" />
<glyph unicode="&#xe901;" glyph-name="close" d="M602.197 448.321l402.432 402.432c25.003 24.981 25.003 65.514 0 90.495-25.002 25.003-65.493 25.003-90.496 0l-402.432-402.431-402.454 402.431c-25.002 25.003-65.493 25.003-90.495 0-25.003-24.981-25.003-65.515 0-90.495l402.453-402.432-402.453-402.433c-25.003-24.98-25.003-65.514 0-90.496 12.501-12.479 28.885-18.73 45.248-18.73s32.747 6.25 45.247 18.751l402.454 402.432 402.432-402.432c12.502-12.501 28.886-18.751 45.249-18.751s32.746 6.25 45.247 18.751c25.003 24.982 25.003 65.516 0 90.496l-402.432 402.412z" />
<glyph unicode="&#xe902;" horiz-adv-x="811" d="M405.061-37.717c-74.941 0-135.894 60.954-135.894 135.893 0 15.002 12.176 27.179 27.179 27.179s27.179-12.177 27.179-27.179c0-44.975 36.568-81.536 81.536-81.536 44.975 0 81.536 36.561 81.536 81.536 0 15.002 12.177 27.179 27.179 27.179s27.179-12.177 27.179-27.179c0-74.94-60.954-135.893-135.893-135.893z" />
<glyph unicode="&#xe903;" horiz-adv-x="811" d="M42.667 134.417c0-34.97 28.446-63.415 63.415-63.415h597.931c34.978 0 63.424 28.446 63.424 63.415 0 18.56-8.081 36.13-22.541 48.452-54.754 46.315-86.174 114.001-86.174 185.719v101.035c0 139.877-113.792 253.668-253.674 253.668-139.875 0-253.666-113.791-253.666-253.668v-101.035c0-71.718-31.419-139.405-86.54-185.971-14.094-12.070-22.176-29.641-22.176-48.201zM205.739 469.623c0 109.911 89.399 199.311 199.309 199.311 109.917 0 199.317-89.399 199.317-199.311v-101.035c0-87.727 38.443-170.573 105.523-227.285 1.195-1.015 3.191-3.264 3.191-6.886 0-4.924-4.134-9.058-9.067-9.058h-597.931c-4.924 0-9.058 4.134-9.058 9.058 0 3.622 1.991 5.871 3.265 6.959 67.005 56.64 105.45 139.486 105.45 227.213v101.035z" />
<glyph unicode="&#xe904;" horiz-adv-x="811" d="M744.896 182.869l13.837 16.235-0.060 0.051-13.777-16.286zM64.842 182.618l-13.768 16.294-0.109-0.094 13.876-16.201zM709.888 141.303l13.815 16.256-0.043 0.034-13.773-16.29zM100.289 141.376l-13.772 16.294-0.083-0.073 13.856-16.222zM106.082 92.335c-23.187 0-42.082 18.893-42.082 42.082h-42.667c0-46.75 37.997-84.749 84.748-84.749v42.667zM704.013 92.335h-597.931v-42.667h597.931v42.667zM746.103 134.417c0-23.185-18.893-42.082-42.091-42.082v-42.667c46.758 0 84.757 37.995 84.757 84.749h-42.667zM731.059 166.63c9.745-8.303 15.044-19.959 15.044-32.213h42.667c0 24.862-10.863 48.35-30.037 64.687l-27.674-32.474zM637.389 368.589c0-77.999 34.185-151.642 93.73-202.010l27.554 32.576c-49.967 42.266-78.618 103.996-78.618 169.434h-42.667zM637.389 469.623v-101.035h42.667v101.035h-42.667zM405.048 701.958c128.102 0 232.341-104.24 232.341-232.335h42.667c0 151.66-123.345 275.002-275.008 275.002v-42.667zM172.715 469.623c0 128.095 104.24 232.335 232.333 232.335v42.667c-151.657 0-274.999-123.343-274.999-275.002h42.667zM172.715 368.589v101.035h-42.667v-101.035h42.667zM78.61 166.319c59.904 50.611 94.105 124.254 94.105 202.27h-42.667c0-65.417-28.636-127.151-78.973-169.677l27.535-32.593zM64 134.417c0 12.331 5.361 23.983 14.719 31.996l-27.753 32.405c-18.829-16.124-29.632-39.616-29.632-64.401h42.667zM405.048 690.267c-121.691 0-220.642-98.95-220.642-220.644h42.667c0 98.129 79.848 177.977 177.975 177.977v42.667zM625.698 469.623c0 121.694-98.953 220.644-220.65 220.644v-42.667c98.133 0 177.984-79.849 177.984-177.977h42.667zM625.698 368.589v101.035h-42.667v-101.035h42.667zM723.661 157.594c-62.289 52.663-97.963 129.549-97.963 210.995h-42.667c0-94.012 41.212-182.814 113.079-243.575l27.55 32.58zM734.413 134.417c0 12.254-6.912 19.913-10.709 23.142l-27.635-32.512c-1.404 1.199-4.322 4.361-4.322 9.37h42.667zM704.013 104.026c16.704 0 30.4 13.675 30.4 30.391h-42.667c0 6.869 5.427 12.275 12.267 12.275v-42.667zM106.082 104.026h597.931v42.667h-597.931v-42.667zM75.691 134.417c0-16.708 13.685-30.391 30.391-30.391v42.667c6.858 0 12.276-5.419 12.276-12.275h-42.667zM86.433 157.598c-3.766-3.217-10.743-10.863-10.743-23.181h42.667c0-5.073-2.995-8.222-4.213-9.263l-27.711 32.444zM184.406 368.589c0-81.451-35.68-158.332-97.889-210.918l27.544-32.585c71.8 60.693 113.012 149.495 113.012 243.503h-42.667zM184.406 469.623v-101.035h42.667v101.035h-42.667z" />
<glyph unicode="&#xe905;" horiz-adv-x="811" d="M405.012 668.928c-15.003 0-27.179 12.176-27.179 27.179v108.715c0 15.002 12.176 27.179 27.179 27.179s27.18-12.176 27.18-27.179v-108.715c0-15.003-12.177-27.179-27.18-27.179z" />
<glyph unicode="&#xe906;" horiz-adv-x="811" d="M533.333 938.667c117.821 0 213.333-95.513 213.333-213.333s-95.513-213.333-213.333-213.333c-117.821 0-213.333 95.513-213.333 213.333s95.513 213.333 213.333 213.333z" />
<glyph unicode="&#xe907;" glyph-name="search" d="M51.2 502.947c0 223.781 182.072 405.853 405.853 405.853 223.794 0 405.851-182.072 405.851-405.853 0-223.794-182.057-405.851-405.851-405.851-223.781 0-405.853 182.057-405.853 405.851zM126.127 502.945c0-182.474 148.455-330.928 330.927-330.928s330.925 148.46 330.925 330.93c0 182.471-148.454 330.927-330.925 330.927s-330.927-148.457-330.927-330.929zM457.053 911.36c-225.195 0-408.413-183.218-408.413-408.413h5.12c0 222.368 180.925 403.293 403.293 403.293v5.12zM865.464 502.947c0 225.195-183.204 408.413-408.411 408.413v-5.12c222.381 0 403.291-180.925 403.291-403.293h5.12zM457.053 94.536c225.207 0 408.411 183.204 408.411 408.411h-5.12c0-222.381-180.91-403.291-403.291-403.291v-5.12zM48.64 502.947c0-225.207 183.218-408.411 408.413-408.411v5.12c-222.368 0-403.293 180.91-403.293 403.291h-5.12zM457.053 174.577c-181.058 0-328.367 147.313-328.367 328.368h-5.12c0-183.887 149.601-333.488 333.487-333.488v5.12zM785.418 502.947c0-181.058-147.308-328.37-328.365-328.37v-5.12c183.884 0 333.485 149.606 333.485 333.49h-5.12zM457.053 831.313c181.058 0 328.365-147.309 328.365-328.367h5.12c0 183.885-149.601 333.487-333.485 333.487v-5.12zM128.687 502.945c0 181.058 147.309 328.369 328.367 328.369v5.12c-183.885 0-333.487-149.603-333.487-333.489h5.12zM961.843 51.159l-214.794 214.789c-14.633 14.638-38.339 14.638-52.972 0-14.638-14.623-14.638-38.349 0-52.972l214.789-214.794c7.316-7.316 16.896-10.977 26.486-10.977 9.58 0 19.169 3.661 26.491 10.977 14.633 14.623 14.633 38.354 0 52.977z" />
<glyph unicode="&#xe908;" glyph-name="award" d="M823.637 837.416c0.427 12.938 0.66 25.952 0.66 39.028 0 14.729-11.941 26.667-26.664 26.667h-571.265c-14.722 0-26.667-11.938-26.667-26.667 0-13.076 0.236-26.090 0.659-39.028h-116.805c-14.729 0-26.667-11.937-26.667-26.667 0-119.486 31.229-232.215 87.93-317.43 56.049-84.243 130.708-132.564 211.362-137.263 18.285-19.894 37.611-36.119 57.743-48.492v-118.522h-44.736c-54.083 0-98.076-43.998-98.076-98.076v-44.737h-1.896c-14.729 0-26.667-11.941-26.667-26.664 0-14.729 11.938-26.67 26.667-26.67h485.569c14.729 0 26.67 11.941 26.67 26.67 0 14.723-11.941 26.664-26.67 26.664h-1.894v44.737c0 54.079-43.992 98.076-98.076 98.076h-44.737v118.522c20.133 12.368 39.464 28.598 57.748 48.492 80.646 4.699 155.307 53.020 211.365 137.263 56.701 85.216 87.922 197.944 87.922 317.43 0 14.73-11.935 26.667-26.67 26.667h-116.804zM110.889 784.083h92.555c9.618-121.708 38.188-234.208 82.84-323.507 7.111-14.222 14.549-27.66 22.264-40.313-44.355 16.75-85.403 51.764-119.223 102.597-46.771 70.285-74.25 162.215-78.437 261.222zM699.557 90.965v-44.743h-375.113v44.743c0 24.667 20.070 44.743 44.743 44.743h285.627c24.673 0 44.743-20.076 44.743-44.743zM467.333 284.388c14.66-3.857 29.598-5.865 44.743-5.865s30.083 2.008 44.743 5.865v-95.346h-89.486v95.346zM573.258 347.836c-1.2-0.495-2.355-1.092-3.459-1.752-18.848-9.375-38.216-14.228-57.799-14.228-19.577 0-38.938 4.853-57.777 14.217-1.118 0.671-2.278 1.269-3.494 1.775-20.91 11.054-41.139 27.75-60.27 49.688-1.007 1.437-2.139 2.764-3.396 3.972-18.993 22.548-36.861 50.285-53.18 82.924-49.007 98.007-77.313 226.875-80.535 365.347h517.304c-3.226-138.472-31.534-267.347-80.532-365.347-16.321-32.639-34.19-60.375-53.174-82.924-1.263-1.208-2.412-2.542-3.408-3.979-19.137-21.941-39.373-38.633-60.279-49.692zM715.554 420.264c7.714 12.653 15.155 26.090 22.266 40.313 44.652 89.298 73.216 201.799 82.842 323.507h92.553c-4.187-99.007-31.664-190.937-78.438-261.222-33.82-50.834-74.866-85.848-119.222-102.597zM823.637 837.416l-5.683 0.187-0.193-5.875h5.877v5.689zM879.189 493.319v0zM667.824 356.056l-0.33 5.678-2.298-0.131-1.559-1.695 4.187-3.851zM610.076 307.564l-2.975 4.847-2.714-1.667v-3.18h5.689zM610.076 189.042h-5.689v-5.689h5.689v5.689zM752.89 46.228h-5.689v-5.689h5.689v5.689zM271.111 46.228v-5.689h5.689v5.689h-5.689zM413.924 189.042v-5.689h5.689v5.689h-5.689zM413.924 307.564h5.689v3.18l-2.71 1.667-2.979-4.847zM356.181 356.056l4.189 3.851-1.559 1.695-2.299 0.131-0.331-5.678zM144.819 493.319v0zM200.361 837.416v-5.689h5.878l-0.192 5.875-5.686-0.187zM189.326 522.861v0zM110.889 784.083v5.689h-5.935l0.251-5.929 5.684 0.24zM308.549 420.264l-2.010-5.322 15.483-5.847-8.616 14.131-4.857-2.962zM286.285 460.576v0zM203.444 784.083l5.671 0.448-0.414 5.241h-5.257v-5.689zM699.557 46.222v-5.689h5.689v5.689h-5.689zM324.444 46.222h-5.688v-5.689h5.688v5.689zM467.333 189.042h-5.689v-5.689h5.689v5.689zM467.333 284.388l1.449 5.501-7.138 1.883v-7.384h5.689zM556.819 189.042v-5.689h5.689v5.689h-5.689zM556.819 284.388h5.689v7.384l-7.138-1.883 1.449-5.501zM569.799 346.084l2.543-5.109 0.375 0.228-2.918 4.881zM573.258 347.836l2.167-5.291 0.489 0.262-2.657 5.029zM454.223 346.072l-2.946-4.892 0.414-0.205 2.532 5.097zM450.729 347.847l-2.67-5.052 0.48-0.199 2.19 5.251zM390.459 397.535l-4.686-3.282 0.398-0.457 4.288 3.739zM387.062 401.507l-4.375-3.685 0.432-0.416 3.942 4.101zM333.882 484.431v0zM253.347 849.778v5.689h-5.823l0.135-5.821 5.687 0.133zM770.651 849.778l5.689-0.133 0.137 5.821h-5.825v-5.689zM636.945 401.507l3.954-4.136 0.398 0.472-4.352 3.664zM633.537 397.528l4.312-3.761 0.353 0.513-4.665 3.248zM834.776 522.861v0zM715.554 420.264l-4.858 2.962-8.613-14.131 15.485 5.847-2.014 5.322zM913.215 784.083l5.683-0.24 0.25 5.929h-5.934v-5.689zM820.662 784.083v5.689h-5.257l-0.415-5.24 5.672-0.449zM737.82 460.576v0zM940.442 843.105h-116.804v-11.378h116.804v11.378zM972.8 810.75c0 17.871-14.484 32.356-32.358 32.356v-11.378c11.588 0 20.981-9.39 20.981-20.978h11.378zM883.922 490.168c57.424 86.297 88.878 200.167 88.878 320.582h-11.378c0-118.556-30.987-230.145-86.972-314.279l9.472-6.303zM668.16 350.379c82.864 4.83 158.987 54.465 215.762 139.789l-9.472 6.303c-55.336-83.162-128.529-130.163-206.956-134.737l0.666-11.355zM613.052 302.717c20.639 12.675 40.374 29.258 58.965 49.488l-8.38 7.703c-17.977-19.564-36.915-35.442-56.536-47.497l5.951-9.694zM615.765 189.042v118.522h-11.378v-118.522h11.378zM654.814 194.731h-44.737v-11.378h44.737v11.378zM758.579 90.965c0 57.219-46.541 103.765-103.765 103.765v-11.378c50.938 0 92.388-41.455 92.388-92.388h11.378zM758.579 46.228v44.737h-11.378v-44.737h11.378zM754.785 51.917h-1.894v-11.378h1.894v11.378zM787.143 19.564c0 17.863-14.484 32.353-32.358 32.353v-11.378c11.588 0 20.975-9.392 20.975-20.975h11.383zM754.785-12.794c17.869 0 32.358 14.484 32.358 32.358h-11.383c0-11.588-9.387-20.981-20.975-20.981v-11.378zM269.215-12.794h485.569v11.378h-485.569v-11.378zM236.86 19.564c0-17.874 14.484-32.358 32.356-32.358v11.378c-11.587 0-20.978 9.392-20.978 20.981h-11.378zM269.215 51.917c-17.872 0-32.356-14.49-32.356-32.353h11.378c0 11.583 9.391 20.975 20.978 20.975v11.378zM271.111 51.917h-1.896v-11.378h1.896v11.378zM265.423 90.965v-44.737h11.377v44.737h-11.377zM369.187 194.731c-57.225 0-103.765-46.546-103.765-103.765h11.377c0 50.933 41.446 92.388 92.388 92.388v11.378zM413.924 194.731h-44.736v-11.378h44.736v11.378zM408.235 307.564v-118.522h11.378v118.522h-11.378zM351.992 352.205c18.591-20.23 38.316-36.801 58.952-49.488l5.959 9.694c-19.627 12.060-38.555 27.932-56.533 47.497l-8.377-7.703zM140.083 490.168c56.768-85.325 132.893-134.96 215.766-139.79l0.662 11.355c-78.433 4.574-151.627 51.575-206.956 134.737l-9.473-6.302zM51.2 810.75c0-120.416 31.462-234.285 88.883-320.582l9.473 6.303c-55.982 84.134-86.978 195.722-86.978 314.279h-11.378zM83.556 843.105c-17.871 0-32.356-14.484-32.356-32.356h11.378c0 11.588 9.391 20.978 20.978 20.978v11.378zM200.361 843.105h-116.805v-11.378h116.805v11.378zM194.013 876.444c0-13.145 0.237-26.221 0.663-39.214l11.372 0.373c-0.422 12.882-0.656 25.833-0.656 38.841h-11.378zM226.368 908.8c-17.863 0-32.356-14.483-32.356-32.356h11.378c0 11.587 9.396 20.978 20.978 20.978v11.378zM797.633 908.8h-571.265v-11.378h571.265v11.378zM829.986 876.444c0 17.872-14.49 32.356-32.353 32.356v-11.378c11.583 0 20.975-9.391 20.975-20.978h11.378zM829.326 837.23c0.427 12.993 0.66 26.069 0.66 39.214h-11.378c0-13.008-0.233-25.96-0.654-38.841l11.372-0.373zM194.062 526.013c-46.097 69.272-73.338 160.151-77.489 258.311l-11.368-0.481c4.223-99.855 31.941-192.837 79.385-264.133l9.472 6.303zM310.558 425.586c-42.98 16.232-83.162 50.324-116.495 100.427l-9.473-6.302c34.306-51.565 76.22-87.5 121.949-104.768l4.019 10.644zM281.197 458.032c7.179-14.359 14.694-27.936 22.495-40.73l9.714 5.923c-7.629 12.512-14.99 25.81-22.033 39.895l-10.176-5.088zM197.773 783.635c9.663-122.267 38.374-235.512 83.424-325.603l10.176 5.088c-44.257 88.506-72.684 200.261-82.257 321.411l-11.343-0.896zM110.889 778.394h92.555v11.378h-92.555v-11.378zM705.246 46.222v44.743h-11.378v-44.743h11.378zM324.444 40.533h375.113v11.378h-375.113v-11.378zM318.756 90.965v-44.743h11.377v44.743h-11.377zM369.187 141.397c-27.816 0-50.431-22.625-50.431-50.432h11.377c0 21.527 17.523 39.054 39.054 39.054v11.378zM654.814 141.397h-285.627v-11.378h285.627v11.378zM705.246 90.965c0 27.807-22.619 50.432-50.432 50.432v-11.378c21.532 0 39.054-17.527 39.054-39.054h11.378zM473.022 189.042v95.346h-11.378v-95.346h11.378zM556.819 194.731h-89.486v-11.378h89.486v11.378zM551.13 284.388v-95.346h11.378v95.346h-11.378zM512.076 272.833c15.654 0 31.078 2.071 46.192 6.053l-2.898 11.002c-14.205-3.738-28.656-5.678-43.294-5.678v-11.378zM465.884 278.886c15.115-3.982 30.539-6.053 46.192-6.053v11.378c-14.638 0-29.089 1.94-43.294 5.678l-2.898-11.002zM572.718 341.202c0.905 0.54 1.803 1.001 2.697 1.365l-4.318 10.53c-1.508-0.62-2.915-1.354-4.215-2.133l5.837-9.762zM512 326.167c20.551 0 40.781 5.097 60.331 14.825l-5.066 10.183c-18.143-9.023-36.649-13.631-55.265-13.631v-11.378zM451.691 340.975c19.542-9.711 39.765-14.808 60.309-14.808v11.378c-18.608 0-37.109 4.608-55.247 13.619l-5.063-10.189zM448.539 342.596c0.936-0.387 1.847-0.859 2.748-1.399l5.872 9.745c-1.335 0.802-2.744 1.53-4.239 2.156l-4.38-10.502zM386.171 393.796c19.486-22.345 40.245-39.532 61.899-50.978l5.319 10.058c-20.166 10.661-39.865 26.869-58.643 48.398l-8.575-7.478zM383.12 397.406c0.986-0.948 1.879-1.993 2.679-3.135l9.319 6.528c-1.214 1.733-2.585 3.341-4.112 4.809l-7.885-8.202zM328.794 481.886c16.48-32.961 34.583-61.091 53.918-84.044l8.702 7.33c-18.652 22.144-36.285 49.487-52.444 81.803l-10.176-5.088zM247.66 849.645c3.236-139.090 31.664-268.827 81.134-367.759l10.176 5.088c-48.544 97.083-76.728 225.082-79.936 362.936l-11.374-0.265zM770.651 855.467h-517.304v-11.378h517.304v11.378zM695.205 481.886c49.465 98.925 77.892 228.668 81.135 367.759l-11.372 0.265c-3.22-137.854-31.403-265.86-79.94-362.936l10.177-5.088zM641.297 397.843c19.325 22.953 37.427 51.082 53.908 84.044l-10.177 5.088c-16.156-32.316-33.792-59.659-52.434-81.803l8.704-7.328zM638.202 394.279c0.779 1.12 1.678 2.165 2.674 3.116l-7.862 8.224c-1.536-1.465-2.93-3.087-4.147-4.842l9.335-6.497zM575.915 342.807c21.652 11.452 42.422 28.632 61.906 50.983l-8.573 7.477c-18.779-21.539-38.485-37.735-58.652-48.407l5.319-10.052zM830.043 526.012c-33.337-50.102-73.518-84.195-116.497-100.427l4.022-10.644c45.727 17.269 87.643 53.204 121.947 104.768l-9.472 6.302zM907.531 784.324c-4.153-98.16-31.391-189.038-77.488-258.311l9.472-6.303c47.445 71.297 75.162 164.279 79.383 264.133l-11.366 0.481zM820.662 778.394h92.553v11.378h-92.553v-11.378zM742.906 458.032c45.050 90.091 73.756 203.336 83.422 325.602l-11.338 0.897c-9.58-121.151-38.002-232.905-82.261-321.411l10.177-5.088zM720.412 417.302c7.799 12.794 15.314 26.371 22.494 40.73l-10.177 5.088c-7.043-14.085-14.399-27.383-22.033-39.895l9.717-5.923z" />
<glyph unicode="&#xe909;" glyph-name="close-2" d="M579.187 448.632l301.516 301.516c18.733 18.716 18.733 49.085 0 67.803-18.733 18.733-49.070 18.733-67.803 0l-301.516-301.516-301.532 301.516c-18.733 18.733-49.070 18.733-67.803 0-18.733-18.717-18.733-49.087 0-67.803l301.532-301.516-301.532-301.516c-18.733-18.717-18.733-49.087 0-67.803 9.367-9.35 21.642-14.034 33.902-14.034s24.535 4.684 33.901 14.049l301.532 301.516 301.516-301.516c9.366-9.366 21.642-14.049 33.901-14.049 12.26 0 24.535 4.684 33.902 14.049 18.733 18.717 18.733 49.087 0 67.803l-301.516 301.5z" />
<glyph unicode="&#xe90a;" glyph-name="cloud-computing" d="M813.67 674.573c-32.279 161.963-189.743 267.087-351.705 234.806-118.461-23.61-211.086-116.178-234.77-234.624-114.836-13.234-197.211-117.053-183.983-231.898 12.177-105.691 101.697-185.432 208.090-185.358h149.508c16.516 0 29.903 13.386 29.903 29.901s-13.387 29.905-29.903 29.905h-149.508c-82.578 0.484-149.122 67.817-148.634 150.388 0.489 82.578 67.82 149.122 150.391 148.634 15.247 0 28.051 11.462 29.728 26.615 15.181 131.235 133.882 225.32 265.127 210.138 110.336-12.76 197.376-99.801 210.139-210.138 2.504-15.422 15.863-26.717 31.483-26.615 82.576 0 149.513-66.937 149.513-149.518 0-82.567-66.937-149.504-149.513-149.504h-149.509c-16.514 0-29.901-13.391-29.901-29.905s13.386-29.901 29.901-29.901h149.509c115.6 0.721 208.733 95.018 208.007 210.609-0.647 105.271-79.383 193.676-183.873 206.465zM414.726 157.822c-11.47 11.874-30.406 12.204-42.284 0.735s-12.207-30.399-0.737-42.287c0.241-0.247 0.489-0.489 0.737-0.735l126.814-126.836c11.669-11.697 30.599-11.72 42.296-0.061 0.014 0.023 0.033 0.037 0.047 0.061l126.818 126.846c11.878 11.469 12.209 30.399 0.735 42.277-11.473 11.874-30.403 12.214-42.282 0.735-0.247-0.242-0.498-0.489-0.735-0.735l-75.804-75.837v376.353c0 16.514-13.391 29.905-29.896 29.905-16.519 0-29.905-13.391-29.905-29.905v-376.353l-75.803 75.837z" />
<glyph unicode="&#xe90b;" glyph-name="Delete" d="M920.191 777.905h-192.761v31.429c0 56.19-45.714 101.905-101.908 101.905h-183.237c-56.19 0-101.905-45.714-101.905-101.905v-31.429h-192.762c-14.285 0-25.714-11.428-25.714-25.714s11.429-25.714 25.714-25.714h46.476v-604.191c0-75.81 61.714-137.523 137.524-137.523h404.574c75.805 0 137.523 61.713 137.523 137.523v604.191h46.475c14.287 0 25.712 11.428 25.712 25.714s-11.425 25.714-25.712 25.714zM391.81 809.334c0 27.809 22.666 50.476 50.476 50.476h183.237c27.809 0 50.478-22.666 50.478-50.476v-31.429h-284.191v31.429zM822.287 122.285c0-47.426-38.668-86.094-86.094-86.094h-404.574c-47.428 0-86.095 38.668-86.095 86.094v604.191h576.953v-604.191h-0.19zM533.904 128.38c14.285 0 25.714 11.43 25.714 25.717v454.474c0 14.286-11.429 25.714-25.714 25.714s-25.714-11.428-25.714-25.714v-454.284c0-14.287 11.428-25.907 25.714-25.907zM366.095 156.76c14.286 0 25.715 11.43 25.715 25.717v397.904c0 14.286-11.429 25.715-25.715 25.715s-25.714-11.429-25.714-25.715v-397.904c0-14.287 11.619-25.717 25.714-25.717zM701.713 156.76c14.287 0 25.717 11.43 25.717 25.717v397.904c0 14.286-11.43 25.715-25.717 25.715-14.282 0-25.712-11.429-25.712-25.715v-397.904c0-14.287 11.43-25.717 25.712-25.717z" />
<glyph unicode="&#xe90c;" glyph-name="list" d="M797.982 789.327c52.382-0.559 95.232-41.879 97.694-94.206v-666.406c0-51.174-46.519-88.388-97.694-88.388h-572.204c-51.174 0-97.694 37.214-97.694 88.388v666.409c2.462 52.324 45.315 93.645 97.694 94.203h88.391v39.542c0 12.793 12.793 18.608 25.586 18.608h67.455c15.651 43.299 57.5 71.511 103.508 69.781 46.521 0 87.229-23.261 103.511-69.781h68.617c12.791 0 26.748-5.815 26.748-18.608v-39.542h88.388zM360.687 800.956v-93.041h302.387v93.041h-66.291c-11.614 0.87-21.175 9.474-23.262 20.934-6.404 29.814-32.324 51.412-62.802 52.335-30.764-0.81-57.079-22.341-63.967-52.335-1.963-11.077-10.932-19.572-22.098-20.934h-63.966zM797.982-13.154c25.587 0 51.174 16.282 51.174 41.869h-0.004v666.409c-2.372 26.633-24.439 47.193-51.174 47.683h-88.388v-59.316c-1.796-13.212-13.436-22.827-26.748-22.098h-343.089c-13.071-0.681-24.358 9.067-25.586 22.098v59.314h-88.389c-26.735-0.488-48.8-21.050-51.174-47.683v-666.406c0-25.587 25.587-41.869 51.174-41.869h572.204zM709.594 789.327h-4.267v-4.267h4.267v4.267zM797.982 789.327l0.047 4.267h-0.047v-4.267zM614.229 847.477l-4.028-1.409 0.998-2.857h3.029v4.267zM510.719 917.258l-0.16-4.267h0.16v4.267zM407.21 847.477v-4.267h2.994l1.018 2.816-4.012 1.45zM314.169 789.327v-4.267h4.267v4.267h-4.267zM225.777 789.327v4.267h-0.046l0.046-4.267zM128.083 695.124l-4.267 0.201v-0.201h4.267zM895.676 695.121h4.271l-0.009 0.201-4.262-0.201zM424.654 800.956v-4.298l0.517 0.063-0.517 4.235zM360.687 800.956v4.267h-4.267v-4.267h4.267zM446.752 821.89l-4.163 0.956-0.038-0.211 4.201-0.745zM510.719 874.225l0.13 4.272-0.242-0.006 0.112-4.265zM573.521 821.89l4.198 0.765-0.026 0.131-4.173-0.896zM596.783 800.956l-0.32-4.267h0.32v4.267zM663.074 800.956h4.267v4.267h-4.267v-4.267zM663.074 707.915v-4.267h4.267v4.267h-4.267zM360.687 707.915h-4.267v-4.267h4.267v4.267zM849.156 28.715h4.267v4.267h-4.267v-4.267zM849.152 28.715h-4.267v-4.267h4.267v4.267zM849.152 695.124h4.284l-0.034 0.378-4.25-0.378zM797.978 742.806l0.081 4.267h-0.081v-4.267zM709.589 742.806v4.267h-4.267v-4.267h4.267zM709.589 683.49l4.267-0.58v0.58h-4.267zM682.842 661.392l0.235 4.267h-0.235v-4.267zM339.753 661.392v4.272l-0.222-0.012 0.222-4.261zM314.167 683.49h-4.286l0.038-0.401 4.248 0.401zM314.167 742.804h4.266v4.267h-4.266v-4.267zM225.777 742.804v4.268l-0.078-0.002 0.078-4.266zM174.604 695.121l-4.267 0.38v-0.38h4.267zM709.594 785.060h88.388v8.533h-88.388v-8.533zM705.327 828.869v-39.542h8.533v39.542h-8.533zM682.846 843.21c5.841 0 11.716-1.343 15.974-3.898 4.134-2.481 6.507-5.896 6.507-10.443h8.533c0 8.246-4.608 14.135-10.65 17.76-5.918 3.55-13.414 5.114-20.365 5.114v-8.533zM614.229 843.21h68.617v8.533h-68.617v-8.533zM510.719 912.992c45.023 0 83.897-22.396 99.483-66.924l8.051 2.819c-16.977 48.513-59.516 72.639-107.534 72.639v-8.533zM411.223 846.027c15.021 41.554 55.182 68.628 99.336 66.968l0.321 8.527c-47.863 1.799-91.399-27.549-107.682-72.595l8.025-2.9zM339.755 843.21h67.455v8.533h-67.455v-8.533zM318.435 828.869c0 4.711 2.249 8.102 6.019 10.502 3.928 2.499 9.463 3.84 15.3 3.84v8.533c-6.956 0-14.214-1.567-19.881-5.173-5.824-3.706-9.972-9.619-9.972-17.701h8.533zM318.435 789.327v39.542h-8.533v-39.542h8.533zM225.777 785.060h88.391v8.533h-88.391v-8.533zM132.345 694.923c2.356 50.065 43.359 89.603 93.478 90.138l-0.091 8.533c-54.64-0.583-99.342-43.687-101.91-98.269l8.524-0.401zM132.35 28.715v666.409h-8.533v-666.409h8.533zM225.777-55.407c-49.39 0-93.428 35.84-93.428 84.122h-8.533c0-54.063 49.004-92.655 101.961-92.655v8.533zM797.982-55.407h-572.204v-8.533h572.204v8.533zM891.409 28.715c0-48.282-44.036-84.122-93.427-84.122v-8.533c52.958 0 101.961 38.592 101.961 92.655h-8.533zM891.409 695.121v-666.406h8.533v666.406h-8.533zM797.935 785.061c50.121-0.535 91.123-40.072 93.478-90.14l8.525 0.401c-2.569 54.585-47.27 97.689-101.909 98.272l-0.094-8.533zM424.654 805.223h-63.966v-8.533h63.966v8.533zM442.551 822.635c-1.636-9.23-9.109-16.308-18.414-17.444l1.033-8.47c13.028 1.589 23.492 11.5 25.783 24.425l-8.402 1.489zM510.607 878.491c-32.711-0.862-60.689-23.754-68.013-55.646l8.317-1.91c6.452 28.097 31.102 48.266 59.92 49.025l-0.224 8.53zM577.694 822.786c-6.818 31.733-34.406 54.721-66.846 55.704l-0.259-8.529c28.517-0.864 52.768-21.072 58.759-48.967l8.346 1.792zM597.099 805.211c-9.677 0.725-17.643 7.894-19.379 17.443l-8.397-1.528c2.436-13.371 13.589-23.409 27.14-24.425l0.636 8.509zM663.074 805.223h-66.291v-8.533h66.291v8.533zM667.341 707.915v93.041h-8.533v-93.041h8.533zM360.687 703.648h302.387v8.533h-302.387v-8.533zM356.421 800.956v-93.041h8.533v93.041h-8.533zM844.89 28.715c0-11.221-5.568-20.514-14.302-27.132-8.789-6.656-20.659-10.47-32.606-10.47v-8.533c13.641 0 27.358 4.326 37.76 12.203 10.453 7.923 17.681 19.567 17.681 33.933h-8.533zM849.152 24.448h0.004v8.533h-0.004v-8.533zM844.885 695.124v-666.409h8.533v666.409h-8.533zM797.901 738.54c24.555-0.45 44.821-19.334 47.002-43.796l8.499 0.757c-2.564 28.804-26.432 51.040-55.343 51.57l-0.158-8.532zM709.589 738.54h88.388v8.533h-88.388v-8.533zM713.856 683.49v59.316h-8.533v-59.316h8.533zM682.607 657.132c15.535-0.849 29.116 10.368 31.211 25.783l-8.457 1.15c-1.493-11.008-11.196-19.020-22.285-18.413l-0.469-8.521zM339.753 657.125h343.089v8.533h-343.089v-8.533zM309.919 683.089c1.443-15.308 14.701-26.759 30.057-25.959l-0.444 8.522c-10.788-0.562-20.103 7.483-21.117 18.238l-8.495-0.801zM309.9 742.804v-59.314h8.533v59.314h-8.533zM225.777 738.537h88.389v8.533h-88.389v-8.533zM178.854 694.743c2.179 24.462 22.446 43.348 47.001 43.796l-0.156 8.532c-28.915-0.527-52.779-22.766-55.345-51.57l8.5-0.757zM178.871 28.715v666.406h-8.533v-666.406h8.533zM225.777-8.887c-11.945 0-23.814 3.814-32.605 10.47-8.733 6.618-14.301 15.91-14.301 27.132h-8.533c0-14.366 7.226-26.010 17.682-33.933 10.399-7.876 24.116-12.203 37.758-12.203v8.533zM797.982-8.887h-572.204v-8.533h572.204v8.533zM422.327 397.385c-8.724 9.195-23.207 9.715-32.565 1.161l-74.434-70.942-31.401 32.563c-8.724 9.199-23.207 9.715-32.565 1.165-9.009-9.438-9.009-24.29 0-33.728l47.683-48.849c4.127-4.621 10.089-7.177 16.282-6.976 6.135 0.085 11.987 2.594 16.282 6.976l90.715 86.063c8.993 8.252 9.594 22.229 1.342 31.223-0.423 0.469-0.87 0.917-1.338 1.344zM756.109 347.375h-267.494c-12.847 0-23.26-10.415-23.26-23.262s10.414-23.258 23.26-23.258h267.494c12.847 0 23.258 10.411 23.258 23.258s-10.411 23.262-23.258 23.262zM422.327 583.467c-8.724 9.196-23.207 9.715-32.565 1.162l-74.434-70.944-31.401 32.566c-8.724 9.196-23.207 9.714-32.565 1.162-9.009-9.439-9.009-24.29 0-33.728l47.683-48.845c4.127-4.625 10.089-7.177 16.282-6.98 6.135 0.085 11.987 2.594 16.282 6.98l90.715 86.061c8.993 8.25 9.594 22.23 1.342 31.221-0.423 0.47-0.87 0.917-1.338 1.344zM756.109 533.458h-267.494c-12.847 0-23.26-10.412-23.26-23.259s10.414-23.262 23.26-23.262h267.494c12.847 0 23.258 10.415 23.258 23.262s-10.411 23.259-23.258 23.259zM422.327 211.311c-8.724 9.195-23.207 9.715-32.565 1.165l-74.434-70.946-31.401 32.567c-8.724 9.195-23.207 9.711-32.565 1.161-9.009-9.438-9.009-24.29 0-33.728l47.683-48.845c4.127-4.621 10.089-7.177 16.282-6.98 6.135 0.085 11.987 2.594 16.282 6.98l90.715 86.063c8.993 8.247 9.594 22.229 1.342 31.219-0.423 0.469-0.87 0.913-1.338 1.344zM756.109 161.293h-267.494c-12.847 0-23.26-10.415-23.26-23.262s10.414-23.262 23.26-23.262h267.494c12.847 0 23.258 10.415 23.258 23.262s-10.411 23.262-23.258 23.262z" />
<glyph unicode="&#xe90d;" glyph-name="more" d="M102.321 371.358c56.511 0 102.321 45.811 102.321 102.321s-45.811 102.321-102.321 102.321c-56.51 0-102.321-45.811-102.321-102.321s45.811-102.321 102.321-102.321zM511.821 371.358c56.51 0 102.321 45.811 102.321 102.321s-45.811 102.321-102.321 102.321c-56.51 0-102.321-45.811-102.321-102.321s45.811-102.321 102.321-102.321zM921.197 371.358c56.512 0 102.317 45.811 102.317 102.321s-45.805 102.321-102.317 102.321c-56.512 0-102.323-45.811-102.323-102.321s45.811-102.321 102.323-102.321z" />
<glyph unicode="&#xe90e;" glyph-name="play" d="M512 960c-282.77 0-512-229.23-512-512s229.23-512 512-512c282.77 0 512 229.23 512 512s-229.23 512-512 512zM440.54 623.638c-18.204 10.62-41.065-2.511-41.065-23.586v-308.837c0-21.074 22.861-34.206 41.065-23.586l264.718 154.418c18.063 10.538 18.063 36.637 0 47.174l-264.718 154.418z" />
<glyph unicode="&#xe90f;" glyph-name="send" d="M978.156 447.181c0 7.845-4.679 14.939-11.886 18.026l-623.973 267.42c-7.14 3.060-15.411 1.618-21.097-3.676-5.684-5.294-7.708-13.443-5.163-20.781l90.515-260.99-90.515-260.99c-2.469-7.117-0.639-14.998 4.659-20.295 0.164-0.165 0.333-0.327 0.505-0.484 5.683-5.293 13.956-6.739 21.094-3.679l623.971 267.418c7.211 3.092 11.89 10.181 11.89 18.030zM367.692 679.078l495.327-212.284h-421.707l-73.62 212.284zM441.265 427.567h421.703l-495.328-212.287 73.625 212.287zM966.27 465.207v0zM978.156 447.181v0zM342.297 732.627v0zM321.2 728.952v0zM316.037 708.17v0zM406.552 447.181l3.718-1.292 0.449 1.292-0.449 1.292-3.718-1.292zM316.037 186.191v0zM321.2 165.411l2.684 2.879-0.010 0.012-2.674-2.891zM342.295 161.733v0zM966.266 429.151v0zM863.019 466.794v-3.938l1.552 7.558-1.552-3.619zM367.692 679.078l1.551 3.62-8.193 3.512 2.921-8.422 3.721 1.29zM441.312 466.794l-3.718-1.288 0.918-2.651h2.8v3.938zM367.64 215.28l-3.721 1.292-2.921-8.42 8.193 3.509-1.551 3.619zM441.265 427.567v3.938h-2.804l-0.918-2.647 3.722-1.292zM862.968 427.567l1.552-3.623-1.552 7.562v-3.938zM964.718 461.588c5.758-2.465 9.5-8.137 9.5-14.407h7.877c0 9.421-5.62 17.94-14.277 21.65l-3.1-7.243zM340.745 729.007l623.973-267.42 3.1 7.243-623.97 267.417-3.103-7.24zM323.884 726.069c4.545 4.232 11.156 5.383 16.861 2.938l3.103 7.24c-8.573 3.674-18.505 1.943-25.332-4.413l5.368-5.765zM319.758 709.461c-2.034 5.865-0.416 12.378 4.127 16.608l-5.369 5.764c-6.825-6.357-9.256-16.142-6.2-24.954l7.442 2.581zM410.27 448.473l-90.512 260.988-7.442-2.581 90.514-260.991 7.44 2.584zM319.758 184.899l90.512 260.99-7.44 2.584-90.514-260.99 7.442-2.584zM323.48 168.68c-4.233 4.234-5.696 10.531-3.723 16.219l-7.442 2.584c-2.964-8.55-0.767-18.011 5.595-24.371l5.57 5.569zM323.874 168.302c-0.13 0.118-0.261 0.244-0.394 0.378l-5.57-5.569c0.196-0.197 0.402-0.394 0.616-0.595l5.348 5.786zM340.743 165.352c-5.704-2.446-12.316-1.292-16.859 2.938l-5.369-5.762c6.824-6.357 16.758-8.090 25.331-4.415l-3.104 7.239zM964.714 432.77l-623.971-267.418 3.103-7.239 623.972 267.418-3.104 7.239zM974.218 447.181c0-6.274-3.738-11.937-9.504-14.411l3.104-7.239c8.661 3.71 14.277 12.225 14.277 21.65h-7.877zM864.571 470.414l-495.327 212.285-3.103-7.24 495.327-212.283 3.104 7.239zM441.312 462.856h421.707v7.877h-421.707v-7.877zM363.971 677.788l73.623-212.282 7.44 2.58-73.621 212.283-7.442-2.581zM371.361 213.992l73.622 212.283-7.44 2.584-73.624-212.287 7.442-2.58zM861.416 431.187l-495.328-212.287 3.103-7.239 495.328 212.283-3.104 7.243zM441.265 423.629h421.703v7.877h-421.703v-7.877z" />
<glyph unicode="&#xe910;" glyph-name="add" d="M861.31 479.18h-339.086v311.868c0 17.225-15.181 31.187-33.909 31.187s-33.909-13.963-33.909-31.187v-311.869h-339.086c-18.728 0.002-33.909-13.961-33.909-31.186s15.182-31.188 33.909-31.188h339.087v-311.869c0-17.227 15.182-31.19 33.909-31.19s33.909 13.963 33.909 31.19v311.869h339.089c18.727 0 33.906 13.963 33.906 31.188s-15.185 31.187-33.912 31.187z" />
<glyph unicode="&#xe911;" glyph-name="arrow" d="M945.93 498.667h-772.566l177.749 176.888c19.834 19.739 19.91 51.819 0.17 71.653-19.74 19.836-51.822 19.909-71.655 0.172l-264.743-263.467c-19.783-19.739-19.892-51.971-0.051-71.776l264.789-263.515c19.831-19.734 51.913-19.666 71.655 0.172 19.739 19.834 19.664 51.913-0.17 71.653l-177.744 176.888h772.566c27.989 0 50.668 22.683 50.668 50.666s-22.678 50.667-50.668 50.667z" />
<glyph unicode="&#xe912;" glyph-name="attach" d="M735.898 521.247c0 0 37.488 28.506 8.951 57.013s-56.278-8.28-56.278-8.28l-286.866-286.927c0 0-67.187-86.71-118.272-34.281-51.024 52.489 34.25 118.305 34.25 118.305l376.143 376.111c0 0 87.78 96.701 170.305 14.238 82.404-82.494-14.573-170.458-14.573-170.458l-422.646-422.648c0 0-135.229-156.221-260.407-31.009-125.178 125.207 32.57 258.909 32.57 258.909l320.872 320.963c0 0 35.933 30.004 9.016 57.013-27.043 26.979-56.986-9.014-56.986-9.014l-368.198-368.2c0 0-138.988-152.432 16.224-307.614 155.212-155.271 307.735-16.282 307.735-16.282l506.059 506.117c0 0 101.25 111.673-19.465 232.451s-232.42 19.523-232.42 19.523l-435.448-435.387c0 0-111.52-90.712-10.327-191.846 101.193-101.255 190.256 11.916 190.256 11.916l309.506 309.386z" />
<glyph unicode="&#xe913;" glyph-name="delete" d="M920.191 777.905h-192.761v31.429c0 56.19-45.714 101.905-101.908 101.905h-183.237c-56.19 0-101.905-45.714-101.905-101.905v-31.429h-192.762c-14.285 0-25.714-11.428-25.714-25.714s11.429-25.714 25.714-25.714h46.476v-604.191c0-75.81 61.714-137.523 137.524-137.523h404.574c75.805 0 137.523 61.713 137.523 137.523v604.191h46.475c14.287 0 25.712 11.428 25.712 25.714s-11.425 25.714-25.712 25.714zM391.81 809.334c0 27.809 22.666 50.476 50.476 50.476h183.237c27.809 0 50.478-22.666 50.478-50.476v-31.429h-284.191v31.429zM822.287 122.285c0-47.426-38.668-86.094-86.094-86.094h-404.574c-47.428 0-86.095 38.668-86.095 86.094v604.191h576.953v-604.191h-0.19zM533.904 128.38c14.285 0 25.714 11.43 25.714 25.717v454.474c0 14.286-11.429 25.714-25.714 25.714s-25.714-11.428-25.714-25.714v-454.284c0-14.287 11.428-25.907 25.714-25.907zM366.095 156.76c14.286 0 25.715 11.43 25.715 25.717v397.904c0 14.286-11.429 25.715-25.715 25.715s-25.714-11.429-25.714-25.715v-397.904c0-14.287 11.619-25.717 25.714-25.717zM701.713 156.76c14.287 0 25.717 11.43 25.717 25.717v397.904c0 14.286-11.43 25.715-25.717 25.715-14.282 0-25.712-11.429-25.712-25.715v-397.904c0-14.287 11.43-25.717 25.712-25.717z" />
<glyph unicode="&#xe914;" glyph-name="pause-1" d="M247.035-64l22.774 0.15c30.899 0 54.402 24.733 54.402 55.624v912.213M247.035-64v6.827l22.774 0.15c26.931 0 47.576 21.477 47.576 48.797v912.211l6.827 0.002M247.035-64h-0.174c-30.865 0-58.66 24.378-58.66 55.241v912.239c0 30.874 25.645 56.005 56.511 56.005l24.948 0.515M247.035-64l-0.044 6.827h-0.13c-27.636 0-51.834 21.839-51.834 48.415v912.239c0 27.023 22.508 49.178 49.684 49.178v-0.001l25.016 0.516M324.211 903.987h-6.827c-0.008 27.336-20.662 49.149-47.657 49.186M324.211 903.987c-0.008 30.874-23.504 56.013-54.552 56.013M269.659 960v-6.827c0.023 0 0.046 0 0.068 0M269.659 960l0.141-6.825-0.072-0.002M725.007-64l22.442 0.15c30.874 0 54.054 24.733 54.054 55.624v912.213M725.007-64v6.827l22.442 0.15c26.851 0 47.228 21.415 47.228 48.797v912.211l6.827 0.002M725.007-64h-0.174c-30.857 0-59.3 24.378-59.3 55.241v912.239c0 30.874 25.77 56.005 56.644 56.005l25.089 0.515M725.007-64l-0.045 6.827h-0.129c-27.727 0-52.473 21.927-52.473 48.415v912.239c0 27.003 22.613 49.178 49.818 49.178v-0.001l25.157 0.516M801.503 903.987h-6.827c-0.008 27.389-20.399 49.15-47.342 49.186M801.503 903.987c-0.008 30.874-23.189 56.013-54.237 56.013M747.266 960v-6.827c0.023 0 0.045 0 0.068 0M747.266 960l0.14-6.825-0.072-0.002" />
<glyph unicode="&#xe915;" glyph-name="pdf-1" d="M989.020 682.886l-260.878 271.078c-3.714 3.856-8.837 6.036-14.189 6.036h-388.821c-43.514 0-78.916-35.388-78.916-78.884v-275.577h-157.574c-32.556 0-59.042-26.481-59.042-59.027v-295.489c0-32.546 26.486-59.023 59.042-59.023h157.574v-177.254c0-43.421 35.402-78.746 78.916-78.746h590.474c43.517 0 78.916 35.308 78.916 78.701v654.529c0 5.092-1.973 9.986-5.502 13.656zM718.831 906.838l214.159-222.53h-214.159v222.53zM88.642 231.383c-10.84 0-19.656 8.81-19.656 19.64v295.489c0 10.831 8.818 19.64 19.656 19.64h531.766c10.837 0 19.654-8.81 19.654-19.64v-295.489c0-10.831-8.817-19.64-19.654-19.64h-531.766zM955.139 14.701c0-21.678-17.736-39.318-39.533-39.318h-590.474c-21.798 0-39.532 17.657-39.532 39.363v177.254h334.807c32.553 0 59.040 26.477 59.040 59.023v295.489c0 32.546-26.487 59.027-59.040 59.027h-334.807v275.577c0 21.782 17.734 39.5 39.532 39.5h354.313v-256c0-10.876 8.82-19.692 19.695-19.692h256v-630.223zM264.97 460.213c-6.538 8.499-14.654 14.019-24.346 16.558-6.308 1.693-19.846 2.536-40.616 2.536h-54.808v-169.151h34.154v63.805h22.27c15.462 0 27.27 0.809 35.424 2.427 6 1.307 11.904 3.98 17.712 8.018s10.596 9.595 14.366 16.674c3.77 7.076 5.654 15.807 5.654 26.191-0.002 13.462-3.272 24.443-9.81 32.942zM235.72 413.655c-2.576-3.772-6.134-6.54-10.674-8.308-4.54-1.772-13.538-2.656-27-2.656h-18.692v48.002h16.5c12.308 0 20.5-0.386 24.576-1.154 5.538-1 10.116-3.502 13.73-7.503 3.616-3.997 5.424-9.076 5.424-15.227 0.002-5.001-1.288-9.387-3.864-13.155zM438.938 433.097c-3.693 10.807-9.079 19.941-16.155 27.402s-15.578 12.653-25.501 15.578c-7.383 2.154-18.115 3.229-32.191 3.229h-62.423v-169.151h64.27c12.616 0 22.692 1.191 30.228 3.577 10.080 3.229 18.080 7.731 24.003 13.5 7.844 7.615 13.882 17.575 18.115 29.884 3.461 10.080 5.192 22.077 5.192 36 0 15.845-1.847 29.17-5.536 39.98zM405.705 363.636c-2.307-7.578-5.287-13.022-8.943-16.326-3.652-3.308-8.25-5.656-13.786-7.038-4.233-1.079-11.117-1.618-20.654-1.618h-25.501v112.039h15.347c13.923 0 23.269-0.539 28.037-1.618 6.383-1.382 11.653-4.038 15.807-7.96 4.154-3.925 7.386-9.383 9.694-16.384s3.461-17.039 3.461-30.116c0-13.076-1.154-23.402-3.461-30.979zM589.694 450.693v28.614h-115.961v-169.151h34.154v71.881h70.615v28.617h-70.615v40.038h81.807z" />
<glyph unicode="&#xe916;" d="M847.702 722.474l-223.609 232.352c-3.183 3.305-7.575 5.174-12.162 5.174h-333.275c-37.298 0-67.642-30.333-67.642-67.615v-236.209h-135.063c-27.905 0-50.608-22.698-50.608-50.594v-253.276c0-27.897 22.702-50.591 50.608-50.591h135.063v-151.932c0-37.218 30.345-67.496 67.642-67.496h506.123c37.297 0 67.643 30.264 67.643 67.458v561.025c0 4.365-1.694 8.559-4.719 11.705zM616.114 914.433l183.562-190.74h-183.562v190.74zM75.95 335.471c-9.291 0-16.848 7.551-16.848 16.835v253.276c0 9.283 7.558 16.835 16.848 16.835h455.798c9.292 0 16.846-7.551 16.846-16.835v-253.276c0-9.283-7.557-16.835-16.846-16.835h-455.798zM818.662 149.744c0-18.581-15.202-33.701-33.886-33.701h-506.12c-18.684 0-33.884 15.135-33.884 33.739v151.932h286.977c27.905 0 50.606 22.695 50.606 50.591v253.276c0 27.897-22.701 50.594-50.606 50.594h-286.977v236.209c0 18.67 15.201 33.857 33.884 33.857h303.699v-219.429c0-9.322 7.557-16.879 16.878-16.879h219.429v-540.191z" />
<glyph unicode="&#xe917;" d="M227.117 531.611c-5.604 7.285-12.56 12.016-20.868 14.193-5.407 1.451-17.011 2.174-34.814 2.174h-46.978v-144.987h29.275v54.69h19.089c13.253 0 23.374 0.693 30.363 2.080 5.143 1.121 10.203 3.411 15.182 6.873s9.082 8.224 12.314 14.292c3.231 6.065 4.846 13.549 4.846 22.449-0.001 11.539-2.804 20.951-8.409 28.236zM202.045 491.704c-2.208-3.233-5.258-5.606-9.149-7.121-3.891-1.518-11.604-2.276-23.143-2.276h-16.022v41.144h14.143c10.55 0 17.571-0.331 21.065-0.989 4.747-0.857 8.671-3.002 11.769-6.431 3.1-3.426 4.649-7.779 4.649-13.052 0.002-4.286-1.104-8.046-3.312-11.276z" />
<glyph unicode="&#xe918;" d="M376.259 508.369c-3.163 9.263-7.779 17.092-13.844 23.488s-13.353 10.846-21.858 13.353c-6.328 1.846-15.527 2.768-27.592 2.768h-53.507v-144.987h55.089c10.813 0 19.45 1.021 25.91 3.066 8.64 2.768 15.495 6.627 20.571 11.571 6.726 6.527 11.902 15.065 15.53 25.615 2.967 8.64 4.45 18.924 4.45 30.858 0 13.581-1.583 25.003-4.748 34.269zM347.777 448.831c-1.981-6.495-4.535-11.162-7.665-13.994-3.133-2.835-7.071-4.848-11.82-6.033-3.625-0.925-9.526-1.387-17.703-1.387h-21.856v96.034h13.155c11.931 0 19.945-0.462 24.032-1.387 5.471-1.185 9.988-3.461 13.549-6.823 3.561-3.365 6.328-8.043 8.309-14.043 1.978-6.001 2.967-14.605 2.967-25.814s-0.989-20.059-2.967-26.554z" />
<glyph unicode="&#xe919;" d="M505.423 523.451v24.526h-99.395v-144.987h29.275v61.613h60.527v24.529h-60.527v34.319h70.121z" />
<glyph unicode="&#xe91a;" d="M1009.371 155.429c0-113.108-91.692-204.8-204.8-204.8s-204.8 91.692-204.8 204.8c0 113.108 91.692 204.8 204.8 204.8s204.8-91.692 204.8-204.8z" />
<glyph unicode="&#xe91b;" d="M759.454 121.964c-4.804 5.304-12.733 5.451-17.706 0.328-4.977-5.123-5.114-13.578-0.31-18.888 0.102-0.111 0.205-0.217 0.31-0.328l53.105-56.656c4.886-5.225 12.815-5.234 17.712-0.026l53.128 56.686c4.974 5.123 5.111 13.578 0.307 18.885-4.807 5.304-12.733 5.454-17.706 0.328-0.105-0.108-0.208-0.219-0.31-0.328l-31.744-33.874v168.109c0 7.379-5.606 13.359-12.519 13.359-6.916 0-12.522-5.98-12.522-13.359v-168.109l-31.744 33.874z" />
<glyph unicode="&#xe91c;" glyph-name="search1" d="M56.889 489.742c0 227.925 185.444 413.369 413.369 413.369 227.94 0 413.369-185.444 413.369-413.369 0-227.94-185.429-413.369-413.369-413.369-227.925 0-413.369 185.429-413.369 413.369zM133.175 489.74c0-185.851 151.204-337.056 337.055-337.056 185.853 0 337.052 151.205 337.052 337.058 0 185.851-151.199 337.055-337.052 337.055-185.85 0-337.055-151.206-337.055-337.056zM470.258 905.956c-229.496 0-416.213-186.717-416.213-416.213h5.689c0 226.355 184.17 410.524 410.524 410.524v5.689zM886.471 489.742c0 229.496-186.704 416.213-416.213 416.213v-5.689c226.369 0 410.524-184.17 410.524-410.524h5.689zM470.258 73.529c229.51 0 416.213 186.704 416.213 416.213h-5.689c0-226.369-184.155-410.524-410.524-410.524v-5.689zM54.044 489.742c0-229.51 186.717-416.213 416.213-416.213v5.689c-226.355 0-410.524 184.155-410.524 410.524h-5.689zM470.229 155.529c-184.28 0-334.21 149.931-334.21 334.211h-5.689c0-187.421 152.478-339.9 339.899-339.9v5.689zM804.437 489.742c0-184.277-149.931-334.213-334.208-334.213v-5.689c187.423 0 339.897 152.479 339.897 339.902h-5.689zM470.229 823.952c184.277 0 334.208-149.931 334.208-334.21h5.689c0 187.422-152.474 339.899-339.897 339.899v-5.689zM136.019 489.74c0 184.28 149.931 334.212 334.21 334.212v5.689c-187.421 0-339.899-152.479-339.899-339.901h5.689zM984.348 29.582l-218.766 218.766c-14.911 14.905-39.049 14.905-53.959 0-14.905-14.894-14.905-39.060 0-53.953l218.772-218.772c7.452-7.452 17.209-11.179 26.977-11.179 9.751 0 19.524 3.726 26.977 11.179 14.905 14.894 14.905 39.060 0 53.959z" />
<glyph unicode="&#xe91d;" glyph-name="Arrow-right" horiz-adv-x="597" d="M581.115 411.953l-452.468-452.46c-10.464-10.47-24.434-16.239-39.33-16.239s-28.866 5.769-39.331 16.239l-33.321 33.314c-21.682 21.709-21.682 56.986 0 78.66l379.948 379.949-380.37 380.37c-10.465 10.473-16.243 24.434-16.243 39.322 0 14.904 5.778 28.866 16.243 39.348l33.321 33.305c10.473 10.473 24.435 16.243 39.331 16.243s28.866-5.77 39.33-16.243l452.89-452.873c10.49-10.506 16.252-24.534 16.218-39.446 0.033-14.97-5.728-28.99-16.218-39.488z" />
<glyph unicode="&#xe91e;" glyph-name="check-mark-1" d="M738.328 610.461c15.625-15.625 15.625-40.953 0-56.571l-268.344-268.351c-15.624-15.619-40.945-15.619-56.57 0l-127.742 127.749c-15.625 15.617-15.625 40.946 0 56.563 15.617 15.625 40.946 15.625 56.563 0l99.461-99.461 240.060 240.071c15.625 15.617 40.954 15.617 56.573 0zM1024 448c0-283.010-229.033-512-512-512-283.008 0-512 229.033-512 512 0 283.008 229.031 512 512 512 283.010 0 512-229.031 512-512zM944.002 448c0 238.789-193.241 432-432.002 432-238.789 0-432-193.243-432-432 0-238.791 193.243-432.002 432-432.002 238.791 0 432.002 193.241 432.002 432.002z" />
<glyph unicode="&#xe91f;" horiz-adv-x="1297" d="M1253.199 393.356c0-26.090-21.149-47.239-47.241-47.239s-47.241 21.149-47.241 47.239v299.409l-410.406-255.2c-30.775-19.134-65.277-28.703-99.779-28.703-34.504 0-69.008 9.568-99.782 28.703l-410.406 255.2v-535.609c0-52.094 42.383-94.474 94.479-94.474h831.418c52.094 0 94.474 42.38 94.474 94.474 0 26.092 21.149 47.241 47.241 47.241s47.241-21.149 47.241-47.241c0-104.189-84.767-188.955-188.955-188.955h-831.418c-104.191 0-188.958 84.767-188.958 188.955v545.619c0 104.191 84.767 188.958 188.958 188.958h831.418c104.189 0 188.955-84.767 188.955-188.958v-309.419zM598.632 517.799c30.772-19.137 69.007-19.134 99.777 0l420.884 261.709c-15.517 11.163-34.536 17.746-55.064 17.746h-831.416c-20.528 0-39.547-6.58-55.060-17.743l420.878-261.712z" />
<glyph unicode="&#xe920;" horiz-adv-x="1297" d="M1158.717 692.765h6.827v12.283l-10.431-6.486 3.604-5.797zM748.312 437.565v0zM548.751 437.565v0zM138.346 692.765l3.605 5.797-10.432 6.486v-12.283h6.827zM698.409 517.799v0zM598.632 517.799v0zM1119.293 779.508l3.604-5.797 8.656 5.384-8.274 5.955-3.987-5.542zM177.754 779.511l-3.987 5.541-8.276-5.955 8.658-5.384 3.605 5.797zM1205.958 339.29c29.86 0 54.067 24.205 54.067 54.066h-13.653c0-22.32-18.091-40.413-40.414-40.413v-13.653zM1151.891 393.356c0-29.861 24.207-54.066 54.067-54.066v13.653c-22.316 0-40.414 18.093-40.414 40.413h-13.653zM1151.891 692.765v-299.409h13.653v299.409h-13.653zM751.916 431.768l410.406 255.2-7.209 11.595-410.406-255.2 7.209-11.595zM648.533 402.036c35.772 0 71.523 9.922 103.383 29.731l-7.209 11.595c-29.682-18.459-62.94-27.673-96.174-27.673v-13.653zM545.147 431.768c31.86-19.81 67.613-29.731 103.386-29.731v13.653c-33.235 0-66.489 9.214-96.177 27.673l-7.209-11.595zM134.741 686.967l410.406-255.2 7.21 11.595-410.405 255.2-7.21-11.595zM145.172 157.157v535.609h-13.653v-535.609h13.653zM232.825 69.509c-48.325 0-87.652 39.322-87.652 87.648h-13.653c0-55.863 45.44-101.301 101.306-101.301v13.653zM1064.243 69.509h-831.418v-13.653h831.418v13.653zM1151.891 157.157c0-48.326-39.322-87.648-87.648-87.648v-13.653c55.863 0 101.301 45.438 101.301 101.301h-13.653zM1205.958 211.224c-29.86 0-54.067-24.207-54.067-54.067h13.653c0 22.323 18.097 40.414 40.414 40.414v13.653zM1260.025 157.157c0 29.86-24.207 54.067-54.067 54.067v-13.653c22.323 0 40.414-18.091 40.414-40.414h13.653zM1064.243-38.625c107.957 0 195.782 87.825 195.782 195.782h-13.653c0-100.42-81.708-182.129-182.129-182.129v-13.653zM232.825-38.625h831.418v13.653h-831.418v-13.653zM37.040 157.157c0-107.957 87.823-195.782 195.785-195.782v13.653c-100.421 0-182.132 81.708-182.132 182.129h-13.653zM37.040 702.775v-545.619h13.653v545.619h-13.653zM232.825 898.56c-107.962 0-195.785-87.823-195.785-195.785h13.653c0 100.421 81.711 182.131 182.132 182.131v13.653zM1064.243 898.56h-831.418v-13.653h831.418v13.653zM1260.025 702.775c0 107.962-87.825 195.785-195.782 195.785v-13.653c100.42 0 182.129-81.71 182.129-182.131h13.653zM1260.025 393.356v309.419h-13.653v-309.419h13.653zM694.804 523.596c-28.562-17.762-64.003-17.764-92.567 0l-7.21-11.594c32.98-20.509 74.011-20.507 106.986 0l-7.209 11.594zM1115.682 785.306l-420.878-261.71 7.209-11.594 420.884 261.709-7.216 11.595zM1064.23 790.428c19.046 0 36.68-6.102 51.070-16.46l7.98 11.083c-16.637 11.967-37.041 19.031-59.051 19.031v-13.653zM232.814 790.428h831.416v13.653h-831.416v-13.653zM181.741 773.97c14.395 10.357 32.027 16.458 51.073 16.458v13.653c-22.010 0-42.415-7.061-59.047-19.029l7.974-11.082zM602.237 523.596l-420.878 261.712-7.21-11.594 420.878-261.712 7.21 11.594z" />
<glyph unicode="&#xe921;" glyph-name="cursor-1" d="M62.131 503.002l832.542 361.76c9.761 4.242 21.122 2.081 28.649-5.443 7.522-7.525 9.681-18.886 5.441-28.646l-361.761-832.544c-4.129-9.5-13.489-15.583-23.757-15.583-0.489 0-0.977 0.014-1.471 0.042-10.831 0.614-20.136 7.913-23.31 18.288l-77.576 253.645c-17.945 58.675-63.69 104.42-122.367 122.368l-253.643 77.573c-10.376 3.174-17.677 12.479-18.29 23.315-0.613 10.831 5.589 20.902 15.542 25.227zM333.676 426.44c75.171-22.989 133.776-81.594 156.765-156.765l57.032-186.47 307.572 707.837-707.839-307.57 186.469-57.032z" />
<glyph unicode="&#xe922;" glyph-name="more1" d="M102.321 369.764c56.511 0 102.321 45.811 102.321 102.321s-45.811 102.321-102.321 102.321c-56.51 0-102.321-45.811-102.321-102.321s45.811-102.321 102.321-102.321zM511.821 369.764c56.51 0 102.321 45.811 102.321 102.321s-45.811 102.321-102.321 102.321c-56.51 0-102.321-45.811-102.321-102.321s45.811-102.321 102.321-102.321zM921.197 369.764c56.512 0 102.317 45.811 102.317 102.321s-45.805 102.321-102.317 102.321c-56.512 0-102.323-45.811-102.323-102.321s45.811-102.321 102.323-102.321z" />
<glyph unicode="&#xe923;" glyph-name="Polygon-4" d="M475.61 177.567c20.037-20.243 52.743-20.243 72.78 0l409.374 413.616c31.998 32.33 9.097 87.217-36.39 87.217h-818.747c-45.487 0-68.388-54.887-36.39-87.217l409.374-413.616z" />
<glyph unicode="&#xe924;" glyph-name="write-1" d="M967.908 5.194h-600.755c-18.423 0-33.375 14.95-33.375 33.377 0 18.421 14.952 33.371 33.375 33.371h600.755c18.421 0 33.377-14.95 33.377-33.371 0-18.426-14.956-33.377-33.377-33.377zM33.366 5.188c-8.768 0-17.266 3.425-23.589 9.791-8.189 8.186-11.522 19.979-8.898 31.238l48.506 205.818c1.426 6.042 4.49 11.566 8.898 15.929l613.609 613.61c37.746 37.783 103.777 37.873 141.602 0l62.93-62.921c18.91-18.912 29.326-44.058 29.326-70.8 0-26.751-10.416-51.937-29.326-70.8l-613.621-613.571c-4.4-4.409-9.924-7.481-15.93-8.897l-205.816-48.509c-2.575-0.626-5.158-0.887-7.692-0.887zM112.176 227.504l-33.954-144.082 144.093 33.951 606.891 606.89c6.32 6.323 9.791 14.684 9.791 23.59 0 8.898-3.47 17.307-9.791 23.581l-62.925 62.969c-12.595 12.597-34.623 12.597-47.167 0l-606.94-606.899zM239.174 87.063v0zM718.16 532.694c-8.539 0-17.084 3.251-23.58 9.794l-157.357 157.351c-13.037 13.037-13.037 34.174 0 47.211 13.045 13.045 34.181 13.045 47.22 0l157.349-157.351c13.039-13.037 13.039-34.174 0-47.211-6.542-6.543-15.081-9.794-23.632-9.794z" />
<glyph unicode="&#xe925;" glyph-name="award1" d="M811.851 830.206c0.452 13.699 0.699 27.478 0.699 41.324 0 15.596-12.643 28.235-28.232 28.235h-604.869c-15.588 0-28.235-12.64-28.235-28.235 0-13.846 0.25-27.625 0.698-41.324h-123.676c-15.596 0-28.235-12.639-28.235-28.235 0-126.515 33.066-245.874 93.103-336.103 59.346-89.198 138.397-140.362 223.795-145.338 19.36-21.064 39.823-38.243 61.139-51.345v-125.494h-47.368c-57.264 0-103.846-46.586-103.846-103.846v-47.369h-2.007c-15.596 0-28.235-12.643-28.235-28.232 0-15.595 12.64-28.238 28.235-28.238h514.132c15.595 0 28.238 12.643 28.238 28.238 0 15.589-12.643 28.232-28.238 28.232h-2.006v47.369c0 57.26-46.58 103.846-103.846 103.846h-47.369v125.494c21.317 13.095 41.785 30.28 61.145 51.345 85.39 4.975 164.442 56.139 223.798 145.338 60.037 90.228 93.094 209.588 93.094 336.103 0 15.596-12.637 28.235-28.238 28.235h-123.675zM57.066 773.735h98c10.184-128.867 40.434-247.985 87.713-342.536 7.529-15.059 15.404-29.287 23.574-42.684-46.964 17.735-90.427 54.809-126.236 108.633-49.522 74.419-78.617 171.757-83.051 276.588zM680.472 39.846v-47.375h-397.178v47.375c0 26.118 21.25 47.375 47.375 47.375h302.428c26.124 0 47.375-21.257 47.375-47.375zM434.507 244.646c15.522-4.084 31.338-6.21 47.375-6.21s31.853 2.126 47.375 6.21v-100.954h-94.75v100.954zM546.743 311.826c-1.272-0.524-2.493-1.157-3.662-1.855-19.956-9.927-40.463-15.065-61.198-15.065-20.728 0-41.228 5.138-61.176 15.053-1.184 0.711-2.412 1.343-3.699 1.879-22.139 11.704-43.559 29.383-63.816 52.611-1.066 1.522-2.265 2.926-3.596 4.206-20.11 23.875-39.029 53.243-56.309 87.801-51.89 103.772-81.86 240.221-85.272 386.838h547.733c-3.415-146.618-33.388-283.073-85.269-386.838-17.282-34.559-36.201-63.927-56.302-87.801-1.337-1.279-2.554-2.691-3.608-4.213-20.26-23.232-41.686-40.905-63.827-52.615zM697.41 388.515c8.168 13.397 16.047 27.625 23.576 42.684 47.279 94.551 77.523 213.669 87.715 342.536h97.997c-4.433-104.83-33.527-202.169-83.052-276.588-35.81-53.824-79.27-90.897-126.235-108.633zM811.851 830.206l-6.018 0.198-0.205-6.221h6.222v6.024zM870.671 465.868v0zM646.873 320.53l-0.349 6.011-2.434-0.139-1.65-1.795 4.433-4.078zM585.728 269.186l-3.153 5.132-2.87-1.765v-3.367h6.024zM585.728 143.691h-6.024v-6.024h6.024v6.024zM736.943-7.523h-6.024v-6.024h6.024v6.024zM226.823-7.523v-6.024h6.024v6.024h-6.024zM378.037 143.691v-6.024h6.024v6.024h-6.024zM378.037 269.186h6.024v3.367l-2.869 1.765-3.155-5.132zM316.897 320.53l4.435 4.078-1.65 1.795-2.434 0.139-0.351-6.011zM93.103 465.868v0zM151.912 830.206v-6.024h6.224l-0.204 6.221-6.021-0.198zM140.118 497.147v0zM57.066 773.735v6.024h-6.284l0.266-6.278 6.018 0.254zM266.353 388.515l-2.128-5.635 16.394-6.191-9.124 14.962-5.142-3.136zM242.78 431.199v0zM155.066 773.735l6.005 0.475-0.439 5.549h-5.566v-6.024zM680.472-7.529v-6.024h6.024v6.024h-6.024zM283.294-7.529h-6.023v-6.024h6.023v6.024zM434.507 143.691h-6.024v-6.024h6.024v6.024zM434.507 244.646l1.534 5.825-7.558 1.994v-7.819h6.024zM529.257 143.691v-6.024h6.024v6.024h-6.024zM529.257 244.646h6.024v7.819l-7.558-1.994 1.534-5.825zM543.081 309.971l2.691-5.409 0.399 0.241-3.089 5.168zM546.743 311.826l2.298-5.602 0.519 0.277-2.817 5.325zM420.706 309.959l-3.119-5.18 0.439-0.217 2.68 5.397zM417.007 311.838l-2.827-5.349 0.508-0.211 2.319 5.56zM353.191 364.449l-4.962-3.476 0.422-0.484 4.54 3.959zM349.595 368.654l-4.632-3.902 0.458-0.44 4.174 4.342zM293.287 456.456v0zM208.015 843.294v6.024h-6.165l0.143-6.164 6.022 0.14zM755.748 843.294l6.024-0.14 0.145 6.164h-6.168v-6.024zM614.177 368.654l4.186-4.38 0.422 0.5-4.608 3.88zM610.569 364.441l4.566-3.982 0.373 0.543-4.939 3.439zM823.645 497.147v0zM697.41 388.515l-5.144 3.136-9.12-14.962 16.396 6.191-2.132 5.635zM906.698 773.735l6.018-0.254 0.265 6.278h-6.283v-6.024zM808.701 773.735v6.024h-5.566l-0.44-5.548 6.005-0.475zM720.986 431.199v0zM935.526 836.229h-123.675v-12.047h123.675v12.047zM969.788 801.97c0 18.922-15.336 34.259-34.262 34.259v-12.047c12.27 0 22.215-9.942 22.215-22.212h12.047zM875.683 462.531c60.802 91.373 94.106 211.941 94.106 339.44h-12.047c0-125.53-32.81-243.683-92.088-332.766l10.029-6.674zM647.228 314.519c87.739 5.114 168.34 57.669 228.454 148.012l-10.029 6.674c-58.591-88.054-136.090-137.82-219.13-142.663l0.705-12.023zM588.881 264.053c21.85 13.42 42.746 30.979 62.431 52.399l-8.873 8.156c-19.034-20.715-39.087-37.527-59.865-50.29l6.307-10.264zM591.752 143.691v125.494h-12.047v-125.494h12.047zM633.097 149.715h-47.369v-12.047h47.369v12.047zM742.966 39.846c0 60.585-49.278 109.869-109.869 109.869v-12.047c53.935 0 97.822-43.893 97.822-97.822h12.047zM742.966-7.523v47.369h-12.047v-47.369h12.047zM738.949-1.5h-2.006v-12.047h2.006v12.047zM773.21-35.756c0 18.914-15.336 34.256-34.262 34.256v-12.047c12.27 0 22.209-9.945 22.209-22.209h12.053zM738.949-70.018c18.92 0 34.262 15.336 34.262 34.262h-12.053c0-12.27-9.939-22.215-22.209-22.215v-12.047zM224.816-70.018h514.132v12.047h-514.132v-12.047zM190.557-35.756c0-18.926 15.337-34.262 34.259-34.262v12.047c-12.269 0-22.212 9.945-22.212 22.215h-12.047zM224.816-1.5c-18.924 0-34.259-15.342-34.259-34.256h12.047c0 12.264 9.944 22.209 22.212 22.209v12.047zM226.823-1.5h-2.007v-12.047h2.007v12.047zM220.8 39.846v-47.369h12.046v47.369h-12.046zM330.669 149.715c-60.591 0-109.869-49.285-109.869-109.869h12.046c0 53.929 43.884 97.822 97.822 97.822v12.047zM378.037 149.715h-47.368v-12.047h47.368v12.047zM372.013 269.186v-125.494h12.047v125.494h-12.047zM312.462 316.452c19.684-21.42 40.57-38.966 62.42-52.399l6.309 10.264c-20.782 12.77-40.823 29.576-59.859 50.29l-8.87-8.156zM88.088 462.531c60.108-90.344 140.71-142.899 228.459-148.013l0.701 12.023c-83.046 4.843-160.546 54.609-219.13 142.662l-10.030-6.673zM-6.024 801.97c0-127.499 33.313-248.066 94.112-339.44l10.030 6.674c-59.275 89.083-92.094 207.235-92.094 332.766h-12.047zM28.235 836.229c-18.922 0-34.259-15.337-34.259-34.259h12.047c0 12.269 9.943 22.212 22.212 22.212v12.047zM151.912 836.229h-123.676v-12.047h123.676v12.047zM145.19 871.529c0-13.918 0.251-27.764 0.702-41.521l12.040 0.395c-0.447 13.64-0.695 27.353-0.695 41.126h-12.047zM179.449 905.788c-18.914 0-34.259-15.335-34.259-34.259h12.047c0 12.268 9.949 22.212 22.212 22.212v12.047zM784.318 905.788h-604.869v-12.047h604.869v12.047zM818.574 871.529c0 18.924-15.342 34.259-34.256 34.259v-12.047c12.264 0 22.209-9.944 22.209-22.212h12.047zM817.875 830.009c0.452 13.757 0.699 27.603 0.699 41.521h-12.047c0-13.773-0.247-27.487-0.693-41.126l12.041-0.395zM145.132 500.484c-48.809 73.347-77.652 169.572-82.048 273.506l-12.036-0.509c4.472-105.729 33.82-204.18 84.055-279.671l10.029 6.674zM268.481 394.15c-45.508 17.186-88.054 53.285-123.348 106.334l-10.030-6.673c36.324-54.598 80.704-92.647 129.123-110.931l4.256 11.27zM237.392 428.505c7.602-15.204 15.559-29.58 23.819-43.126l10.285 6.272c-8.078 13.248-15.871 27.328-23.329 42.242l-10.775-5.387zM149.061 773.261c10.23-129.459 40.632-249.366 88.331-344.756l10.775 5.387c-46.86 93.712-76.959 212.041-87.096 340.317l-12.010-0.949zM57.066 767.711h98v12.047h-98v-12.047zM686.496-7.529v47.375h-12.047v-47.375h12.047zM283.294-13.553h397.178v12.047h-397.178v-12.047zM277.271 39.846v-47.375h12.046v47.375h-12.046zM330.669 93.244c-29.452 0-53.398-23.956-53.398-53.399h12.046c0 22.793 18.554 41.352 41.352 41.352v12.047zM633.097 93.244h-302.428v-12.047h302.428v12.047zM686.496 39.846c0 29.443-23.95 53.399-53.399 53.399v-12.047c22.799 0 41.352-18.558 41.352-41.352h12.047zM440.531 143.691v100.954h-12.047v-100.954h12.047zM529.257 149.715h-94.75v-12.047h94.75v12.047zM523.234 244.646v-100.954h12.047v100.954h-12.047zM481.882 232.412c16.574 0 32.905 2.193 48.909 6.409l-3.068 11.65c-15.041-3.957-30.341-6.011-45.841-6.011v-12.047zM432.973 238.821c16.004-4.216 32.335-6.409 48.909-6.409v12.047c-15.5 0-30.8 2.054-45.841 6.011l-3.068-11.65zM546.17 304.803c0.961 0.572 1.913 1.060 2.859 1.446l-4.574 11.15c-1.597-0.657-3.087-1.434-4.464-2.259l6.179-10.336zM481.882 288.882c21.76 0 43.18 5.397 63.881 15.697l-5.366 10.782c-19.21-9.553-38.805-14.432-58.516-14.432v-12.047zM418.026 304.562c20.692-10.282 42.104-15.679 63.857-15.679v12.047c-19.703 0-39.291 4.879-58.496 14.42l-5.36-10.788zM414.688 306.278c0.991-0.41 1.956-0.91 2.909-1.482l6.217 10.318c-1.414 0.849-2.905 1.62-4.488 2.283l-4.638-11.119zM348.652 360.49c20.632-23.66 42.613-41.857 65.54-53.976l5.631 10.65c-21.352 11.288-42.21 28.449-62.092 51.245l-9.079-7.918zM345.421 364.312c1.044-1.004 1.99-2.111 2.836-3.32l9.867 6.912c-1.285 1.835-2.737 3.537-4.354 5.092l-8.349-8.685zM287.899 453.762c17.45-34.9 36.618-64.684 57.089-88.988l9.214 7.761c-19.749 23.447-38.42 52.397-55.529 86.615l-10.775-5.387zM201.993 843.154c3.427-147.272 33.527-284.641 85.906-389.392l10.775 5.387c-51.4 102.793-81.241 238.322-84.638 384.285l-12.043-0.281zM755.748 849.318h-547.733v-12.047h547.733v12.047zM675.864 453.762c52.375 104.744 82.474 242.119 85.908 389.392l-12.041 0.281c-3.409-145.963-33.25-281.499-84.643-384.285l10.776-5.387zM618.785 364.775c20.462 24.303 39.629 54.087 57.079 88.987l-10.776 5.387c-17.107-34.217-35.78-63.169-55.519-86.615l9.216-7.76zM615.508 361.002c0.825 1.185 1.777 2.292 2.831 3.299l-8.325 8.708c-1.626-1.552-3.102-3.268-4.391-5.127l9.885-6.879zM549.56 306.501c22.925 12.125 44.913 30.316 65.545 53.982l-9.077 7.917c-19.882-22.806-40.747-39.955-62.101-51.255l5.634-10.644zM818.634 500.484c-35.298-53.049-77.842-89.148-123.35-106.334l4.259-11.27c48.417 18.284 92.798 56.333 129.12 110.931l-10.029 6.673zM900.68 773.99c-4.397-103.934-33.238-200.158-82.046-273.506l10.029-6.674c50.236 75.49 79.583 173.942 84.052 279.671l-12.035 0.509zM808.701 767.711h97.997v12.047h-97.997v-12.047zM726.371 428.505c47.7 95.39 78.095 215.297 88.329 344.756l-12.005 0.95c-10.144-128.277-40.237-246.606-87.1-340.318l10.776-5.387zM702.554 385.379c8.258 13.546 16.215 27.922 23.817 43.126l-10.776 5.387c-7.457-14.914-15.246-28.994-23.329-42.242l10.288-6.272z" />
<glyph unicode="&#xe926;" glyph-name="book" d="M500.512 66.833c7.231-3.579 15.745-3.579 22.977 0 74.201 36.762 147.5 49.22 212.758 49.22 87.24 0 160.124-22.26 201.66-38.483 17.208-6.719 37.332 5.837 37.332 24.313v641.629c0 8.964-4.901 17.256-12.922 21.264-73.094 36.542-145.769 48.938-210.72 48.938-109.641-0.001-197.291-35.317-227.889-49.403-7.426-3.418-15.989-3.418-23.415-0.001-30.602 14.085-118.259 49.398-227.89 49.404-64.959 0.002-137.613-12.389-210.72-48.938-8.018-4.008-12.92-12.3-12.92-21.264v-641.629c0-18.476 20.12-31.032 37.328-24.313 41.541 16.223 114.432 38.483 201.663 38.483 65.268 0 138.546-12.449 212.758-49.22zM917.333 721.91v-575.907c-46.675 14.434-109.5 27.955-181.087 27.955-68.262 0-133.549-12.917-195.291-37.001v571.414c12.737 6.33 99.728 47.436 210.642 47.436 58.534 0 114.132-11.388 165.737-33.898zM106.667 721.91c51.612 22.515 107.206 33.902 165.731 33.898 111.2-0.007 198.406-41.338 210.649-47.43v-571.425c-61.743 24.088-127.035 37.005-195.293 37.005-71.575 0-134.413-13.527-181.087-27.965v575.917z" />
<glyph unicode="&#xe927;" d="M130.246-10.105h763.507c41.995 0 76.353 34.358 76.353 76.353v648.98c0 41.993-34.358 76.351-76.353 76.351h-76.347v76.351c0 22.905-15.274 38.175-38.179 38.175s-38.174-15.27-38.174-38.175v-76.351h-190.879v76.351c0 22.905-15.268 38.175-38.174 38.175s-38.175-15.27-38.175-38.175v-76.351h-190.877v76.351c0 22.905-15.27 38.175-38.175 38.175s-38.176-15.27-38.176-38.175v-76.351h-76.351c-41.993 0-76.351-34.358-76.351-76.351v-648.98c0-41.995 34.358-76.353 76.351-76.353zM893.753 715.228v-190.877h-763.507v190.877h76.351v-38.175c0-22.905 15.271-38.175 38.176-38.175s38.175 15.27 38.175 38.175v38.175h190.877v-38.175c0-22.905 15.27-38.175 38.175-38.175s38.174 15.27 38.174 38.175v38.175h190.879v-38.175c0-22.905 15.268-38.175 38.174-38.175s38.179 15.27 38.179 38.175v38.175h76.347zM130.246 66.247v381.753h763.507v-381.753h-763.507z" />
<glyph unicode="&#xe928;" d="M206.596 791.579v-5.389h5.389v5.389h-5.389zM282.947 791.579h-5.389v-5.389h5.389v5.389zM473.825 791.579v-5.389h5.389v5.389h-5.389zM550.174 791.579h-5.389v-5.389h5.389v5.389zM741.053 791.579v-5.389h5.389v5.389h-5.389zM817.405 791.579h-5.389v-5.389h5.389v5.389zM817.405 715.228v5.389h-5.389v-5.389h5.389zM893.753 715.228h5.389v5.389h-5.389v-5.389zM741.053 715.228h5.389v5.389h-5.389v-5.389zM550.174 715.228v5.389h-5.389v-5.389h5.389zM473.825 715.228h5.389v5.389h-5.389v-5.389zM282.947 715.228v5.389h-5.389v-5.389h5.389zM206.596 715.228h5.389v5.389h-5.389v-5.389zM130.246 715.228v5.389h-5.389v-5.389h5.389zM130.246 524.351h-5.389v-5.389h5.389v5.389zM893.753 524.351v-5.389h5.389v5.389h-5.389zM130.246 448v5.389h-5.389v-5.389h5.389zM130.246 66.247h-5.389v-5.389h5.389v5.389zM893.753 448h5.389v5.389h-5.389v-5.389zM893.753 66.247v-5.389h5.389v5.389h-5.389zM48.505 66.247c0-44.97 36.771-81.742 81.741-81.742v10.779c-39.017 0-70.962 31.943-70.962 70.963h-10.779zM48.505 448v-381.753h10.779v381.753h-10.779zM48.505 524.351v-76.351h10.779v76.351h-10.779zM48.505 715.228v-190.877h10.779v190.877h-10.779zM130.246 796.968c-44.97 0-81.741-36.771-81.741-81.741h10.779c0 39.017 31.945 70.962 70.962 70.962v10.779zM206.596 796.968h-76.351v-10.779h76.351v10.779zM201.207 867.93v-76.351h10.779v76.351h-10.779zM244.772 911.495c-12.678 0-23.661-4.249-31.489-12.077s-12.077-18.811-12.077-31.488h10.779c0 10.228 3.386 18.332 8.92 23.866s13.638 8.92 23.866 8.92v10.779zM288.337 867.93c0 12.677-4.249 23.66-12.077 31.488s-18.811 12.077-31.488 12.077v-10.779c10.228 0 18.332-3.386 23.866-8.92s8.92-13.639 8.92-23.866h10.779zM288.337 791.579v76.351h-10.779v-76.351h10.779zM473.825 796.968h-190.877v-10.779h190.877v10.779zM468.435 867.93v-76.351h10.779v76.351h-10.779zM512 911.495c-12.677 0-23.661-4.249-31.488-12.077s-12.077-18.811-12.077-31.488h10.779c0 10.228 3.386 18.332 8.92 23.866s13.638 8.92 23.866 8.92v10.779zM555.563 867.93c0 12.677-4.247 23.66-12.072 31.488-7.83 7.827-18.814 12.077-31.491 12.077v-10.779c10.228 0 18.332-3.386 23.866-8.92s8.918-13.639 8.918-23.866h10.779zM555.563 791.579v76.351h-10.779v-76.351h10.779zM741.053 796.968h-190.879v-10.779h190.879v10.779zM735.663 867.93v-76.351h10.779v76.351h-10.779zM779.226 911.495c-12.676 0-23.66-4.249-31.485-12.077-7.831-7.828-12.078-18.811-12.078-31.488h10.779c0 10.228 3.385 18.332 8.92 23.866s13.641 8.92 23.865 8.92v10.779zM822.795 867.93c0 12.677-4.252 23.66-12.078 31.488-7.831 7.827-18.809 12.077-31.491 12.077v-10.779c10.229 0 18.335-3.386 23.87-8.92 5.53-5.534 8.92-13.639 8.92-23.866h10.779zM822.795 791.579v76.351h-10.779v-76.351h10.779zM893.753 796.968h-76.347v-10.779h76.347v10.779zM975.495 715.228c0 44.97-36.772 81.741-81.742 81.741v-10.779c39.020 0 70.963-31.945 70.963-70.962h10.779zM975.495 524.351v190.877h-10.779v-190.877h10.779zM975.495 448v76.351h-10.779v-76.351h10.779zM975.495 66.247v381.753h-10.779v-381.753h10.779zM893.753-15.495c44.97 0 81.742 36.772 81.742 81.742h-10.779c0-39.020-31.943-70.963-70.963-70.963v-10.779zM130.246-15.495h763.507v10.779h-763.507v-10.779zM817.405 709.838h76.347v10.779h-76.347v-10.779zM822.795 677.053v38.175h-10.779v-38.175h10.779zM779.226 633.488c12.681 0 23.665 4.249 31.491 12.077s12.078 18.811 12.078 31.488h-10.779c0-10.228-3.39-18.332-8.92-23.866-5.535-5.534-13.641-8.92-23.87-8.92v-10.779zM735.663 677.053c0-12.677 4.247-23.661 12.078-31.488 7.826-7.828 18.809-12.077 31.485-12.077v10.779c-10.224 0-18.33 3.386-23.865 8.92s-8.92 13.638-8.92 23.866h-10.779zM735.663 715.228v-38.175h10.779v38.175h-10.779zM550.174 709.838h190.879v10.779h-190.879v-10.779zM555.563 677.053v38.175h-10.779v-38.175h10.779zM512 633.488c12.677 0 23.661 4.249 31.491 12.077 7.826 7.827 12.072 18.811 12.072 31.488h-10.779c0-10.228-3.385-18.332-8.918-23.866s-13.638-8.92-23.866-8.92v-10.779zM468.435 677.053c0-12.677 4.249-23.661 12.077-31.488s18.811-12.077 31.488-12.077v10.779c-10.228 0-18.332 3.386-23.866 8.92s-8.92 13.638-8.92 23.866h-10.779zM468.435 715.228v-38.175h10.779v38.175h-10.779zM282.947 709.838h190.877v10.779h-190.877v-10.779zM288.337 677.053v38.175h-10.779v-38.175h10.779zM244.772 633.488c12.677 0 23.66 4.249 31.488 12.077s12.077 18.811 12.077 31.488h-10.779c0-10.228-3.386-18.332-8.92-23.866s-13.639-8.92-23.866-8.92v-10.779zM201.207 677.053c0-12.677 4.25-23.661 12.077-31.488s18.811-12.077 31.489-12.077v10.779c-10.228 0-18.332 3.386-23.866 8.92s-8.92 13.638-8.92 23.866h-10.779zM201.207 715.228v-38.175h10.779v38.175h-10.779zM130.246 709.838h76.351v10.779h-76.351v-10.779zM135.635 524.351v190.877h-10.779v-190.877h10.779zM893.753 529.741h-763.507v-10.779h763.507v10.779zM888.363 715.228v-190.877h10.779v190.877h-10.779zM124.856 448v-381.753h10.779v381.753h-10.779zM893.753 453.389h-763.507v-10.779h763.507v10.779zM899.142 66.247v381.753h-10.779v-381.753h10.779zM130.246 60.858h763.507v10.779h-763.507v-10.779z" />
<glyph unicode="&#xe929;" glyph-name="clock" d="M974.799 738.169c34.132 34.128 34.132 93.851 0 132.245l-63.989 63.99c-38.395 34.128-98.115 34.128-132.242 0l-34.132-34.128 196.236-196.235 34.126 34.128zM915.079 448.083c0 234.629-191.968 426.597-426.598 426.597-234.629 0-426.598-191.969-426.598-426.597s191.969-426.595 426.598-426.595c234.63 0 426.598 191.968 426.598 426.595zM134.327 448.077c0 196.235 157.842 354.076 354.076 354.076 196.238 0 354.074-157.841 354.074-354.076 0-196.237-157.836-354.073-354.074-354.073-196.235 0-354.076 157.836-354.076 354.073zM548.099 281.708c21.326-8.532 46.926-4.263 55.458 17.068 8.532 21.326 4.263 46.926-17.068 59.721l-59.721 46.926v170.639c0 25.596-17.064 42.66-42.66 42.66s-42.659-17.064-42.659-42.66v-170.639c-8.532-21.332-4.266-46.926 17.064-59.721l89.588-63.995zM27.701 866.125l59.724 59.724c34.128 34.128 85.32 34.128 119.447 0l29.861-29.862-179.171-179.171-29.862 29.862c-34.128 34.128-34.128 85.32 0 119.447zM164.178 106.803l-46.926-76.784c-21.33-29.863-8.532-68.258 21.33-85.321s68.256-8.532 85.319 21.332l51.192 38.395-110.915 102.378zM829.726-42.496c-29.858-17.068-68.252-8.532-85.315 21.326l-51.195 38.395 110.915 106.652 46.926-81.058c17.063-29.858 8.532-68.252-21.332-85.315z" />
<glyph unicode="&#xe92a;" glyph-name="clock2" d="M0 448c0 281.6 230.4 512 512 512s512-230.4 512-512c0-281.6-230.4-512-512-512s-512 230.4-512 512zM85.333 448c0-234.669 192-426.669 426.667-426.669 234.669 0 426.669 192 426.669 426.669 0 234.667-192 426.667-426.669 426.667-234.667 0-426.667-192-426.667-426.667zM725.376 490.669h-170.668v256c0 25.6-17.067 42.666-42.667 42.666s-42.667-17.066-42.667-42.666v-298.667c0-25.6 17.067-42.667 42.667-42.667h213.334c25.6 0 42.669 17.067 42.669 42.667s-17.069 42.667-42.669 42.667z" />
<glyph unicode="&#xe92b;" glyph-name="folder" d="M605.868 708.732h217.056c81.112 0 147.181-63.197 147.181-141.005v-355.802c0-77.808-66.070-141.188-147.181-141.188h-621.849c-81.111 0-147.18 63.38-147.18 141.188v472.15c0 77.808 66.069 141.188 147.18 141.188h283.317c14.28 0 25.704-10.959 25.704-24.658 0-50.776 43.031-91.873 95.773-91.873zM821.022 124.632c52.612 0 95.189 40.712 95.189 90.613v350.573c0 50.082-42.765 90.615-95.189 90.615h-215.73c-71.908 0-131.896 49.721-144.007 114.935h-258.309c-52.608 0-95.186-40.714-95.186-90.615v-465.508c0-50.079 42.768-90.613 95.186-90.613h618.046zM461.285 771.368l5.299 0.984-0.818 4.405h-4.481v-5.389zM822.924 714.122h-217.056v-10.779h217.056v10.779zM975.495 567.727c0 81.003-68.705 146.395-152.571 146.395v-10.779c78.358 0 141.792-61.002 141.792-135.616h10.779zM975.495 211.925v355.802h-10.779v-355.802h10.779zM822.924 65.347c83.876 0 152.571 65.585 152.571 146.578h-10.779c0-74.623-63.445-135.799-141.792-135.799v-10.779zM201.075 65.347h621.849v10.779h-621.849v-10.779zM48.505 211.925c0-80.993 68.695-146.578 152.57-146.578v10.779c-78.348 0-141.791 61.176-141.791 135.799h-10.779zM48.505 684.075v-472.15h10.779v472.15h-10.779zM201.075 830.653c-83.874 0-152.57-65.583-152.57-146.578h10.779c0 74.623 63.443 135.799 141.791 135.799v10.779zM484.392 830.653h-283.317v-10.779h283.317v10.779zM515.485 800.605c0 16.884-14.050 30.047-31.093 30.047v-10.779c11.517 0 20.315-8.755 20.315-19.268h10.779zM605.868 714.122c-49.987 0-90.383 38.899-90.383 86.483h-10.779c0-53.969 45.667-97.262 101.162-97.262v10.779zM910.821 215.245c0-46.684-39.92-85.224-89.799-85.224v-10.779c55.339 0 100.578 42.884 100.578 96.003h-10.779zM910.821 565.818v-350.573h10.779v350.573h-10.779zM821.022 651.044c49.707 0 89.799-38.374 89.799-85.226h10.779c0 53.312-45.439 96.005-100.578 96.005v-10.779zM605.292 651.044h215.73v10.779h-215.73v-10.779zM455.986 770.384c12.61-67.899 74.938-119.341 149.306-119.341v10.779c-69.448 0-127.096 48.001-138.708 110.53l-10.598-1.968zM202.976 765.979h258.309v10.779h-258.309v-10.779zM113.179 680.753c0 46.685 39.919 85.226 89.797 85.226v10.779c-55.339 0-100.576-42.887-100.576-96.005h10.779zM113.179 215.245v465.508h-10.779v-465.508h10.779zM202.976 130.021c-49.702 0-89.797 38.373-89.797 85.224h-10.779c0-53.307 45.441-96.003 100.576-96.003v10.779zM821.022 130.021h-618.046v-10.779h618.046v10.779z" />
<glyph unicode="&#xe92c;" glyph-name="Home" d="M512 960c21.333 0 42.667-8.533 59.733-25.6l452.267-469.333v-443.736c0-46.931-38.4-85.331-85.331-85.331h-853.336c-46.933 0-85.333 38.4-85.333 85.331v443.736l452.267 469.333c17.066 17.067 38.4 25.6 59.733 25.6zM115.2 422.4v-384h800v384l-400 416-400-416z" />
<glyph unicode="&#xe92d;" glyph-name="justice-scale-1" d="M167.823 656.781l102.121-162.052c6.149-9.755 19.044-12.68 28.799-6.53 9.757 6.147 12.68 19.044 6.534 28.799l-137.454 139.783zM167.823 656.781l1.306 2.072-4.332 2.73-4.332-2.73 1.306-2.072-102.124-162.052c-3.969-6.294-10.754-9.746-17.686-9.746-3.804 0-7.653 1.035-11.113 3.216l136.974 168.582zM548.669 86.948v-5.12h73.037c36.096 0 65.669-27.93 68.291-63.355h-355.935c2.619 35.425 32.195 63.36 68.291 63.36h73.036v632.67h-300.629l126.186-200.234c4.64-7.364 2.432-17.099-4.931-21.737l-0.002-0.002c-7.362-4.642-17.096-2.435-21.737 4.929l-109.478 173.727-109.48-173.726c-2.992-4.745-8.107-7.357-13.356-7.357-2.87 0-5.766 0.778-8.381 2.427l-0.002 0.001c-7.362 4.638-9.57 14.374-4.929 21.737v0.001l126.188 200.234h-10.81c-15.050 0-27.248 12.2-27.248 27.245 0 15.043 12.199 27.243 27.248 27.243h240.787l1.526 2.22c12.798 18.62 31.686 32.71 53.782 39.396l3.313 1.002 0.304 3.448c3.090 35.005 32.477 62.46 68.286 62.46s65.198-27.454 68.285-62.459l0.307-3.448 3.313-1.002c22.093-6.686 40.98-20.776 53.78-39.396l1.526-2.22h240.788c15.048 0 27.244-12.199 27.244-27.243s-12.196-27.245-27.244-27.245h-10.808l126.182-200.234c4.639-7.365 2.432-17.1-4.925-21.737l-0.005-0.001c-7.357-4.641-17.096-2.435-21.734 4.929l-109.476 173.727-109.481-173.726c0-0.001 0-0.001 0-0.002-2.995-4.744-8.105-7.355-13.353-7.355-2.872 0-5.77 0.778-8.381 2.427l-0.005 0.002c-7.363 4.638-9.569 14.374-4.931 21.736v0.001l126.188 200.234h-300.626v-627.555zM318.408 462.813h-307.278c-6.146 0-11.13-4.982-11.13-11.13 0-90.855 73.915-164.768 164.77-164.768 90.853 0 164.771 73.912 164.771 164.768-0.003 6.146-4.986 11.13-11.133 11.13zM1012.905 462.813h-307.277c-6.144 0-11.126-4.982-11.126-11.13 0-90.855 73.912-164.768 164.772-164.768 90.849 0 164.767 73.912 164.767 164.768-0.005 6.146-4.987 11.13-11.136 11.13z" />
<glyph unicode="&#xe92e;" glyph-name="list1" d="M766.286 779.003c51.486-0.555 93.61-41.584 96.030-93.54v-661.701c0-50.812-45.73-87.762-96.030-87.762h-562.465c-50.302 0-96.031 36.95-96.031 87.762v661.703c2.42 51.955 44.543 92.984 96.031 93.538h86.886v39.263c0 12.703 12.576 18.476 25.151 18.476h66.307c15.385 42.994 56.521 71.006 101.747 69.288 45.729 0 85.742-23.096 101.746-69.288h67.449c12.574 0 26.295-5.773 26.295-18.476v-39.263h86.884zM336.434 790.55v-92.384h297.24v92.384h-65.165c-11.416 0.864-20.814 9.407-22.864 20.786-6.295 29.603-31.773 51.049-61.733 51.966-30.241-0.805-56.108-22.183-62.878-51.966-1.93-10.999-10.746-19.433-21.722-20.786h-62.878zM766.286-17.812c25.147 0 50.3 16.168 50.3 41.574v0 661.703c-2.334 26.445-24.026 46.86-50.305 47.346h-86.884v-58.897c-1.762-13.119-13.204-22.665-26.29-21.942h-337.251c-12.849-0.676-23.943 9.003-25.151 21.942v58.895h-86.884c-26.28-0.484-47.97-20.901-50.302-47.346v-661.701c0-25.406 25.151-41.574 50.302-41.574h562.465zM679.402 779.003h-5.389v-5.389h5.389v5.389zM766.286 779.003l0.059 5.389h-0.059v-5.389zM585.658 836.742l-5.093-1.765 1.256-3.625h3.836v5.389zM483.912 906.030l-0.205-5.389h0.205v5.389zM382.165 836.742v-5.389h3.795l1.279 3.574-5.074 1.816zM290.707 779.003v-5.389h5.389v5.389h-5.389zM203.821 779.003v5.39l-0.058-0.001 0.058-5.389zM107.789 685.465l-5.389 0.251v-0.251h5.389zM862.316 685.463h5.395l-0.011 0.251-5.384-0.251zM399.311 790.55v-5.43l0.659 0.081-0.659 5.349zM336.434 790.55v5.389h-5.389v-5.389h5.389zM421.034 811.336l-5.262 1.196-0.047-0.265 5.309-0.932zM483.912 863.302l0.165 5.396-0.308-0.009 0.143-5.387zM545.645 811.336l5.306 0.956-0.035 0.165-5.271-1.121zM568.509 790.55l-0.408-5.389h0.408v5.389zM633.674 790.55h5.389v5.389h-5.389v-5.389zM633.674 698.166v-5.389h5.389v5.389h-5.389zM336.434 698.166h-5.389v-5.389h5.389v5.389zM816.586 23.762h5.389v5.389h-5.389v-5.389zM816.586 23.762h-5.389v-5.389h5.389v5.389zM816.586 685.465h5.411l-0.043 0.474-5.368-0.474zM766.281 732.811l0.102 5.389h-0.102v-5.389zM679.397 732.811v5.389h-5.389v-5.389h5.389zM679.397 673.914l5.389-0.725v0.725h-5.389zM653.107 651.972l0.296 5.389h-0.296v-5.389zM315.856 651.972v5.397l-0.283-0.015 0.283-5.382zM290.705 673.914h-5.413l0.047-0.501 5.366 0.501zM290.705 732.809h5.389v5.389h-5.389v-5.389zM203.821 732.809v5.391l-0.1-0.002 0.1-5.388zM153.518 685.463l-5.389 0.475v-0.475h5.389zM679.402 773.614h86.884v10.779h-86.884v-10.779zM674.013 818.266v-39.263h10.779v39.263h-10.779zM653.107 831.353c5.578 0 11.118-1.299 15.069-3.694 3.789-2.297 5.837-5.351 5.837-9.393h10.779c0 8.661-4.818 14.845-11.027 18.611-6.052 3.668-13.662 5.255-20.658 5.255v-10.779zM585.658 831.353h67.449v10.779h-67.449v-10.779zM483.912 900.641c43.805 0 81.516-21.973 96.654-65.663l10.185 3.529c-16.871 48.694-59.186 72.913-106.839 72.913v-10.779zM387.239 834.926c14.603 40.807 53.621 67.346 96.468 65.718l0.409 10.771c-47.604 1.808-90.858-27.677-107.025-72.858l10.148-3.631zM315.858 831.353h66.307v10.779h-66.307v-10.779zM296.097 818.266c0 4.248 1.97 7.274 5.385 9.468 3.613 2.322 8.805 3.618 14.377 3.618v10.779c-7.004 0-14.387-1.59-20.206-5.33-6.017-3.868-10.335-10.081-10.335-18.535h10.779zM296.097 779.003v39.263h-10.779v-39.263h10.779zM203.821 773.614h86.886v10.779h-86.886v-10.779zM113.173 685.214c2.289 49.148 42.12 87.876 90.705 88.4l-0.116 10.778c-54.391-0.586-98.806-43.916-101.357-98.677l10.767-0.501zM113.179 23.762v661.703h-10.779v-661.703h10.779zM203.821-58.611c-47.995 0-90.642 35.166-90.642 82.373h-10.779c0-54.412 48.811-93.152 101.421-93.152v10.779zM766.286-58.611h-562.465v-10.779h562.465v10.779zM856.926 23.762c0-47.206-42.647-82.373-90.64-82.373v-10.779c52.607 0 101.419 38.74 101.419 93.152h-10.779zM856.926 685.463v-661.701h10.779v661.701h-10.779zM766.227 773.614c48.586-0.524 88.414-39.252 90.705-88.402l10.768 0.501c-2.549 54.764-46.964 98.093-101.354 98.679l-0.119-10.778zM399.311 795.94h-62.878v-10.779h62.878v10.779zM415.725 812.268c-1.526-8.695-8.48-15.31-17.073-16.369l1.318-10.698c13.359 1.646 24.037 11.902 26.371 25.204l-10.617 1.863zM483.768 868.689c-32.737-0.871-60.681-24.008-67.99-56.158l10.511-2.389c6.232 27.414 30.020 47.034 57.766 47.772l-0.287 10.775zM550.916 812.457c-6.805 31.998-34.363 55.237-66.84 56.232l-0.33-10.774c27.445-0.841 50.841-20.491 56.627-47.7l10.543 2.242zM568.916 795.924c-8.934 0.676-16.346 7.371-17.967 16.368l-10.608-1.912c2.48-13.761 13.864-24.152 27.762-25.204l0.814 10.748zM633.674 795.94h-65.165v-10.779h65.165v10.779zM639.063 698.166v92.384h-10.779v-92.384h10.779zM336.434 692.776h297.24v10.779h-297.24v-10.779zM331.044 790.55v-92.384h10.779v92.384h-10.779zM811.197 23.762c0-10.741-5.26-19.65-13.603-26.031-8.418-6.44-19.817-10.154-31.307-10.154v-10.779c13.657 0 27.411 4.376 37.856 12.369 10.52 8.052 17.834 19.93 17.834 34.595h-10.779zM816.586 18.373v0 0zM811.197 685.465v-661.703h10.779v661.703h-10.779zM766.184 727.423c23.482-0.434 42.938-18.687 45.034-42.431l10.736 0.947c-2.571 29.146-26.495 51.723-55.571 52.261l-0.199-10.777zM679.397 727.422h86.884v10.779h-86.884v-10.779zM684.787 673.914v58.897h-10.779v-58.897h10.779zM652.805 646.59c15.942-0.88 29.798 10.743 31.933 26.605l-10.682 1.438c-1.396-10.375-10.423-17.845-20.652-17.28l-0.598-10.763zM315.856 646.582h337.251v10.779h-337.251v-10.779zM285.339 673.413c1.472-15.771 15.016-27.654 30.801-26.823l-0.567 10.764c-9.913-0.522-18.558 6.953-19.501 17.061l-10.733-1.001zM285.316 732.809v-58.895h10.779v58.895h-10.779zM203.821 727.419h86.884v10.779h-86.884v-10.779zM158.887 684.989c2.094 23.744 21.551 41.999 45.033 42.431l-0.199 10.777c-29.078-0.536-53-23.115-55.571-52.261l10.737-0.947zM158.908 23.762v661.701h-10.779v-661.701h10.779zM203.821-12.423c-11.491 0-22.892 3.713-31.307 10.154-8.342 6.381-13.605 15.29-13.605 26.031h-10.779c0-14.665 7.312-26.543 17.833-34.595 10.448-7.993 24.198-12.369 37.858-12.369v10.779zM766.286-12.423h-562.465v-10.779h562.465v10.779zM371.007 361.273c-7.63 7.464-20.296 7.885-28.48 0.943l-65.096-57.549-27.462 26.419c-7.629 7.459-20.296 7.879-28.48 0.943-7.879-7.658-7.879-19.709 0-27.362l41.701-39.629c3.609-3.751 8.823-5.821 14.239-5.659 5.366 0.070 10.484 2.102 14.24 5.659l79.335 69.821c7.865 6.688 8.391 18.033 1.174 25.325-0.37 0.383-0.762 0.744-1.17 1.089zM730.575 367.158h-275.464c-13.23 0-23.954-12.062-23.954-26.947s10.724-26.947 23.954-26.947h275.464c13.226 0 23.951 12.062 23.951 26.947s-10.725 26.947-23.951 26.947zM371.007 576.854c-7.63 7.46-20.296 7.88-28.48 0.943l-65.096-57.553-27.462 26.419c-7.629 7.46-20.296 7.881-28.48 0.943-7.879-7.657-7.879-19.704 0-27.361l41.701-39.627c3.609-3.749 8.823-5.822 14.239-5.662 5.366 0.071 10.484 2.106 14.24 5.662l79.335 69.818c7.865 6.693 8.391 18.034 1.174 25.328-0.37 0.381-0.762 0.744-1.17 1.091zM730.575 528.842h-275.464c-13.23 0-23.954-12.064-23.954-26.947s10.724-26.947 23.954-26.947h275.464c13.226 0 23.951 12.064 23.951 26.947s-10.725 26.947-23.951 26.947zM371.007 199.594c-7.63 7.459-20.296 7.879-28.48 0.938l-65.096-57.549-27.462 26.419c-7.629 7.459-20.296 7.879-28.48 0.943-7.879-7.658-7.879-19.704 0-27.362l41.701-39.629c3.609-3.751 8.823-5.821 14.239-5.659 5.366 0.070 10.484 2.102 14.24 5.659l79.335 69.821c7.865 6.688 8.391 18.033 1.174 25.325-0.37 0.383-0.762 0.744-1.17 1.094zM730.575 151.579h-275.464c-13.23 0-23.954-12.062-23.954-26.947s10.724-26.947 23.954-26.947h275.464c13.226 0 23.951 12.062 23.951 26.947s-10.725 26.947-23.951 26.947z" />
<glyph unicode="&#xe92f;" glyph-name="money" d="M654.222 337.442c-32.865 0-59.597 19.826-59.597 44.186 0 24.368 26.732 44.19 59.597 44.19s59.597-19.822 59.597-44.19c0-12.811 12.134-23.205 27.090-23.205 14.962 0 27.090 10.394 27.090 23.205 0 42.526-36.989 78.281-86.687 87.986v12.070c0 12.814-12.129 23.206-27.090 23.206s-27.090-10.391-27.090-23.206v-12.070c-49.698-9.705-86.687-45.46-86.687-87.986 0-49.954 51.041-90.596 113.778-90.596 32.865 0 59.597-19.82 59.597-44.186s-26.732-44.191-59.597-44.191c-32.865 0-59.597 19.826-59.597 44.191 0 12.811-12.134 23.205-27.091 23.205-14.959 0-27.090-10.394-27.090-23.205 0-42.524 36.989-78.279 86.687-87.984v-10.030c0-12.811 12.129-23.205 27.090-23.205s27.090 10.394 27.090 23.205v10.030c49.698 9.705 86.687 45.46 86.687 87.984 0 49.954-51.041 90.596-113.778 90.596zM723.376 646.55c3.282-4.845 6.098-10.069 8.397-15.611 135.549-38.063 235.338-164.019 235.338-313.128 0-179.16-144.048-324.921-321.109-324.921-92.441 0-175.866 39.743-234.508 103.214h-222.605c-47.91 0-86.889 39.441-86.889 87.916 0 27.841 12.871 52.685 32.895 68.807-20.024 16.117-32.895 40.966-32.895 68.807s12.871 52.685 32.895 68.807c-20.024 16.118-32.895 40.962-32.895 68.804s12.871 52.686 32.895 68.806c-20.024 16.12-32.895 40.965-32.895 68.806 0 48.478 38.979 87.92 86.889 87.92h49.262c-9.618 14.147-15.262 31.263-15.262 49.693s5.646 35.546 15.262 49.694h-151.262c-47.91 0-86.889 39.441-86.889 87.919s38.979 87.919 86.889 87.919h462.777c47.912 0 86.887-39.441 86.887-87.919 0-18.431-5.643-35.546-15.258-49.694h151.262c47.906 0 86.886-39.441 86.886-87.919s-38.98-87.919-86.886-87.919h-49.18zM821.663 734.469c0 27.4-22.027 49.694-49.106 49.694h-462.78c-27.081 0-49.111-22.294-49.111-49.694s22.030-49.694 49.111-49.694h462.78c27.079 0 49.106 22.294 49.106 49.694zM86.889 822.387c-27.081 0-49.111 22.294-49.111 49.694s22.030 49.693 49.111 49.693h462.777c27.080 0 49.113-22.293 49.113-49.693s-22.033-49.694-49.113-49.694h-462.777zM651.668 646.55h-462.779c-27.079 0-49.111-22.293-49.111-49.694s22.032-49.693 49.111-49.693h229.881c58.166 59.001 138.557 95.562 227.232 95.562 9.125 0 18.159-0.409 27.090-1.168-6.531 3.203-13.818 4.993-21.424 4.993zM188.889 508.937h197.605c-21.443-29.726-38.021-63.254-48.55-99.387h-149.056c-27.081 0-49.111 22.291-49.111 49.694 0 27.4 22.030 49.693 49.111 49.693zM329.271 371.325h-140.382c-27.081 0-49.111-22.289-49.111-49.692s22.030-49.692 49.111-49.692h139.216c-2.102 14.99-3.215 30.299-3.215 45.87 0 18.227 1.515 36.096 4.38 53.515zM188.889 134.326c-27.081 0-49.111 22.289-49.111 49.692s22.030 49.692 49.111 49.692h146.929c9.531-35.954 25.015-69.467 45.32-99.385h-192.249zM362.668 317.81c0-158.083 127.103-286.697 283.334-286.697 156.228 0 283.329 128.614 283.329 286.697 0 158.079-127.101 286.69-283.329 286.69-156.231 0-283.334-128.61-283.334-286.69zM731.773 630.938l-10.513-4.359 2.116-5.102 5.319-1.493 3.078 10.954zM723.376 646.55v11.378h-21.43l12.009-17.752 9.421 6.374zM411.494 96.102l8.356 7.72-3.378 3.658h-4.978v-11.378zM134.895 252.826l7.134-8.863 11.010 8.863-11.010 8.863-7.134-8.863zM134.895 390.44l7.134-8.863 11.010 8.863-11.010 8.86-7.134-8.86zM134.895 528.050l7.134-8.863 11.010 8.863-11.010 8.863-7.134-8.863zM238.151 684.776v-11.378h21.494l-12.084 17.774-9.409-6.397zM238.151 784.162l9.41-6.396 12.081 17.774h-21.491v-11.378zM621.295 822.387l-9.415 6.396-12.078-17.774h21.493v11.378zM418.77 547.163v-11.378h4.76l3.342 3.39-8.102 7.988zM673.092 641.557l-0.961-11.337 5.973 21.553-5.012-10.217zM386.494 508.937l9.228-6.656 13.008 18.034h-22.236v-11.378zM337.944 409.551v-11.378h8.536l2.388 8.195-10.923 3.183zM329.271 371.325l11.226-1.849 2.176 13.227h-13.402v-11.378zM328.105 271.94v-11.378h13.085l-1.818 12.954-11.267-1.576zM335.817 233.711l10.998 2.918-2.243 8.459h-8.755v-11.378zM381.137 134.326v-11.378h21.473l-12.058 17.766-9.415-6.389zM742.281 635.297c-2.588 6.244-5.769 12.144-9.478 17.627l-18.847-12.749c2.844-4.207 5.296-8.755 7.305-13.596l21.020 8.718zM978.489 317.81c0 154.274-103.248 284.658-243.644 324.082l-6.15-21.908c130.702-36.702 227.038-158.228 227.038-302.174h22.756zM646.002-18.489c183.467 0 332.487 150.977 332.487 336.299h-22.756c0-173.005-139.082-313.543-309.732-313.543v-22.756zM403.137 88.377c60.681-65.673 147.085-106.866 242.865-106.866v22.756c-89.102 0-169.548 38.292-226.152 99.556l-16.713-15.445zM188.889 84.725h222.605v22.756h-222.605v-22.756zM90.622 184.018c0-54.636 43.947-99.294 98.266-99.294v22.756c-41.5 0-75.511 34.219-75.511 76.538h-22.756zM127.76 261.689c-22.6-18.193-37.138-46.251-37.138-77.67h22.756c0 24.263 11.204 45.898 28.652 59.944l-14.269 17.727zM90.622 321.633c0-31.42 14.537-59.477 37.138-77.67l14.269 17.727c-17.447 14.046-28.652 35.681-28.652 59.944h-22.756zM127.76 399.3c-22.6-18.196-37.138-46.248-37.138-77.668h22.756c0 24.263 11.204 45.898 28.652 59.944l-14.269 17.724zM90.622 459.244c0-31.42 14.537-59.476 37.138-77.668l14.269 17.724c-17.447 14.046-28.652 35.681-28.652 59.944h-22.756zM127.76 536.913c-22.6-18.194-37.138-46.249-37.138-77.669h22.756c0 24.263 11.204 45.897 28.652 59.943l-14.269 17.725zM90.622 596.856c0-31.42 14.537-59.475 37.138-77.669l14.269 17.725c-17.447 14.046-28.652 35.68-28.652 59.943h-22.756zM188.889 696.153c-54.32 0-98.266-44.662-98.266-99.297h22.756c0 42.321 34.011 76.542 75.511 76.542v22.755zM238.151 696.153h-49.262v-22.755h49.262v22.755zM211.511 734.469c0-20.787 6.373-40.119 17.231-56.090l18.818 12.794c-8.378 12.323-13.294 27.222-13.294 43.296h-22.756zM228.741 790.558c-10.856-15.97-17.231-35.302-17.231-56.090h22.756c0 16.074 4.917 30.973 13.294 43.298l-18.819 12.792zM86.889 772.784h151.262v22.756h-151.262v-22.756zM-11.378 872.081c0-54.635 43.947-99.297 98.266-99.297v22.756c-41.5 0-75.511 34.22-75.511 76.541h-22.756zM86.889 971.378c-54.32 0-98.266-44.662-98.266-99.297h22.756c0 42.321 34.011 76.541 75.511 76.541v22.756zM549.666 971.378h-462.777v-22.756h462.777v22.756zM647.93 872.081c0 54.635-43.947 99.297-98.265 99.297v-22.756c41.501 0 75.509-34.22 75.509-76.541h22.756zM630.704 815.991c10.854 15.97 17.226 35.302 17.226 56.090h-22.756c0-16.074-4.915-30.973-13.295-43.298l18.825-12.792zM772.557 833.765h-151.262v-22.756h151.262v22.756zM870.821 734.469c0 54.635-43.947 99.297-98.264 99.297v-22.756c41.495 0 75.509-34.22 75.509-76.541h22.756zM772.557 635.172c54.318 0 98.264 44.662 98.264 99.297h-22.756c0-42.321-34.014-76.541-75.509-76.541v-22.756zM723.376 635.172h49.18v22.756h-49.18v-22.756zM772.557 772.784c20.668 0 37.729-17.072 37.729-38.316h22.756c0 33.557-26.994 61.071-60.484 61.071v-22.756zM309.777 772.784h462.78v22.756h-462.78v-22.756zM272.044 734.469c0 21.243 17.063 38.316 37.733 38.316v22.756c-33.491 0-60.489-27.514-60.489-61.071h22.756zM309.777 696.153c-20.671 0-37.733 17.072-37.733 38.316h-22.756c0-33.557 26.998-61.071 60.489-61.071v22.756zM651.668 696.153h-341.891v-22.756h341.891v22.756zM772.557 696.153h-120.889v-22.756h120.889v22.756zM810.286 734.469c0-21.243-17.061-38.316-37.729-38.316v-22.756c33.49 0 60.484 27.514 60.484 61.071h-22.756zM26.4 872.081c0-33.557 26.998-61.071 60.489-61.071v22.756c-20.671 0-37.733 17.072-37.733 38.316h-22.756zM86.889 933.152c-33.491 0-60.489-27.514-60.489-61.071h22.756c0 21.243 17.063 38.316 37.733 38.316v22.756zM549.666 933.152h-462.777v-22.756h462.777v22.756zM610.156 872.081c0 33.557-26.999 61.071-60.491 61.071v-22.756c20.668 0 37.735-17.072 37.735-38.316h22.756zM549.666 811.010c33.491 0 60.491 27.514 60.491 61.071h-22.756c0-21.243-17.067-38.316-37.735-38.316v-22.756zM86.889 811.010h462.777v22.756h-462.777v-22.756zM188.889 635.172h462.779v22.756h-462.779v-22.756zM151.155 596.856c0 21.243 17.064 38.316 37.733 38.316v22.756c-33.489 0-60.489-27.514-60.489-61.071h22.756zM188.889 558.541c-20.669 0-37.733 17.072-37.733 38.315h-22.756c0-33.557 26.999-61.071 60.489-61.071v22.756zM418.77 558.541h-229.881v-22.756h229.881v22.756zM646.002 654.103c-91.874 0-175.14-37.893-235.335-98.952l16.205-15.976c56.138 56.944 133.654 92.172 219.13 92.172v22.756zM674.059 652.894c-9.239 0.784-18.591 1.208-28.058 1.208v-22.756c8.784 0 17.499-0.394 26.129-1.127l1.929 22.674zM651.668 635.172c5.808 0 11.383-1.364 16.418-3.831l10.018 20.433c-8.038 3.94-17.033 6.154-26.436 6.154v-22.756zM386.494 520.315h-197.605v-22.756h197.605v22.756zM348.868 406.368c10.16 34.866 26.158 67.222 46.854 95.914l-18.455 13.313c-22.189-30.762-39.348-65.461-50.246-102.86l21.847-6.366zM188.889 398.173h149.056v22.756h-149.056v-22.756zM128.4 459.244c0-33.559 26.998-61.071 60.489-61.071v22.756c-20.671 0-37.733 17.071-37.733 38.316h-22.756zM188.889 520.315c-33.491 0-60.489-27.514-60.489-61.071h22.756c0 21.243 17.062 38.315 37.733 38.315v22.756zM188.889 359.947h140.382v22.756h-140.382v-22.756zM151.155 321.633c0 21.242 17.062 38.315 37.733 38.315v22.756c-33.491 0-60.489-27.511-60.489-61.070h22.756zM188.889 283.318c-20.671 0-37.733 17.067-37.733 38.315h-22.756c0-33.559 26.998-61.070 60.489-61.070v22.756zM328.105 283.318h-139.216v-22.756h139.216v22.756zM313.512 317.81c0-16.117 1.151-31.954 3.325-47.451l22.535 3.157c-2.031 14.484-3.104 29.264-3.104 44.294h-22.756zM318.044 373.174c-2.964-18.017-4.531-36.506-4.531-55.364h22.756c0 17.596 1.462 34.85 4.229 51.666l-22.453 3.698zM128.4 184.018c0-33.559 26.998-61.070 60.489-61.070v22.756c-20.671 0-37.733 17.072-37.733 38.315h-22.756zM188.889 245.089c-33.491 0-60.489-27.511-60.489-61.070h22.756c0 21.248 17.062 38.315 37.733 38.315v22.756zM335.817 245.089h-146.929v-22.756h146.929v22.756zM390.552 140.715c-19.598 28.877-34.539 61.218-43.737 95.915l-21.996-5.831c9.865-37.217 25.89-71.902 46.903-102.861l18.829 12.777zM188.889 122.948h192.249v22.756h-192.249v-22.756zM646.002 42.49c-149.821 0-271.956 123.392-271.956 275.319h-22.756c0-164.244 132.071-298.075 294.712-298.075v22.756zM917.953 317.81c0-151.927-122.135-275.319-271.952-275.319v-22.756c162.64 0 294.707 133.831 294.707 298.075h-22.756zM646.002 593.122c149.817 0 271.952-123.39 271.952-275.312h22.756c0 164.237-132.068 298.068-294.707 298.068v-22.756zM374.046 317.81c0 151.922 122.135 275.312 271.956 275.312v22.756c-162.641 0-294.712-133.831-294.712-298.068h22.756z" />
<glyph unicode="&#xe930;" glyph-name="next" d="M526.758 3.091l201.991 201.99c4.675 4.672 7.251 10.912 7.251 17.562s-2.576 12.883-7.251 17.555l-14.872 14.88c-9.691 9.677-25.441 9.677-35.117 0l-169.62-169.619-169.808 169.805c-4.676 4.672-10.909 7.251-17.555 7.251-6.654 0-12.887-2.579-17.566-7.251l-14.868-14.874c-4.676-4.678-7.251-10.912-7.251-17.562s2.576-12.883 7.251-17.555l202.175-202.182c4.691-4.685 10.953-7.258 17.61-7.245 6.683-0.013 12.941 2.56 17.628 7.245zM491.367 946.254l-201.991-201.995c-4.676-4.672-7.251-10.908-7.251-17.558s2.576-12.886 7.251-17.558l14.872-14.876c9.691-9.679 25.441-9.679 35.117 0l169.619 169.62 169.808-169.808c4.676-4.672 10.909-7.251 17.555-7.251 6.653 0 12.886 2.579 17.565 7.251l14.868 14.876c4.676 4.676 7.252 10.909 7.252 17.558s-2.576 12.886-7.252 17.558l-202.175 202.183c-4.69 4.683-10.952 7.255-17.61 7.24-6.684 0.015-12.942-2.557-17.629-7.24z" />
<glyph unicode="&#xe931;" glyph-name="question" d="M496.315 273.558c-29.278 0-52.982-24.399-52.982-53.678 0-28.583 23.006-53.685 52.982-53.685s53.68 25.102 53.68 53.685c0 29.28-24.398 53.678-53.68 53.678zM505.336 680c-94.114 0-137.336-55.77-137.336-93.416 0-27.19 23.005-39.738 41.828-39.738 37.644 0 22.308 53.68 93.416 53.68 34.858 0 62.744-15.338 62.744-47.406 0-37.648-39.040-59.258-62.046-78.778-20.216-17.428-46.708-46.012-46.708-105.966 0-36.25 9.758-46.708 38.342-46.708 34.16 0 41.13 15.336 41.13 28.583 0 36.252 0.7 57.166 39.042 87.142 18.822 14.64 78.080 62.046 78.080 127.578s-59.258 115.030-148.492 115.030zM0 448c0 283.006 229.032 512 512 512 283.006 0 512-229.032 512-512 0-283.006-229.035-512-512-512h-472c-22.092 0-40 17.906-40 39.997v472.003zM80 16.002h432c238.783 0 431.998 193.242 431.998 431.998 0 238.786-193.242 432-431.998 432-238.786 0-432-193.246-432-432v-431.998z" />
<glyph unicode="&#xe932;" d="M804.571 691.81c40.229 0 73.143-32.914 73.143-73.143v-438.857c0-40.229-32.914-73.143-73.143-73.143h-731.429c-40.229 0-73.143 32.914-73.143 73.143v438.857c0 40.229 32.914 73.143 73.143 73.143h731.429zM716.8 618.667h-552.229l281.6-171.886 270.629 171.886zM73.143 179.81h731.429v409.6l-358.4-230.4-373.029 230.4v-409.6z" />
<glyph unicode="&#xe933;" d="M446.171 446.781l-5.081-8.324 5.183-3.164 5.126 3.256-5.229 8.232zM716.8 618.667l5.227-8.232 28.316 17.985h-33.543v-9.752zM164.571 618.667v9.752h-34.696l29.615-18.077 5.081 8.324zM804.571 179.81v-9.752h9.752v9.752h-9.752zM73.143 179.81h-9.752v-9.752h9.752v9.752zM804.571 589.41h9.752v17.863l-15.028-9.659 5.276-8.204zM446.171 359.010l-5.125-8.297 5.229-3.23 5.17 3.324-5.274 8.204zM73.143 589.41l5.125 8.297-14.877 9.189v-17.486h9.752zM73.143 682.057h731.429v19.505h-731.429v-19.505zM9.752 618.667c0 34.842 28.548 63.39 63.39 63.39v19.505c-45.615 0-82.895-37.28-82.895-82.895h19.505zM9.752 179.81v438.857h-19.505v-438.857h19.505zM73.143 116.419c-34.842 0-63.39 28.55-63.39 63.39h-19.505c0-45.617 37.281-82.895 82.895-82.895v19.505zM804.571 116.419h-731.429v-19.505h731.429v19.505zM867.962 179.81c0-34.84-28.55-63.39-63.39-63.39v-19.505c45.617 0 82.895 37.278 82.895 82.895h-19.505zM867.962 618.667v-438.857h19.505v438.857h-19.505zM804.571 682.057c34.84 0 63.39-28.548 63.39-63.39h19.505c0 45.615-37.278 82.895-82.895 82.895v-19.505zM451.4 438.548l270.627 171.886-10.455 16.465-270.63-171.886 10.457-16.465zM159.49 610.343l281.6-171.886 10.162 16.648-281.6 171.886-10.162-16.648zM716.8 628.419h-552.229v-19.505h552.229v19.505zM804.571 189.562h-731.429v-19.505h731.429v19.505zM794.819 589.41v-409.6h19.505v409.6h-19.505zM451.445 350.806l358.402 230.4-10.552 16.407-358.398-230.4 10.547-16.407zM68.018 581.112l373.029-230.4 10.25 16.595-373.029 230.4-10.25-16.595zM82.895 179.81v409.6h-19.505v-409.6h19.505z" />
<glyph unicode="&#xe934;" d="M804.571 448c94.257 0 170.667 76.41 170.667 170.667s-76.41 170.667-170.667 170.667c-94.257 0-170.667-76.41-170.667-170.667s76.41-170.667 170.667-170.667z" />
<glyph unicode="&#xe935;" horiz-adv-x="975" d="M830.123 463.443l77.21 46.322c34.743 19.301 46.324 65.625 27.019 100.368l-81.067 138.971c-19.3 34.743-65.624 46.324-100.367 27.022l-77.205-46.324c-2.877 1.437-5.749 3.409-8.826 5.518-5.179 3.556-10.928 7.5-18.198 9.923v92.648c0 38.603-30.881 73.346-73.348 73.346h-158.272c-38.603 0-73.346-30.882-73.346-73.346v-92.648c-1.822-0.911-3.86-1.822-6.011-2.784v0c-6.961-3.113-15.112-6.759-21.011-12.657l-77.206 46.324c-34.743 19.301-81.067 7.72-100.368-27.022l-81.067-138.971c-19.302-34.743-7.721-81.067 27.022-100.368l77.207-46.322v-30.886l-77.207-46.324c-34.743-19.3-46.324-65.624-27.022-100.367l81.067-138.971c19.301-34.743 65.625-46.324 100.368-27.024l77.206 46.324c3.86-1.931 8.686-4.823 13.511-7.719s9.65-5.793 13.511-7.719v-92.648c0-38.605 30.882-73.348 73.346-73.348h158.272c38.605 0 73.348 30.881 73.348 73.348v92.648c1.824 0.912 3.857 1.819 6.012 2.784v0c6.958 3.111 15.111 6.758 21.012 12.654l77.205-46.324c34.743-19.3 81.067-7.719 100.367 27.024l81.067 138.971c19.305 34.743 7.724 81.067-27.019 100.367l-77.21 46.324v30.886zM667.999 637.156l119.667 69.486 77.21-135.111-119.671-69.486 3.862-27.022c3.857-7.722 3.857-19.303 3.857-30.884 0-3.467-0.775-7.719-1.638-12.4v0c-1.048-5.73-2.219-12.108-2.219-18.481l-3.862-27.024 119.671-69.486-77.21-131.248-119.667 69.486-19.305-15.443c-19.3-15.443-38.6-27.024-57.905-34.743l-23.162-11.581v-138.971h-154.41v138.971l-23.162 11.581c-6.434 3.862-12.868 7.29-19.301 10.723-12.868 6.861-25.736 13.726-38.603 24.020l-19.301 15.443-119.67-69.486-77.206 131.248 119.67 69.486-3.86 27.024c-3.86 7.719-3.86 19.3-3.86 30.881 0 3.472 0.78 7.724 1.639 12.4 1.052 5.734 2.222 12.108 2.222 18.484l3.86 27.022-119.67 69.486 77.206 131.251 119.67-69.486 19.301 15.441c19.301 15.441 38.603 27.022 57.905 34.743l23.162 11.581v138.971h154.41v-135.111l23.162-11.581c6.437-3.86 12.868-7.291 19.305-10.722v0c12.868-6.863 25.737-13.726 38.6-24.020l19.305-15.441zM490.457 293.586c84.929 0 154.414 69.486 154.414 154.414s-69.486 154.413-154.414 154.413c-84.926 0-154.412-69.486-154.412-154.413 0-84.929 69.486-154.414 154.412-154.414zM413.333 447.995c0 42.464 34.743 77.207 77.207 77.207 42.462 0 77.205-34.743 77.205-77.207 0-42.462-34.743-77.205-77.205-77.205-42.464 0-77.207 34.743-77.207 77.205z" />
</font>
</defs>
</svg>
